{
    "asset" : {
        "generator" : "Khronos glTF Blender I/O v1.4.40",
        "version" : "2.0"
    },
    "scene" : 0,
    "scenes" : [
        {
            "name" : "Scene",
            "nodes" : [
                0,
                1,
                2,
                3,
                4,
                5,
                6,
                7,
                8,
                9,
                10,
                11
            ]
        }
    ],
    "nodes" : [
        {
            "mesh" : 0,
            "name" : "Cube",
            "scale" : [
                1.2067476511001587,
                1,
                1
            ],
            "translation" : [
                0,
                2.513622760772705,
                0
            ]
        },
        {
            "mesh" : 1,
            "name" : "Cube.001",
            "scale" : [
                0.7130105495452881,
                0.7130105495452881,
                0.7130105495452881
            ],
            "translation" : [
                0,
                1.092912197113037,
                0
            ]
        },
        {
            "mesh" : 2,
            "name" : "Cube.002",
            "scale" : [
                1.2067476511001587,
                1,
                1
            ],
            "translation" : [
                0,
                2.513622760772705,
                0
            ]
        },
        {
            "mesh" : 3,
            "name" : "Cube.003",
            "scale" : [
                1.1734570264816284,
                0.9724130034446716,
                0.9724130034446716
            ],
            "translation" : [
                -0.00030905575840733945,
                2.535447359085083,
                -0.05444890260696411
            ]
        },
        {
            "mesh" : 4,
            "name" : "Cube.004",
            "scale" : [
                0.7130105495452881,
                0.7130105495452881,
                0.7130105495452881
            ],
            "translation" : [
                0,
                1.073922038078308,
                0.04114525392651558
            ]
        },
        {
            "mesh" : 5,
            "name" : "Cube.005"
        },
        {
            "mesh" : 6,
            "name" : "Cube.006",
            "translation" : [
                0,
                0.32968953251838684,
                0
            ]
        },
        {
            "mesh" : 7,
            "name" : "Cube.007",
            "scale" : [
                0.09239905327558517,
                0.053389668464660645,
                0.04817979410290718
            ],
            "translation" : [
                0,
                2.3243913650512695,
                0.8621517419815063
            ]
        },
        {
            "mesh" : 8,
            "name" : "NurbsPath",
            "rotation" : [
                0.035795725882053375,
                0,
                0,
                0.999359130859375
            ],
            "scale" : [
                0.11199871450662613,
                0.11199871450662613,
                0.11199871450662613
            ],
            "translation" : [
                0,
                2.1377112865448,
                0.8859089016914368
            ]
        },
        {
            "mesh" : 9,
            "name" : "Cube.008",
            "rotation" : [
                -0.023529330268502235,
                0.0019827678333967924,
                -0.001975785242393613,
                0.9997193217277527
            ],
            "scale" : [
                0.38768240809440613,
                0.38768240809440613,
                0.7777723073959351
            ],
            "translation" : [
                -0.007379054091870785,
                0.7403815984725952,
                -0.9786935448646545
            ]
        },
        {
            "name" : "Camera",
            "scale" : [
                1.526898741722107,
                1.5268986225128174,
                1.526898980140686
            ]
        },
        {
            "name" : "BezierCircle",
            "scale" : [
                11.569640159606934,
                11.569640159606934,
                11.569640159606934
            ],
            "translation" : [
                0,
                4.222355365753174,
                0
            ]
        }
    ],
    "materials" : [
        {
            "doubleSided" : true,
            "name" : "Orange",
            "pbrMetallicRoughness" : {
                "baseColorFactor" : [
                    0.8000000715255737,
                    0.13069631159305573,
                    0,
                    1
                ],
                "metallicFactor" : 0,
                "roughnessFactor" : 0.699999988079071
            }
        },
        {
            "doubleSided" : true,
            "name" : "White",
            "pbrMetallicRoughness" : {
                "metallicFactor" : 0,
                "roughnessFactor" : 0.699999988079071
            }
        },
        {
            "doubleSided" : true,
            "name" : "Black",
            "pbrMetallicRoughness" : {
                "baseColorFactor" : [
                    0.017387548461556435,
                    0.017387548461556435,
                    0.017387548461556435,
                    1
                ],
                "metallicFactor" : 0,
                "roughnessFactor" : 0.5
            }
        },
        {
            "doubleSided" : true,
            "name" : "Material",
            "pbrMetallicRoughness" : {
                "baseColorFactor" : [
                    0.4575308859348297,
                    0.06354735791683197,
                    0.0068439338356256485,
                    1
                ],
                "metallicFactor" : 0,
                "roughnessFactor" : 0.699999988079071
            }
        }
    ],
    "meshes" : [
        {
            "name" : "Cube",
            "primitives" : [
                {
                    "attributes" : {
                        "POSITION" : 0,
                        "NORMAL" : 1,
                        "TEXCOORD_0" : 2
                    },
                    "indices" : 3,
                    "material" : 0
                }
            ]
        },
        {
            "name" : "Cube.001",
            "primitives" : [
                {
                    "attributes" : {
                        "POSITION" : 4,
                        "NORMAL" : 5,
                        "TEXCOORD_0" : 6
                    },
                    "indices" : 7,
                    "material" : 0
                }
            ]
        },
        {
            "name" : "Cube.002",
            "primitives" : [
                {
                    "attributes" : {
                        "POSITION" : 8,
                        "NORMAL" : 9,
                        "TEXCOORD_0" : 10
                    },
                    "indices" : 11,
                    "material" : 1
                }
            ]
        },
        {
            "name" : "Cube.003",
            "primitives" : [
                {
                    "attributes" : {
                        "POSITION" : 12,
                        "NORMAL" : 13,
                        "TEXCOORD_0" : 14
                    },
                    "indices" : 15,
                    "material" : 1
                }
            ]
        },
        {
            "name" : "Cube.004",
            "primitives" : [
                {
                    "attributes" : {
                        "POSITION" : 16,
                        "NORMAL" : 17,
                        "TEXCOORD_0" : 18
                    },
                    "indices" : 19,
                    "material" : 1
                }
            ]
        },
        {
            "name" : "Cube.006",
            "primitives" : [
                {
                    "attributes" : {
                        "POSITION" : 20,
                        "NORMAL" : 21,
                        "TEXCOORD_0" : 22
                    },
                    "indices" : 23,
                    "material" : 2
                }
            ]
        },
        {
            "name" : "Cube.007",
            "primitives" : [
                {
                    "attributes" : {
                        "POSITION" : 24,
                        "NORMAL" : 25,
                        "TEXCOORD_0" : 26
                    },
                    "indices" : 23,
                    "material" : 3
                }
            ]
        },
        {
            "name" : "Cube.008",
            "primitives" : [
                {
                    "attributes" : {
                        "POSITION" : 27,
                        "NORMAL" : 28,
                        "TEXCOORD_0" : 29
                    },
                    "indices" : 30,
                    "material" : 2
                }
            ]
        },
        {
            "name" : "NurbsPath",
            "primitives" : [
                {
                    "attributes" : {
                        "POSITION" : 31,
                        "NORMAL" : 32,
                        "TEXCOORD_0" : 33
                    },
                    "indices" : 34,
                    "material" : 2
                }
            ]
        },
        {
            "name" : "Cube.009",
            "primitives" : [
                {
                    "attributes" : {
                        "POSITION" : 35,
                        "NORMAL" : 36,
                        "TEXCOORD_0" : 37
                    },
                    "indices" : 38,
                    "material" : 0
                },
                {
                    "attributes" : {
                        "POSITION" : 39,
                        "NORMAL" : 40,
                        "TEXCOORD_0" : 41
                    },
                    "indices" : 42,
                    "material" : 1
                }
            ]
        }
    ],
    "accessors" : [
        {
            "bufferView" : 0,
            "componentType" : 5126,
            "count" : 3635,
            "max" : [
                1.0292341709136963,
                1.6664072275161743,
                0.8015923500061035
            ],
            "min" : [
                -1.0292341709136963,
                -0.8015923500061035,
                -0.8015923500061035
            ],
            "type" : "VEC3"
        },
        {
            "bufferView" : 1,
            "componentType" : 5126,
            "count" : 3635,
            "type" : "VEC3"
        },
        {
            "bufferView" : 2,
            "componentType" : 5126,
            "count" : 3635,
            "type" : "VEC2"
        },
        {
            "bufferView" : 3,
            "componentType" : 5123,
            "count" : 18816,
            "type" : "SCALAR"
        },
        {
            "bufferView" : 4,
            "componentType" : 5126,
            "count" : 4857,
            "max" : [
                1.4715476036071777,
                1.0230947732925415,
                0.8024460673332214
            ],
            "min" : [
                -1.4715477228164673,
                -1.5112254619598389,
                -0.8024531602859497
            ],
            "type" : "VEC3"
        },
        {
            "bufferView" : 5,
            "componentType" : 5126,
            "count" : 4857,
            "type" : "VEC3"
        },
        {
            "bufferView" : 6,
            "componentType" : 5126,
            "count" : 4857,
            "type" : "VEC2"
        },
        {
            "bufferView" : 7,
            "componentType" : 5123,
            "count" : 25344,
            "type" : "SCALAR"
        },
        {
            "bufferView" : 8,
            "componentType" : 5126,
            "count" : 3546,
            "max" : [
                0.792033314704895,
                -0.08383337408304214,
                0.8873199820518494
            ],
            "min" : [
                -0.7920332551002502,
                -0.8212634325027466,
                0.042742520570755005
            ],
            "type" : "VEC3"
        },
        {
            "bufferView" : 9,
            "componentType" : 5126,
            "count" : 3546,
            "type" : "VEC3"
        },
        {
            "bufferView" : 10,
            "componentType" : 5126,
            "count" : 3546,
            "type" : "VEC2"
        },
        {
            "bufferView" : 11,
            "componentType" : 5123,
            "count" : 19968,
            "type" : "SCALAR"
        },
        {
            "bufferView" : 12,
            "componentType" : 5126,
            "count" : 842,
            "max" : [
                0.7358148097991943,
                1.5478932857513428,
                0.36101141571998596
            ],
            "min" : [
                -0.7358148694038391,
                0.6703097820281982,
                0.11920370906591415
            ],
            "type" : "VEC3"
        },
        {
            "bufferView" : 13,
            "componentType" : 5126,
            "count" : 842,
            "type" : "VEC3"
        },
        {
            "bufferView" : 14,
            "componentType" : 5126,
            "count" : 842,
            "type" : "VEC2"
        },
        {
            "bufferView" : 15,
            "componentType" : 5123,
            "count" : 4224,
            "type" : "SCALAR"
        },
        {
            "bufferView" : 16,
            "componentType" : 5126,
            "count" : 849,
            "max" : [
                0.6491127610206604,
                0.9481256604194641,
                0.8187218308448792
            ],
            "min" : [
                -0.6491127014160156,
                -0.6765020489692688,
                0.21532589197158813
            ],
            "type" : "VEC3"
        },
        {
            "bufferView" : 17,
            "componentType" : 5126,
            "count" : 849,
            "type" : "VEC3"
        },
        {
            "bufferView" : 18,
            "componentType" : 5126,
            "count" : 849,
            "type" : "VEC2"
        },
        {
            "bufferView" : 19,
            "componentType" : 5123,
            "count" : 4608,
            "type" : "SCALAR"
        },
        {
            "bufferView" : 20,
            "componentType" : 5126,
            "count" : 882,
            "max" : [
                0.4017850160598755,
                2.658879280090332,
                0.8075029850006104
            ],
            "min" : [
                -0.4017850160598755,
                2.462233781814575,
                0.706432580947876
            ],
            "type" : "VEC3"
        },
        {
            "bufferView" : 21,
            "componentType" : 5126,
            "count" : 882,
            "type" : "VEC3"
        },
        {
            "bufferView" : 22,
            "componentType" : 5126,
            "count" : 882,
            "type" : "VEC2"
        },
        {
            "bufferView" : 23,
            "componentType" : 5123,
            "count" : 4608,
            "type" : "SCALAR"
        },
        {
            "bufferView" : 24,
            "componentType" : 5126,
            "count" : 882,
            "max" : [
                0.4934121370315552,
                2.623366594314575,
                0.7947893142700195
            ],
            "min" : [
                -0.4934121370315552,
                2.4660956859588623,
                0.624195396900177
            ],
            "type" : "VEC3"
        },
        {
            "bufferView" : 25,
            "componentType" : 5126,
            "count" : 882,
            "type" : "VEC3"
        },
        {
            "bufferView" : 26,
            "componentType" : 5126,
            "count" : 882,
            "type" : "VEC2"
        },
        {
            "bufferView" : 27,
            "componentType" : 5126,
            "count" : 729,
            "max" : [
                0.9197531938552856,
                0.9166667461395264,
                0.9166667461395264
            ],
            "min" : [
                -0.9197531938552856,
                -0.9166667461395264,
                -0.9166667461395264
            ],
            "type" : "VEC3"
        },
        {
            "bufferView" : 28,
            "componentType" : 5126,
            "count" : 729,
            "type" : "VEC3"
        },
        {
            "bufferView" : 29,
            "componentType" : 5126,
            "count" : 729,
            "type" : "VEC2"
        },
        {
            "bufferView" : 30,
            "componentType" : 5123,
            "count" : 3840,
            "type" : "SCALAR"
        },
        {
            "bufferView" : 31,
            "componentType" : 5126,
            "count" : 1308,
            "max" : [
                1.7723418474197388,
                0.6558958888053894,
                0.04914504289627075
            ],
            "min" : [
                -1.7409025430679321,
                -0.16623902320861816,
                -0.4424479603767395
            ],
            "type" : "VEC3"
        },
        {
            "bufferView" : 32,
            "componentType" : 5126,
            "count" : 1308,
            "type" : "VEC3"
        },
        {
            "bufferView" : 33,
            "componentType" : 5126,
            "count" : 1308,
            "type" : "VEC2"
        },
        {
            "bufferView" : 34,
            "componentType" : 5123,
            "count" : 6900,
            "type" : "SCALAR"
        },
        {
            "bufferView" : 35,
            "componentType" : 5126,
            "count" : 275,
            "max" : [
                0.5785963535308838,
                0.7828764915466309,
                0.7766987085342407
            ],
            "min" : [
                -0.5785963535308838,
                -0.8624044060707092,
                -0.30963650345802307
            ],
            "type" : "VEC3"
        },
        {
            "bufferView" : 36,
            "componentType" : 5126,
            "count" : 275,
            "type" : "VEC3"
        },
        {
            "bufferView" : 37,
            "componentType" : 5126,
            "count" : 275,
            "type" : "VEC2"
        },
        {
            "bufferView" : 38,
            "componentType" : 5123,
            "count" : 1248,
            "type" : "SCALAR"
        },
        {
            "bufferView" : 39,
            "componentType" : 5126,
            "count" : 103,
            "max" : [
                0.21154171228408813,
                1.0734491348266602,
                -0.1272565722465515
            ],
            "min" : [
                -0.21154168248176575,
                0.6351332664489746,
                -0.29765209555625916
            ],
            "type" : "VEC3"
        },
        {
            "bufferView" : 40,
            "componentType" : 5126,
            "count" : 103,
            "type" : "VEC3"
        },
        {
            "bufferView" : 41,
            "componentType" : 5126,
            "count" : 103,
            "type" : "VEC2"
        },
        {
            "bufferView" : 42,
            "componentType" : 5123,
            "count" : 480,
            "type" : "SCALAR"
        }
    ],
    "bufferViews" : [
        {
            "buffer" : 0,
            "byteLength" : 43620,
            "byteOffset" : 0
        },
        {
            "buffer" : 0,
            "byteLength" : 43620,
            "byteOffset" : 43620
        },
        {
            "buffer" : 0,
            "byteLength" : 29080,
            "byteOffset" : 87240
        },
        {
            "buffer" : 0,
            "byteLength" : 37632,
            "byteOffset" : 116320
        },
        {
            "buffer" : 0,
            "byteLength" : 58284,
            "byteOffset" : 153952
        },
        {
            "buffer" : 0,
            "byteLength" : 58284,
            "byteOffset" : 212236
        },
        {
            "buffer" : 0,
            "byteLength" : 38856,
            "byteOffset" : 270520
        },
        {
            "buffer" : 0,
            "byteLength" : 50688,
            "byteOffset" : 309376
        },
        {
            "buffer" : 0,
            "byteLength" : 42552,
            "byteOffset" : 360064
        },
        {
            "buffer" : 0,
            "byteLength" : 42552,
            "byteOffset" : 402616
        },
        {
            "buffer" : 0,
            "byteLength" : 28368,
            "byteOffset" : 445168
        },
        {
            "buffer" : 0,
            "byteLength" : 39936,
            "byteOffset" : 473536
        },
        {
            "buffer" : 0,
            "byteLength" : 10104,
            "byteOffset" : 513472
        },
        {
            "buffer" : 0,
            "byteLength" : 10104,
            "byteOffset" : 523576
        },
        {
            "buffer" : 0,
            "byteLength" : 6736,
            "byteOffset" : 533680
        },
        {
            "buffer" : 0,
            "byteLength" : 8448,
            "byteOffset" : 540416
        },
        {
            "buffer" : 0,
            "byteLength" : 10188,
            "byteOffset" : 548864
        },
        {
            "buffer" : 0,
            "byteLength" : 10188,
            "byteOffset" : 559052
        },
        {
            "buffer" : 0,
            "byteLength" : 6792,
            "byteOffset" : 569240
        },
        {
            "buffer" : 0,
            "byteLength" : 9216,
            "byteOffset" : 576032
        },
        {
            "buffer" : 0,
            "byteLength" : 10584,
            "byteOffset" : 585248
        },
        {
            "buffer" : 0,
            "byteLength" : 10584,
            "byteOffset" : 595832
        },
        {
            "buffer" : 0,
            "byteLength" : 7056,
            "byteOffset" : 606416
        },
        {
            "buffer" : 0,
            "byteLength" : 9216,
            "byteOffset" : 613472
        },
        {
            "buffer" : 0,
            "byteLength" : 10584,
            "byteOffset" : 622688
        },
        {
            "buffer" : 0,
            "byteLength" : 10584,
            "byteOffset" : 633272
        },
        {
            "buffer" : 0,
            "byteLength" : 7056,
            "byteOffset" : 643856
        },
        {
            "buffer" : 0,
            "byteLength" : 8748,
            "byteOffset" : 650912
        },
        {
            "buffer" : 0,
            "byteLength" : 8748,
            "byteOffset" : 659660
        },
        {
            "buffer" : 0,
            "byteLength" : 5832,
            "byteOffset" : 668408
        },
        {
            "buffer" : 0,
            "byteLength" : 7680,
            "byteOffset" : 674240
        },
        {
            "buffer" : 0,
            "byteLength" : 15696,
            "byteOffset" : 681920
        },
        {
            "buffer" : 0,
            "byteLength" : 15696,
            "byteOffset" : 697616
        },
        {
            "buffer" : 0,
            "byteLength" : 10464,
            "byteOffset" : 713312
        },
        {
            "buffer" : 0,
            "byteLength" : 13800,
            "byteOffset" : 723776
        },
        {
            "buffer" : 0,
            "byteLength" : 3300,
            "byteOffset" : 737576
        },
        {
            "buffer" : 0,
            "byteLength" : 3300,
            "byteOffset" : 740876
        },
        {
            "buffer" : 0,
            "byteLength" : 2200,
            "byteOffset" : 744176
        },
        {
            "buffer" : 0,
            "byteLength" : 2496,
            "byteOffset" : 746376
        },
        {
            "buffer" : 0,
            "byteLength" : 1236,
            "byteOffset" : 748872
        },
        {
            "buffer" : 0,
            "byteLength" : 1236,
            "byteOffset" : 750108
        },
        {
            "buffer" : 0,
            "byteLength" : 824,
            "byteOffset" : 751344
        },
        {
            "buffer" : 0,
            "byteLength" : 960,
            "byteOffset" : 752168
        }
    ],
    "buffers" : [
        {
            "byteLength" : 753128,
            "uri" : "data:application/octet-stream;base64,"
        }
    ]
}
