{
    "asset" : {
        "generator" : "Khronos glTF Blender I/O v1.4.40",
        "version" : "2.0"
    },
    "extensionsUsed" : [
        "KHR_materials_transmission"
    ],
    "scene" : 0,
    "scenes" : [
        {
            "name" : "Scene",
            "nodes" : [
                2
            ]
        }
    ],
    "nodes" : [
        {
            "mesh" : 0,
            "name" : "Sphere.001"
        },
        {
            "mesh" : 1,
            "name" : "Sphere.002"
        },
        {
            "children" : [
                0,
                1
            ],
            "mesh" : 2,
            "name" : "Sphere",
            "rotation" : [
                0.7071068286895752,
                0,
                0,
                0.7071068286895752
            ],
            "translation" : [
                0,
                1.0008549690246582,
                0
            ]
        }
    ],
    "materials" : [
        {
            "doubleSided" : true,
            "name" : "black",
            "pbrMetallicRoughness" : {
                "baseColorFactor" : [
                    0,
                    0,
                    0,
                    1
                ],
                "metallicFactor" : 0,
                "roughnessFactor" : 0.10000000149011612
            }
        },
        {
            "doubleSided" : true,
            "name" : "metal",
            "pbrMetallicRoughness" : {
                "baseColorFactor" : [
                    0.800000011920929,
                    0.800000011920929,
                    0.800000011920929,
                    1
                ],
                "roughnessFactor" : 0.5
            }
        },
        {
            "doubleSided" : true,
            "emissiveFactor" : [
                0.009143111245976554,
                0.1253365416129908,
                0.008029741913523403
            ],
            "extensions" : {
                "KHR_materials_transmission" : {
                    "transmissionFactor" : 0.5
                }
            },
            "name" : "light",
            "pbrMetallicRoughness" : {
                "metallicFactor" : 0,
                "roughnessFactor" : 0.5
            }
        },
        {
            "doubleSided" : true,
            "name" : "white",
            "pbrMetallicRoughness" : {
                "baseColorFactor" : [
                    0.800000011920929,
                    0.800000011920929,
                    0.800000011920929,
                    1
                ],
                "metallicFactor" : 0,
                "roughnessFactor" : 0.10000000149011612
            }
        },
        {
            "doubleSided" : true,
            "name" : "red",
            "pbrMetallicRoughness" : {
                "baseColorFactor" : [
                    0.8000000715255737,
                    0.02958429604768753,
                    0.015439174138009548,
                    1
                ],
                "metallicFactor" : 0,
                "roughnessFactor" : 0.30000001192092896
            }
        }
    ],
    "meshes" : [
        {
            "name" : "Sphere.004",
            "primitives" : [
                {
                    "attributes" : {
                        "POSITION" : 0,
                        "NORMAL" : 1,
                        "TEXCOORD_0" : 2
                    },
                    "indices" : 3,
                    "material" : 0
                }
            ]
        },
        {
            "name" : "Sphere.005",
            "primitives" : [
                {
                    "attributes" : {
                        "POSITION" : 4,
                        "NORMAL" : 5,
                        "TEXCOORD_0" : 6
                    },
                    "indices" : 7,
                    "material" : 1
                },
                {
                    "attributes" : {
                        "POSITION" : 8,
                        "NORMAL" : 9,
                        "TEXCOORD_0" : 10
                    },
                    "indices" : 11,
                    "material" : 2
                }
            ]
        },
        {
            "name" : "Sphere",
            "primitives" : [
                {
                    "attributes" : {
                        "POSITION" : 12,
                        "NORMAL" : 13,
                        "TEXCOORD_0" : 14
                    },
                    "indices" : 15,
                    "material" : 3
                },
                {
                    "attributes" : {
                        "POSITION" : 16,
                        "NORMAL" : 17,
                        "TEXCOORD_0" : 18
                    },
                    "indices" : 19,
                    "material" : 4
                }
            ]
        }
    ],
    "accessors" : [
        {
            "bufferView" : 0,
            "componentType" : 5126,
            "count" : 559,
            "max" : [
                0.9376175999641418,
                0.9376178979873657,
                0.937617301940918
            ],
            "min" : [
                -0.9376170039176941,
                -0.9376178979873657,
                -0.9376178979873657
            ],
            "type" : "VEC3"
        },
        {
            "bufferView" : 1,
            "componentType" : 5126,
            "count" : 559,
            "type" : "VEC3"
        },
        {
            "bufferView" : 2,
            "componentType" : 5126,
            "count" : 559,
            "type" : "VEC2"
        },
        {
            "bufferView" : 3,
            "componentType" : 5123,
            "count" : 2880,
            "type" : "SCALAR"
        },
        {
            "bufferView" : 4,
            "componentType" : 5126,
            "count" : 248,
            "max" : [
                0.27086547017097473,
                0.9878182411193848,
                0.27086541056632996
            ],
            "min" : [
                -0.2708653211593628,
                0.892923891544342,
                -0.2708652913570404
            ],
            "type" : "VEC3"
        },
        {
            "bufferView" : 5,
            "componentType" : 5126,
            "count" : 248,
            "type" : "VEC3"
        },
        {
            "bufferView" : 6,
            "componentType" : 5126,
            "count" : 248,
            "type" : "VEC2"
        },
        {
            "bufferView" : 7,
            "componentType" : 5123,
            "count" : 1140,
            "type" : "SCALAR"
        },
        {
            "bufferView" : 8,
            "componentType" : 5126,
            "count" : 66,
            "max" : [
                0.27086547017097473,
                0.9544821381568909,
                0.27086541056632996
            ],
            "min" : [
                -0.2708653211593628,
                0.9278042316436768,
                -0.2708652913570404
            ],
            "type" : "VEC3"
        },
        {
            "bufferView" : 9,
            "componentType" : 5126,
            "count" : 66,
            "type" : "VEC3"
        },
        {
            "bufferView" : 10,
            "componentType" : 5126,
            "count" : 66,
            "type" : "VEC2"
        },
        {
            "bufferView" : 11,
            "componentType" : 5123,
            "count" : 192,
            "type" : "SCALAR"
        },
        {
            "bufferView" : 12,
            "componentType" : 5126,
            "count" : 230,
            "max" : [
                0.9926465153694153,
                0.9238795042037964,
                0.9999993443489075
            ],
            "min" : [
                -0.9926459193229675,
                -0.9807852506637573,
                0.07465758174657822
            ],
            "type" : "VEC3"
        },
        {
            "bufferView" : 13,
            "componentType" : 5126,
            "count" : 230,
            "type" : "VEC3"
        },
        {
            "bufferView" : 14,
            "componentType" : 5126,
            "count" : 230,
            "type" : "VEC2"
        },
        {
            "bufferView" : 15,
            "componentType" : 5123,
            "count" : 1251,
            "type" : "SCALAR"
        },
        {
            "bufferView" : 16,
            "componentType" : 5126,
            "count" : 230,
            "max" : [
                0.9926466345787048,
                0.9238795042037964,
                -0.07465735822916031
            ],
            "min" : [
                -0.9926458597183228,
                -0.9807852506637573,
                -1
            ],
            "type" : "VEC3"
        },
        {
            "bufferView" : 17,
            "componentType" : 5126,
            "count" : 230,
            "type" : "VEC3"
        },
        {
            "bufferView" : 18,
            "componentType" : 5126,
            "count" : 230,
            "type" : "VEC2"
        },
        {
            "bufferView" : 19,
            "componentType" : 5123,
            "count" : 1251,
            "type" : "SCALAR"
        }
    ],
    "bufferViews" : [
        {
            "buffer" : 0,
            "byteLength" : 6708,
            "byteOffset" : 0
        },
        {
            "buffer" : 0,
            "byteLength" : 6708,
            "byteOffset" : 6708
        },
        {
            "buffer" : 0,
            "byteLength" : 4472,
            "byteOffset" : 13416
        },
        {
            "buffer" : 0,
            "byteLength" : 5760,
            "byteOffset" : 17888
        },
        {
            "buffer" : 0,
            "byteLength" : 2976,
            "byteOffset" : 23648
        },
        {
            "buffer" : 0,
            "byteLength" : 2976,
            "byteOffset" : 26624
        },
        {
            "buffer" : 0,
            "byteLength" : 1984,
            "byteOffset" : 29600
        },
        {
            "buffer" : 0,
            "byteLength" : 2280,
            "byteOffset" : 31584
        },
        {
            "buffer" : 0,
            "byteLength" : 792,
            "byteOffset" : 33864
        },
        {
            "buffer" : 0,
            "byteLength" : 792,
            "byteOffset" : 34656
        },
        {
            "buffer" : 0,
            "byteLength" : 528,
            "byteOffset" : 35448
        },
        {
            "buffer" : 0,
            "byteLength" : 384,
            "byteOffset" : 35976
        },
        {
            "buffer" : 0,
            "byteLength" : 2760,
            "byteOffset" : 36360
        },
        {
            "buffer" : 0,
            "byteLength" : 2760,
            "byteOffset" : 39120
        },
        {
            "buffer" : 0,
            "byteLength" : 1840,
            "byteOffset" : 41880
        },
        {
            "buffer" : 0,
            "byteLength" : 2502,
            "byteOffset" : 43720
        },
        {
            "buffer" : 0,
            "byteLength" : 2760,
            "byteOffset" : 46224
        },
        {
            "buffer" : 0,
            "byteLength" : 2760,
            "byteOffset" : 48984
        },
        {
            "buffer" : 0,
            "byteLength" : 1840,
            "byteOffset" : 51744
        },
        {
            "buffer" : 0,
            "byteLength" : 2502,
            "byteOffset" : 53584
        }
    ],
    "buffers" : [
        {
            "byteLength" : 56088,
            "uri" : "data:application/octet-stream;base64,"
        }
    ]
}
