<?xml version="1.0" encoding="UTF-8"?>
<svg id="Layer_2" xmlns="http://www.w3.org/2000/svg" version="1.1" viewBox="0 0 2200 2200">
  <!-- Generator: Adobe Illustrator 29.0.0, SVG Export Plug-In . SVG Version: 2.1.0 Build 186)  -->
  <defs>
    <style>
      .st0 {
        fill: #e7dad1;
      }

      .st1 {
        fill: #fff;
      }

      .st2 {
        fill: none;
        stroke: #fff;
        stroke-miterlimit: 10;
      }

      .st3 {
        fill: #3a5821;
      }

      .st4 {
        fill: #221c2f;
      }

      .st5 {
        fill: #eff2e9;
      }

      .st6 {
        fill: #0c0f28;
      }

      .st7 {
        fill: #cb420c;
      }

      .st8 {
        fill: #1a4a3b;
      }
    </style>
  </defs>
  <g>
    <rect class="st4" width="2200" height="2200"/>
    <path class="st1" d="M399.6,278.9c1.1,14.2,17.4,21.1,30,20.6,11.9-.3,27.6-6.4,29.5-19.5,0,0,.5-4.6.5-4.6l3.3,3.2c8.7,8.3,27.5,24.6,40,23,7-2,10.8-15.7,11-22.3,0,0,1.5-6.3,1.5-6.3,5.9,10.1,12.5,20.2,21.9,27.3,17.6,13.5,31.6,2.9,31.7-17.7,2.2,22.7-14.5,34.1-33.8,20.6-8.7-6-15.4-14.4-20.9-23.2l4.2-1.7c.2,1.1.2,2.2,0,3.2-.7,6.2-2.4,12.1-5.6,17.5-2,3.3-5,6.5-8.9,7.4-10.2,2-21.4-5.8-29.1-11.2-5.5-4-10.5-8.6-15.2-13.4l3.8-1.3c-.5,3.9-2.3,7.5-4.7,10.3-12,13.4-34.6,15.2-49.3,5.4-5.7-3.9-10.4-10.3-10-17.4h0Z"/>
    <path class="st1" d="M484.2,348.6c10.2,20.4,38.9,31,46.7,3,0,0,1.8-6.5,1.8-6.5l2.4,6.4c2.9,7.7,7.9,14.7,14.9,19.1,5.2,3.1,12.6,5.3,17.6,1.1,7.1-6.4,6.6-17.7,6.9-26.5,2.5,4.5,5.7,10.8,9.1,14.6,16.2,18.1,41,15.9,52.4-6.2-11.6,29.9-46.9,26.8-61.4,1.1,0,0,4.3-1.1,4.3-1.1,0,8.9-3.1,20.9-12.7,24.4-6.5,2.2-13.3,0-18.8-3.3-7.9-5-13.5-13.1-16.4-21.8h4.2c-.9,2.7-2,5.5-3.6,8-6.9,11.8-20,13.6-31.4,7-7.4-4.3-13-11.5-16-19.4h0Z"/>
    <path class="st1" d="M1866.7,1283c1.1,14.2,17.4,21.1,30,20.6,11.9-.3,27.6-6.4,29.5-19.5,0,0,.5-4.6.5-4.6l3.3,3.2c8.7,8.4,27.5,24.6,40,23,7-2,10.8-15.7,11-22.3,0,0,1.5-6.3,1.5-6.3,5.9,10.1,12.5,20.2,21.9,27.3,17.6,13.5,31.6,2.9,31.7-17.7,2.2,22.7-14.5,34.1-33.8,20.6-8.7-6-15.4-14.4-20.9-23.2l4.2-1.7c.2,1.1.2,2.2,0,3.2-.7,6.2-2.4,12.1-5.6,17.5-2,3.3-5,6.5-8.9,7.4-10.2,2-21.4-5.8-29.1-11.2-5.5-4-10.5-8.6-15.2-13.4l3.8-1.3c-.5,3.9-2.3,7.5-4.7,10.3-12,13.4-34.6,15.2-49.3,5.4-5.7-3.9-10.4-10.3-10-17.4h0Z"/>
    <path class="st1" d="M1951.4,1352.7c10.2,20.4,38.9,31,46.7,3,0,0,1.8-6.5,1.8-6.5l2.4,6.4c2.9,7.7,7.9,14.7,14.9,19.1,5.2,3.1,12.6,5.3,17.6,1.1,7.1-6.4,6.6-17.7,6.9-26.5,2.5,4.5,5.7,10.8,9.1,14.6,16.2,18.1,41,15.9,52.4-6.2-11.6,29.9-46.9,26.8-61.4,1.1,0,0,4.3-1.1,4.3-1.1,0,8.9-3.1,20.9-12.7,24.4-6.5,2.2-13.3,0-18.8-3.3-7.9-5-13.5-13.1-16.4-21.8h4.2c-.9,2.7-2,5.5-3.6,8-6.9,11.8-20,13.6-31.4,7-7.4-4.3-13-11.5-16-19.4h0Z"/>
    <path class="st1" d="M969.2,1642.3c1.1,14.2,17.4,21.1,30,20.6,11.9-.3,27.6-6.4,29.5-19.5,0,0,.5-4.6.5-4.6l3.3,3.2c8.7,8.3,27.5,24.6,40,23,7-2,10.8-15.7,11-22.3,0,0,1.5-6.3,1.5-6.3,5.9,10.1,12.5,20.2,21.9,27.3,17.6,13.5,31.6,2.9,31.7-17.7,2.2,22.7-14.5,34.1-33.8,20.6-8.7-6-15.4-14.4-20.9-23.2l4.2-1.7c.2,1.1.2,2.2,0,3.2-.7,6.2-2.4,12.1-5.6,17.5-2,3.3-5,6.5-8.9,7.4-10.2,2-21.4-5.8-29.1-11.2-5.5-4-10.5-8.6-15.2-13.4l3.8-1.3c-.5,3.9-2.3,7.5-4.7,10.3-12,13.4-34.6,15.2-49.3,5.4-5.7-3.9-10.4-10.3-10-17.4h0Z"/>
    <path class="st1" d="M1629.4,1959.1c1.1,14.2,17.4,21.1,30,20.6,11.9-.3,27.6-6.4,29.5-19.5,0,0,.5-4.6.5-4.6l3.3,3.2c8.7,8.3,27.5,24.6,40,23,7-2,10.8-15.7,11-22.3,0,0,1.5-6.3,1.5-6.3,5.9,10.1,12.5,20.2,21.9,27.3,17.6,13.5,31.6,2.9,31.7-17.7,2.2,22.7-14.5,34.1-33.8,20.6-8.7-6-15.4-14.4-20.9-23.2l4.2-1.7c.2,1.1.2,2.2,0,3.2-.7,6.2-2.4,12.1-5.6,17.5-2,3.3-5,6.5-8.9,7.4-10.2,2-21.4-5.8-29.1-11.2-5.5-4-10.5-8.6-15.2-13.4l3.8-1.3c-.5,3.9-2.3,7.5-4.7,10.3-12,13.4-34.6,15.2-49.3,5.4-5.7-3.9-10.4-10.3-10-17.4h0Z"/>
    <path class="st1" d="M1053.9,1712c10.2,20.4,38.9,31,46.7,3,0,0,1.8-6.5,1.8-6.5l2.4,6.4c2.9,7.7,7.9,14.7,14.9,19.1,5.2,3.1,12.6,5.3,17.6,1.1,7.1-6.4,6.6-17.7,6.9-26.5,2.5,4.5,5.7,10.8,9.1,14.6,16.2,18.1,41,15.9,52.4-6.2-11.6,29.9-46.9,26.8-61.4,1.1,0,0,4.3-1.1,4.3-1.1,0,8.9-3.1,20.9-12.7,24.4-6.5,2.2-13.3,0-18.8-3.3-7.9-5-13.5-13.1-16.4-21.8h4.2c-.9,2.7-2,5.5-3.6,8-6.9,11.8-20,13.6-31.4,7-7.4-4.3-13-11.5-16-19.4h0Z"/>
    <path class="st1" d="M625.6,2023.9c10.2,20.4,38.9,31,46.7,3,0,0,1.8-6.5,1.8-6.5l2.4,6.4c2.9,7.7,7.9,14.7,14.9,19.1,5.2,3.1,12.6,5.3,17.6,1.1,7.1-6.4,6.6-17.7,6.9-26.5,2.5,4.5,5.7,10.8,9.1,14.6,16.2,18.1,41,15.9,52.4-6.2-11.6,29.9-46.9,26.8-61.4,1.1,0,0,4.3-1.1,4.3-1.1,0,8.9-3.1,20.9-12.7,24.4-6.5,2.2-13.3,0-18.8-3.3-7.9-5-13.5-13.1-16.4-21.8h4.2c-.9,2.7-2,5.5-3.6,8-6.9,11.8-20,13.6-31.4,7-7.4-4.3-13-11.5-16-19.4h0Z"/>
    <path class="st1" d="M783.2,1855.1c10.2,20.4,38.9,31,46.7,3,0,0,1.8-6.5,1.8-6.5l2.4,6.4c2.9,7.7,7.9,14.7,14.9,19.1,5.2,3.1,12.6,5.3,17.6,1.1,7.1-6.4,6.6-17.7,6.9-26.5,2.5,4.5,5.7,10.8,9.1,14.6,16.2,18.1,41,15.9,52.4-6.2-11.6,29.9-46.9,26.8-61.4,1.1,0,0,4.3-1.1,4.3-1.1,0,8.9-3.1,20.9-12.7,24.4-6.5,2.2-13.3,0-18.8-3.3-7.9-5-13.5-13.1-16.4-21.8,0,0,4.2-.1,4.2-.1-.9,2.9-2,5.6-3.6,8.1-6.9,11.8-20,13.6-31.4,7-7.4-4.3-13-11.5-16-19.4h0Z"/>
    <path class="st1" d="M1359.7,1007.3c10.2,20.4,38.9,31,46.7,3,0,0,1.8-6.5,1.8-6.5l2.4,6.4c2.9,7.7,7.9,14.7,14.9,19.1,5.2,3.1,12.6,5.3,17.6,1.1,7.1-6.4,6.6-17.7,6.9-26.5,2.5,4.5,5.7,10.8,9.1,14.6,16.2,18.1,41,15.9,52.4-6.2-11.6,29.9-46.9,26.8-61.4,1.1,0,0,4.3-1.1,4.3-1.1,0,8.9-3.1,20.9-12.7,24.4-6.5,2.2-13.3,0-18.8-3.3-7.9-5-13.5-13.1-16.4-21.8,0,0,4.2-.1,4.2-.1-.9,2.9-2,5.6-3.6,8.1-6.9,11.8-20,13.6-31.4,7-7.4-4.3-13-11.5-16-19.4h0Z"/>
    <path class="st1" d="M623.6,110.7c8.7,11.2,19,21.9,32.3,27.3,18.6,7.2,20.8-8.3,20.2-22.9,0,0-.3-5.2-.3-5.2l4.1,3.4c9.6,7.9,19.9,15.8,31.4,20.6,4.3,1.6,11.6,4.3,14.6-.2,2.6-5.1,1.3-11.5.4-17.1,0,0-2.9-14.7-2.9-14.7l7.1,13.1c3.2,5.9,7.3,11.3,12.3,15.8,9.3,8.6,24.4,15.5,36.1,7.8,5.6-4.1,8.7-10.5,10.7-17-2.8,16.2-13.5,26.1-30.4,22.2-14.2-3.4-25.5-14.2-32.6-26.5l4.2-1.6c1.7,7.9,3.9,20.6-5.5,24.6-10.5,3.5-24.5-5.8-33-11.4-5.4-3.7-10.4-7.7-15.3-12l3.8-1.9c.1,3.7,0,7.5-.5,11.2-2,14.9-11.4,21.1-25.4,14.7-13.5-6.3-23.4-17.9-31.1-30.2h0Z"/>
    <path class="st1" d="M254.6,55c8.7,11.2,19,21.9,32.3,27.3,18.6,7.2,20.8-8.3,20.2-22.9,0,0-.3-5.2-.3-5.2l4.1,3.4c9.6,7.9,19.9,15.8,31.4,20.6,4.3,1.6,11.6,4.3,14.6-.2,2.6-5.1,1.3-11.5.4-17.1,0,0-2.9-14.7-2.9-14.7l7.1,13.1c3.2,5.9,7.3,11.3,12.3,15.8,9.3,8.6,24.4,15.5,36.1,7.8,5.6-4.1,8.7-10.5,10.7-17-2.8,16.2-13.5,26.1-30.4,22.2-14.2-3.4-25.5-14.2-32.6-26.5l4.2-1.6c1.7,7.9,3.9,20.6-5.5,24.6-10.5,3.5-24.5-5.8-33-11.4-5.4-3.7-10.4-7.7-15.3-12l3.8-1.9c.1,3.7,0,7.5-.5,11.2-2,14.9-11.4,21.1-25.4,14.7-13.5-6.3-23.4-17.9-31.1-30.2h0Z"/>
    <path class="st1" d="M1060.7,1978.9c8.7,11.2,19,21.9,32.3,27.3,18.6,7.2,20.8-8.3,20.2-22.9,0,0-.3-5.2-.3-5.2l4.1,3.4c9.6,7.9,19.9,15.8,31.4,20.6,4.3,1.6,11.6,4.3,14.6-.2,2.6-5.1,1.3-11.5.4-17.1,0,0-2.9-14.7-2.9-14.7l7.1,13.1c3.2,5.9,7.3,11.3,12.3,15.8,9.3,8.6,24.4,15.5,36.1,7.8,5.6-4.1,8.7-10.5,10.7-17-2.8,16.2-13.5,26.1-30.4,22.2-14.2-3.4-25.5-14.2-32.6-26.5,0,0,4.2-1.6,4.2-1.6,1.7,7.9,3.9,20.6-5.5,24.6-10.5,3.5-24.5-5.8-33-11.4-5.4-3.7-10.4-7.7-15.3-12l3.8-1.9c.1,3.7,0,7.5-.5,11.2-2,14.9-11.4,21.1-25.4,14.7-13.5-6.3-23.4-17.9-31.1-30.2h0Z"/>
    <path class="st1" d="M393.1,1900.8c8.7,11.2,19,21.9,32.3,27.3,18.6,7.2,20.8-8.3,20.2-22.9,0,0-.3-5.2-.3-5.2l4.1,3.4c9.6,7.9,19.9,15.8,31.4,20.6,4.3,1.6,11.6,4.3,14.6-.2,2.6-5.1,1.3-11.5.4-17.1,0,0-2.9-14.7-2.9-14.7l7.1,13.1c3.2,5.9,7.3,11.3,12.3,15.8,9.3,8.6,24.4,15.5,36.1,7.8,5.6-4.1,8.7-10.5,10.7-17-2.8,16.2-13.5,26.1-30.4,22.2-14.2-3.4-25.5-14.2-32.6-26.5,0,0,4.2-1.6,4.2-1.6,1.7,7.9,3.9,20.6-5.5,24.6-10.5,3.5-24.5-5.8-33-11.4-5.4-3.7-10.4-7.7-15.3-12l3.8-1.9c.1,3.7,0,7.5-.5,11.2-2,14.9-11.4,21.1-25.4,14.7-13.5-6.3-23.4-17.9-31.1-30.2h0Z"/>
    <path class="st1" d="M643.1,487.1c8.7,11.2,19,21.9,32.3,27.3,18.6,7.2,20.8-8.3,20.2-22.9,0,0-.3-5.2-.3-5.2l4.1,3.4c9.6,7.9,19.9,15.8,31.4,20.6,4.3,1.6,11.6,4.3,14.6-.2,2.6-5.1,1.3-11.5.4-17.1,0,0-2.9-14.7-2.9-14.7l7.1,13.1c3.2,5.9,7.3,11.3,12.3,15.8,9.3,8.6,24.4,15.5,36.1,7.8,5.6-4.1,8.7-10.5,10.7-17-2.8,16.2-13.5,26.1-30.4,22.2-14.2-3.4-25.5-14.2-32.6-26.5,0,0,4.2-1.6,4.2-1.6,1.7,7.9,3.9,20.6-5.5,24.6-10.5,3.5-24.5-5.8-33-11.4-5.4-3.7-10.4-7.7-15.3-12l3.8-1.9c.1,3.7,0,7.5-.5,11.2-2,14.9-11.4,21.1-25.4,14.7-13.5-6.3-23.4-17.9-31.1-30.2h0Z"/>
    <path class="st1" d="M1737.5,313.6c8.7,11.2,19,21.9,32.3,27.3,18.6,7.2,20.8-8.3,20.2-22.9,0,0-.3-5.2-.3-5.2l4.1,3.4c9.6,7.9,19.9,15.8,31.4,20.6,4.3,1.6,11.6,4.3,14.6-.2,2.6-5.1,1.3-11.5.4-17.1,0,0-2.9-14.7-2.9-14.7l7.1,13.1c3.2,5.9,7.3,11.3,12.3,15.8,9.3,8.6,24.4,15.5,36.1,7.8,5.6-4.1,8.7-10.5,10.7-17-2.8,16.2-13.5,26.1-30.4,22.2-14.2-3.4-25.5-14.2-32.6-26.5,0,0,4.2-1.6,4.2-1.6,1.7,7.9,3.9,20.6-5.5,24.6-10.5,3.5-24.5-5.8-33-11.4-5.4-3.7-10.4-7.7-15.3-12l3.8-1.9c.1,3.7,0,7.5-.5,11.2-2,14.9-11.4,21.1-25.4,14.7-13.5-6.3-23.4-17.9-31.1-30.2h0Z"/>
    <path class="st1" d="M190,1187.4c8.7,11.2,19,21.9,32.3,27.3,18.6,7.2,20.8-8.3,20.2-22.9,0,0-.3-5.2-.3-5.2l4.1,3.4c9.6,7.9,19.9,15.8,31.4,20.6,4.3,1.6,11.6,4.3,14.6-.2,2.6-5.1,1.3-11.5.4-17.1,0,0-2.9-14.7-2.9-14.7l7.1,13.1c3.2,5.9,7.3,11.3,12.3,15.8,9.3,8.6,24.4,15.5,36.1,7.8,5.6-4.1,8.7-10.5,10.7-17-2.8,16.2-13.5,26.1-30.4,22.2-14.2-3.4-25.5-14.2-32.6-26.5l4.2-1.6c1.7,7.9,3.9,20.6-5.5,24.6-10.5,3.5-24.5-5.8-33-11.4-5.4-3.7-10.4-7.7-15.3-12l3.8-1.9c.1,3.7,0,7.5-.5,11.2-2,14.9-11.4,21.1-25.4,14.7-13.5-6.3-23.4-17.9-31.1-30.2h0Z"/>
    <path class="st1" d="M193.8,1038.9c8.5,5.1,20.6,6.7,33.5,8.4,10.6,1.4,21.6,2.9,28.6,6.2,9.8,4.6,17.2,11.3,25.2,18.3,13.8,12.3,28.2,24.9,53.3,24.9h0c2.8,0,5.6-.2,8.5-.5,36.6-3.9,74.3-37.3,91.3-66.8,17.3-30,13.2-59.3,9.2-87.7-2.7-18.9-5.2-36.8-1.7-54.8,5-25.6,18.9-48.4,33.5-72.5,8.7-14.3,17.6-29.1,24.5-44.4,11.3-25.3,18-52.9,19.4-79.6,1.6-31.4-4.2-59.6-17.1-84-9.5-17.9-23.1-27-36.2-35.8-9.7-6.5-18.9-12.6-26.8-22.4-12.2-15-18.2-29.2-24.1-43-8.8-20.7-18-42.2-46.8-62.9-6.8-4.9-12.8-8.9-18-12.4-26.7-17.9-33.1-22.1-39.5-70.5-1.7-12.6-1.5-26.9-1.4-42,.3-38.2.6-81.5-30-108.5l-4.3-3.8-5.4,1.8c-30.9,10.3-55.8,34.2-70.2,67.4-15.3,35.3-15.9,76.5-1.6,107.4,10.3,22.4,15.8,46.6,20.9,71.6l1.2,6.1c5.6,27.5,11.4,55.9,23.9,82.5,13.4,28.4,29.8,53,45.7,76.8,10.7,16,20.8,31.1,30,47.3,28.9,50.6,21.6,107.8-19,149.3-12.6,12.9-27.6,25.5-43.4,38.7-35.5,29.8-72.3,60.6-89.5,101.2-9.3,22-14.6,36.2-10.6,49.4,4.2,13.6,17.3,22.3,37,34.1ZM2107.4,1667.1c-2.1-11.3-4.1-22-4.8-31.1-3-38.8-7.7-72.7-14.2-100.7-11.8-51.4-28.6-81.1-51.3-90.9-.8-.3-1.6-.7-2.4-1-5.5-2.1-11.2-3.1-17-3.1-27.9,0-51.7,24-72.8,45.2-10.9,11-21.2,21.4-30,26.3-15.2,8.5-31.6,13.4-45,13.4h0c-.9,0-1.8,0-2.7,0-13.1-.7-22.6-8.5-32.7-16.8-9.1-7.5-18.4-15.2-30.5-17.2-3-.5-5.9-.7-8.7-.7-19.5,0-31.1,11.6-41.4,21.9-8.4,8.4-16.3,16.3-28.5,18.4-1.1.2-2.2.3-3.5.3-19.1,0-48.7-19.6-62.9-32-11.4-9.9-18.3-19.2-25-28.1-11.4-15.3-22.2-29.7-50.3-36.8-3.4-.9-7-1.3-10.9-1.3s-9.8.7-14.4,1.4c-4.2.6-8.1,1.2-11.9,1.2s-7.7-.7-10.9-2.3c-23.8-11.8-33.3-51.8-38.9-75.8-3.1-13.4-4.8-26.6-6.4-39.5-3.1-24.5-6.2-49.9-19.9-75.9-15.6-29.6-41.2-52.2-65.9-74-18-15.9-35.1-31-47.7-48.1-8-10.8-19.2-21.4-31.1-32.6-19.4-18.3-39.5-37.1-44.3-56.2-1.6-6.4-.4-15,.7-23.2,1.3-9.1,2.4-17.6.5-25.3-3.3-12.6-12-22.4-20.5-31.8-7.9-8.9-15.4-17.3-18-27.3-4.7-18.7,2.2-40.2,9.5-63,5.2-16.1,10.5-32.7,11.7-48.9.6-7.6.9-14.7,1.3-21.6,1.8-35.7,3-59.3,31.4-87.2,17.8-17.5,42.7-37,55.7-40.3,3.3-.8,6.7-1.2,10.7-1.2s7.4.3,11.4.7c4.2.4,8.5.8,13.1.8s8.3-.4,12.1-1.1c14.7-2.8,24.6-8.2,31.8-12.2,4.6-2.5,8.2-4.5,10.6-4.5,3.9,0,10.8,5.8,20.4,17.2,10,11.9,15.6,21.8,20.6,30.5,12.3,21.5,21.1,33.9,59.4,39.3,1.7.2,3.5.4,5.3.4,4.2,0,7.9-.6,11.5-1.2,3.2-.5,6.2-1,9.1-1s4.1.3,6.1.8c11.2,3,16.8,5.4,20.9,7.1,4.7,2,8.7,3.7,15.6,3.7s9.9-.6,20.4-2.4c20.3-3.3,40.7-7,60.4-10.5,33.7-6,68.5-12.2,103.7-17,6.2-.9,12.6-1.8,18.7-2.8,17.5-2.7,35.7-5.5,53.1-5.5s33.7,3.1,47.8,9.4c8.3,3.7,15.5,8.7,22.4,13.5,7.9,5.4,16.1,11.1,25.8,15,3.3,1.3,6.9,1.9,11,1.9s7.3-.5,10.8-1c3-.4,5.8-.8,8.2-.8s2.6.1,3.5.4c2.1.7,7,5.1,10.3,8,7.2,6.5,14.6,13.1,23.2,13.1,11.2,0,26-5.1,32.4-28.9,3.7-13.8,4-30.8,4.2-47.2.2-13.9.4-28.4,3.1-35.7,2.5-7,6.4-14.2,10.5-21.8,10.4-19.3,22.1-41.2,15.1-66.4-8.8-31.4-41.3-71.2-87.1-106.3-45.9-35.3-92.8-56.4-125.4-56.4s-1.9,0-2.9,0c-1.9,0-3.9.1-6,.1-10.4,0-20.9-.9-32.1-1.9-11.1-1-22.5-2-33.8-2s-14.9.5-21.5,1.5c-5.9.9-12.1,2.3-18.1,3.7-9.5,2.2-19.2,4.5-27.9,4.5-12.5,0-20.7-4.7-27.3-15.6-5.6-9.2-5.3-24.2-4.9-38.8.3-11.4.6-23.2-2-33.5-9.9-40.1-27.2-88.2-74.3-104.1-12-4.1-24.7-6.1-37.5-6.1-36.6,0-70,16.4-95.1,30.6-4.4,2.5-9,5.7-13.8,9-10.5,7.3-22.5,15.6-31.4,15.6h0c-2.5,0-9.8,0-16.5-18.5l-2.1-5.7-6-.8c-13.4-1.7-25.4-2.5-35.9-3.1-35.7-2.2-55.3-3.4-78.1-38.1-4.7-7.2-7.6-13.3-10.3-19.3-5.7-12.4-11.1-24.1-30.4-35.6-18-10.7-49.8-15.5-73.3-15.5s-20.7,1-28.3,2.9c-26.7,6.6-44.1,25.8-60.8,44.4-14.9,16.5-29,32.1-48.4,37.2-4.6,1.2-8.8,1.8-12.8,1.8-13.9,0-23.4-7.4-35.5-16.7-6.2-4.8-12.6-9.8-20.3-14.2-19.9-11.6-37.5-17-55.1-17s-46.9,11.1-72.4,24c-6.4,3.3-13.1,6.6-20.2,10-37.8,18.1-80.7,52-87.7,93-3.9,22.9,4.2,45.1,23.4,64.4,8.5,8.5,18.2,14.3,27.7,19.9,10.5,6.2,20.4,12.2,26.9,21,5.4,7.3,8.3,17.6,11.4,28.5,4.1,14.3,8.7,30.5,20.2,43.6,14.3,16.2,27.5,22.9,38.1,28.2,15,7.5,23.3,11.7,28.2,41.2,3.6,21.8-2.1,44.7-8.2,68.8-7.3,28.9-14.8,58.8-5.2,87.7,3.8,11.5,12.6,19.7,21.1,27.7,12.1,11.4,19.4,18.9,17.2,30.8-2.8,15-7.2,21.9-10,21.9-1.8,0-11.8-1.6-34.4-33.6-14.7-20.8-28.9-46.2-39.4-64.8-7.6-13.6-11.7-20.8-14.5-24.4-23.9-30.3-91.6-92.7-147.8-92.7s-38.6,8.9-51.2,26.3c-22.2,30.7-7.3,73.8,4.6,108.5,4.1,11.8,7.9,22.9,9.8,32.2,15.4,73.1-22,82.2-73.7,94.8-37.4,9.1-79.8,19.4-99.9,60-24.9,50-4,79.9,14.5,106.2,6.9,9.9,13.5,19.2,18,29.7,14.8,34.3,4.6,64.1-6.3,95.7-7.8,22.7-15.9,46.2-14.3,71.8,1,17.3,7.5,28.6,13.1,38.6,7.4,13,13.7,24.2,9.1,49.5-6.6,36.3-9.4,38.1-35.4,54.6l-1.6,1c-3.8,2.4-9.8,2.8-16.1,3.3-6.6.4-13.3.9-19.5,3.8-11.5,5.4-21,13.5-30.2,21.3-8.3,7-16.1,13.7-24,17.1-11.7,5-24.1,7.3-39.1,7.3-11.1,0-22.3-1.3-33.2-2.5-10.9-1.2-22.2-2.5-33.4-2.5-21.3,0-49.1,4-75.4,35.1-17.3,20.5-29.5,47.1-36.3,79.2-5.5,26-7.3,55.8-5.2,86,.7,9.6,4.2,24,8.4,40.7,4.1,16.5,8.7,35.2,10.9,51,2.9,21.5,0,28.1-1.5,30-6.3,8-15.1,9.3-28.9,10.7-18,1.8-42.8,4.3-54.8,37.6-6,16.7-1.7,34,2.5,50.7,3.6,14.5,7.1,28.1,3.2,39.6-4.4,13.4-8.9,15.8-15,19.1-5.4,2.9-12.1,6.6-17.7,16.2-15.1,25.8-15.6,60.6-1.5,88.7,12.5,24.8,34.5,40.7,60.3,43.5h.2c4.3.5,8.6.7,12.6.7,36.4,0,63.3-18.1,82.1-55.2,15.7-30.9,23.9-71.3,31.8-110.4,13.5-66.5,26.3-129.3,71.7-134.5,1.2-.1,2.5-.2,3.7-.2,23.4,0,41.2,27.5,56.8,51.7,5.7,8.8,11,17.1,16.5,23.7,24.7,30.1,38.8,43.5,57.3,43.5s17-3,27.5-6.8c8.9-3.2,20-7.2,34.9-10.7,33.4-7.8,70.3-8.6,105.9-9.3,80.4-1.6,163.4-3.3,223.2-81.7,12.2-16,22.6-31.4,32.7-46.3,35.9-53.1,64.3-95.1,141.8-113.3,12.5-2.9,24-4.4,34.4-4.4,50.9,0,73,35.1,103.6,83.6,7.3,11.5,14.8,23.4,23.2,35.6,13.1,18.9,19.9,40.4,27.1,63.2,5.2,16.3,10.5,33.2,18.3,49.1,9.4,19.1,21.3,36.1,32.7,52.5,11.2,16,21.8,31.2,30.4,48.3,6.6,13.1,12.9,29.9,19.5,47.7,11.4,30.6,24.4,65.2,43.2,92.3,22.8,32.8,50.1,48.7,83.4,48.7s1.1,0,1.7,0c21.4-.4,36.2-10.4,44-30,6.2-15.6,7.3-35.3,8-55.8,1.1-36.3,5.7-53.6,14.1-84.9,1.3-4.8,2.6-9.9,4.1-15.4,5.8-22.2,6.4-45.4,6.9-66,.6-22.6,1.1-44,8.5-58.4,5.1-10,15.1-21.5,47.9-22.5h3.3c5.9-.3,12.1-.5,18.3-.5,14.8,0,33.5,1,47.6,8.6,10.7,5.8,17.8,10.8,24,15.3,13.8,9.9,23.7,17,52.7,18.2,1.8,0,3.8.1,5.7.1,29.9,0,69.2-9.1,95.7-22.2,16-7.9,24.8-15.9,31.2-21.7,7-6.3,9.6-8.7,17.1-8.7s11.2,1,19.7,3.2c14,3.6,32.4,20.2,50.3,36.3,25.7,23.2,52.2,47.1,78.8,47.1h0c8,0,15.5-2.2,22.3-6.4,2.8-1.7,10.2-6.4,24.5-42,6.1-15.3,13.2-36.2,14.4-46,1.8-15.7-1.8-35.3-5.3-54.2ZM1602.7,1229.6c3.5,17.1,11.6,34.1,22.7,47.7,12.3,15,27.5,25.3,44,29.7,5,1.3,10.3,2,15.7,2h0c13.4,0,25.7-4,37.6-7.8,4.7-1.5,9.1-2.9,13.5-4.1,5.3-1.4,11.1-2,18.6-2s7.8.2,11.6.3c3.9.2,7.9.3,11.9.3,8,0,14.4-.7,20.3-2.2,30-7.6,55.3-31,75-69.5,18-35,26.9-74,30.5-94,6.5-35.5,19.2-55.6,36.8-83.4,2.9-4.6,5.9-9.4,9.1-14.5,11.9-19.3,48-77.9,11.2-116.5-17.4-18.3-50.2-26.1-79.2-33-10.8-2.6-20.9-5-28.4-7.6-7.9-2.8-16-7-24.6-13-10.7-7.4-20.9-16.5-32.2-26.7-4.8-4.3-8.7-8.2-12.1-11.5-13.7-13.5-21.9-21.6-50.3-25.3-11.5-1.5-23.6-2.3-36.9-2.3-21.3,0-42.7,1.9-63.4,3.8-20.1,1.8-40.9,3.7-61,3.7s-21.8-.6-31.7-1.8c-3.6-.4-7.2-.7-10.7-.7-21.1,0-38.8,8.2-48.8,22.5-10,14.3-11.2,33.6-3.5,54.4,11.1,29.8,34.7,37.7,57.6,45.4,6.2,2.1,12.6,4.2,18.8,6.8,6.2,2.6,12.5,5.1,18.6,7.5,34.5,13.4,64.2,25,72.3,59.6,7.3,31.3-2.2,46.5-37.7,60-38.5,14.7-59.4,32-62.1,51.6-2.1,15,6.3,29.7,24.9,43.7,5.8,4.4,11,7.1,15.2,9.4,7.6,4,11.4,6.1,15,14.4,3.2,7.4,2.4,16.5,1.5,26.2-.8,8.8-1.6,17.8.3,27Z"/>
    <path class="st5" d="M199,1030.3c13.2,7.9,44.2,6,61.3,14.1,30.8,14.7,40.9,46.2,81.7,41.8,31.9-3.4,67.5-33.7,83.7-61.8,26.5-46-3.1-91.6,6.4-139.4,8.6-43.5,40.9-79.5,58.7-119.1,20.1-45,28.4-106.1,2.5-154.8-15-28.2-41.8-31.8-62-56.6-31.9-39.3-24-71.7-69-104-42.2-30.2-53.3-26.9-61.6-89.7-6-45.9,10.2-110.5-28.2-144.3-64.8,21.5-91.1,106.5-65.9,161.1,10.9,23.6,16.5,48.7,21.6,73.8,6,29.5,11.5,59,24.4,86.3,21.8,46.2,51.8,82.1,75.4,123.4,29.7,52,25.3,114.4-20.5,161.2-41.2,42.2-107.2,80.8-130.9,136.9-17.9,42.3-16.8,47.5,22.3,71.1ZM1612.4,1227.6c6.3,30.8,28.8,61.6,59.4,69.7,21.6,5.7,42.1-4.8,61.7-9.9,21.6-5.6,43.1,1.4,62.4-3.6,61.4-15.6,88.8-104.1,98.2-155.6,8-43.5,25.2-65.7,47.2-101.4,18-29.3,40.8-74.6,12.5-104.3-21.7-22.8-76.6-28.6-103.6-38-9.5-3.3-18.4-8.3-27-14.2-11.4-7.9-22.2-17.5-33.2-27.5-23.7-21.5-25.4-30.2-57-34.4-64.8-8.5-129.2,11.3-193,3.5-39-4.8-68.2,20.1-52.3,62.7,12.2,32.7,42.3,34.4,70.9,46.5,40.6,17.1,85.9,27.4,96.7,74,9.1,39-7,57.6-43.9,71.6-41.5,15.8-82.1,42.5-34.8,78,15.5,11.6,25.8,10.5,33.4,27.7,7.5,17.2-1.2,37.3,2.4,55.3ZM2092.6,1636.8c-3-39.8-14.3-163.7-59.4-183.1-.7-.3-1.3-.5-1.9-.8-43-16-80.5,50.6-111.4,67.8-15.4,8.6-35.3,15.4-53.1,14.5-29.3-1.5-42.9-30.6-64.4-34.1-35.9-6-41.3,33.7-75.2,39.5-22.6,3.9-58.6-20-74.7-34-32.6-28.3-31.8-52.9-71.1-62.8-16.4-4.1-32.8,6.7-50.1-1.8-27.8-13.7-37.9-55.7-44.2-82.5-9.3-39.7-5.7-75.5-25.4-113-25.8-48.9-81.8-79-112.7-120.8-20.5-27.8-68.4-57.9-77.1-92.3-4-15.7,4.4-36.2,1.2-48.5-5.5-21.3-32.4-35.2-38.4-59.2-9-35.8,18.1-77.5,21-115.2,3.6-47.6-1.4-78.9,35.6-115.2,13.1-12.9,42.2-38.3,60.3-42.9,16.9-4.3,31.4,2.2,47.8-1,40-7.7,39-35.8,72.4,3.9,33.1,39.3,21.7,59,73.8,66.3,10.9,1.5,20.1-4.3,33.2-.9,33.9,8.9,20.5,13.6,52.7,8.3,55.1-9.1,108.4-19.9,164.3-27.6,41.5-5.7,84-16.5,125,1.9,18.6,8.4,30.9,21.4,47.9,28.3,9.5,3.8,22.9-2.8,32.9.4,9.2,3,21.8,20.7,30.3,20.7,38.4-.2,20.5-78.2,30.4-105.2,9.4-25.7,33.8-51.8,25.4-82.1-17.6-63.2-141-157.8-205.3-155.4-30.4,1.2-62.4-6.8-92.2-2.4-27.7,4.1-62.6,22-83.3-12-12.1-19.8-2.6-53-8-75.1-9.8-39.8-26-82.9-67.8-97-43.8-14.8-86.3,2-124.4,23.7-23,13.1-58,50.6-76,.8-58.4-7.6-88.3,4.4-121.1-45.6-15.4-23.4-12.5-36.9-37.5-51.7-21.7-12.9-70.2-17.5-94.1-11.5-46.9,11.6-63.9,69.7-109.1,81.5-36.2,9.5-49.9-14.9-76.2-30.1-55.5-32.2-83.8-8.7-138.4,17.4-58.2,27.9-115.2,87.5-61.6,141.2,17,17.1,41.6,23.1,55.5,42.1,14.2,19.3,12.7,50.5,31.1,71.4,33.5,38,59.3,17.7,68.7,74.4,8.6,51.4-30,106.2-13.8,155,7.5,22.6,44.2,33.8,38.7,63.5-18.7,99.9-102.8-79.9-115.9-96.5-32.5-41.1-137.2-130.3-183.1-66.8-26,36.1,8.3,95.5,16.1,132.7,29.8,141.8-131.1,74.2-174.5,161.3-30.8,61.9,15,86.5,32.7,127.4,27.6,63.8-23.3,113-19.8,170.8,2.2,36.2,31,41.3,22.1,90.4-7.6,41.4-13,44.2-41.5,62.3-10.8,6.9-26.7,3-36.7,7.7-20.5,9.6-36,30.6-54.5,38.5-64,27.3-124.1-28.4-177.4,34.6-35.2,41.6-42.8,105.3-39.1,158.1,1.9,27.2,32,107.5,15.6,128.5-21.6,27.7-64.9-2.2-82.2,45.5-10,27.6,15.3,61.5,5.8,90.1-9.7,29.2-23.4,19.8-33.6,37.2-25.6,43.9-2.3,111.3,51.2,117.2,0,0,0,0,.1,0,151.8,16.6,81.5-286.2,196.2-299.4,41.5-4.8,64.8,53.2,85.9,78.8,50.3,61.3,46,37.5,109.7,22.6,108.6-25.4,240.2,21.8,323.4-87.3,56.4-73.9,76.7-138.9,180.1-163.2,99.9-23.5,120.9,45.3,171.7,118.8,23.8,34.4,28.1,76.8,46.2,113.6,17.8,36.2,44.9,64.7,63.1,100.7,30,59.5,50.4,184.6,138.7,183.1,38-.6,40.9-37.1,42.1-76.1,1.3-43.2,7.6-60.9,18.5-102.5,18.4-70.4-18.3-151.6,72.6-154.4,23.6-.7,52.8-2.2,74.2,9.3,34.5,18.6,33.8,30.7,72.4,32.3,29.5,1.2,70.2-8.1,96.5-21.1,41-20.2,29.3-39.5,74.9-27.9,42,10.7,99.8,105.5,143.7,78.2,10.8-6.7,32.5-65.7,34.3-80.7,2.7-23-8.2-58.4-10.1-83.3Z"/>
    <g>
      <path class="st0" d="M1923,518.9c21.1,22.6,48.7,38.6,78,48.2,9.8,3.1,20,5.4,30.4,5.9-15.8-8.5-37.9-19.3-53.9-27.5-16.1-8-38-19.8-54.5-26.6Z"/>
      <path class="st0" d="M1124.7,757.3c-16.9-12.2-34-23.9-52.8-33.3,24.7,29.3,65.1,58.9,100.6,73.5-14.7-15.1-31-27.8-47.8-40.2Z"/>
      <path class="st0" d="M1222.7,665.9c-24.9-16.8-46-37-70.5-54.4-8.3-5.8-16.9-11.3-26.2-15.3,23.5,26.1,54.9,58,89.2,68.1,2.5.7,5,1.1,7.5,1.6Z"/>
      <path class="st0" d="M1930.7,611.8c13.4,14.4,28.4,26.4,43.9,38.2,15.6,11.6,31.4,22.7,49,31.4-22-28-59.8-56.3-92.9-69.6Z"/>
      <path class="st0" d="M1373.6,596.3c13.3,14.7,38.2,29.3,58,30.9-13.2-14.9-38.1-29.4-58-30.9Z"/>
      <path class="st0" d="M1071.8,921.3c15.4,17.9,46.9,32.7,69.6,38.7-15.2-18.8-46.3-33.3-69.6-38.7Z"/>
      <path class="st0" d="M739.1,816.8c17.6,5.9,32.9,13.8,49.1,22.5,16.2,8.4,33,17.5,51.5,20.1-28.6-19.4-64.2-47.5-100.6-42.6Z"/>
      <path class="st0" d="M1110.5,1327.5c-5.2-1.7-9.8-2.9-14.3-4.3-9-2.7-17.1-5.9-25.8-9.6-4.4-1.8-8.9-3.8-14.1-5.4,8.7,19.3,35.2,30.3,54.2,19.3Z"/>
      <path class="st0" d="M913.2,1002.5c-29.1-22-71.9-42.8-108.3-46.4,17.2,10.1,34.7,18.3,52.6,26.5,18.1,7.9,36.2,15.6,55.7,19.9Z"/>
      <path class="st0" d="M1037,638.8c-19.4-27.6-55.9-52.6-91-54.3-.2,1.2-.5,2.4-.7,3.6,14.8,6,28.7,12.9,42.6,21,16.7,9.5,32.3,20.2,49.2,29.7Z"/>
      <path class="st0" d="M1040.9,793.6c-21-10.2-54-15.1-77.9-12.1-.5.5-.9,1-1.4,1.4,22.1,10,55.9,14.7,79.3,10.7Z"/>
      <path class="st0" d="M1273,499.6c-8.6-24.3-36.2-42.9-61.9-42.6,10.3,7.8,20.7,13.9,31.1,21.1,10.5,7,19.9,14.5,30.8,21.4Z"/>
      <path class="st0" d="M1882.1,1074.4l3.3.3c1.9.2,4.8.8,6.6,1.3-3.9-2.3-8.6-3.8-13-4.7-13.7-2.6-27.9-.5-41.4,1.7-17.3,2.7-34.5,7.5-51.9,5.3-8.7-1-15.8-5.8-23.5-9.2-24.6-11.6-49.4-22.6-75.2-31.8,22.8,15.1,46.5,28.3,70.5,41.1,4,2.1,8,4.2,12,6.3,13.3,6.9,29.5,5.7,43.2,3.2,22.3-3.9,43.3-13,65.9-13.5h3.3Z"/>
      <path class="st0" d="M1783.7,1176.6c14.4,14.4,41.5,26.3,61.9,27.1-14.4-14.4-41.6-26.2-61.9-27.1Z"/>
      <path class="st0" d="M1740.7,1263.5c-5.9,1.1-12.7,2.6-18.2.5-20.3-7.1-39-16.5-58.8-25.5,16.4,15.9,36.2,28.5,57.7,36.5,18.2,4.9,48.8-11,67.2-15.9,4.1-1.1,8.3-2.1,12.5-2.2,2,0,3.8.3,5.8.9-1.2-1-2.7-1.9-4.3-2.5-16.7-5.7-44.6,4.9-61.9,8.1Z"/>
      <path class="st0" d="M1451,453.1c17.6,25.4,50.7,45.9,81.2,50.3-12.7-10.2-26.1-18.2-39.7-26.7-13.7-8.3-26.8-16.7-41.6-23.6Z"/>
      <path class="st0" d="M1601.6,638.4c-9.9-11.8-19.3-24-29.6-35.5-5.2-5.9-10.5-11.6-16.5-16.9-2.4-2.1-5.2-4.3-8.2-5.8-1-.5-2.3-.9-3.3-1.3-28.8-9.5-54.2-27-81.4-40.7,23.2,21.6,48.8,41.6,79.5,51.6,2.4,1.1,4.2,2.7,6.3,4.4,14.4,12.4,27.4,26.6,41.9,39,3,2.5,5.9,5,9.1,7.3,3.2,2.2,6.4,4.7,10.1,5.9-3.1-2.3-5.5-5.3-8-8.2Z"/>
      <path class="st0" d="M1942.3,948.3c-11.2-5.3-22.1-8.5-33.2-13-11.2-4.3-21.1-9.5-32.6-14.1,12.1,22.3,41.6,33.4,65.8,27.1Z"/>
      <path class="st0" d="M1714.1,1145.6c-19.8-21.8-57-29.8-85.1-34.8,11.9,10.4,26.8,16.2,41.4,21.3,14.7,4.9,28.7,9.2,43.8,13.5Z"/>
      <path class="st0" d="M1694.7,936.7c-17.3-6.7-32.7-14.5-49-22.9-16.3-8.2-33.1-16.9-51.6-19.6,28.3,19.7,64.6,45.9,100.6,42.6Z"/>
      <path class="st0" d="M1762.6,902.6c-4.3-1.8-13.9-3.3-18.5-4.4-15.9-3.2-31.5-7.4-45.5-15.6,14.6,15.2,35.4,21.8,55.1,27.5,3.6.9,6.7,2.5,9.9,4.5,6.7,4,13.1,8.9,19.2,13.7,19,15,37.5,31.3,57.2,45.7,6.7,4.8,13.5,9.6,21,13.1-6.2-5.4-11.7-11.4-17.5-17.2-17.2-17.6-34.5-34.9-54-50.3-8.4-6.5-17-12.9-27-17Z"/>
      <path class="st0" d="M1563.2,832.3h0s0,0,0,0c-3.5-6.8-10.4-11.1-17.6-13.1l-26.8-7.1c-.8.1-1.6.3-2.5.5,7.1,4.7,24.8,16.5,24.8,16.5,6.4,4.2,14.7,6.2,22,3.2Z"/>
      <path class="st0" d="M390.9,1412.6c16.2,17.4,46.3,34.2,69.6,38.7-16.1-17.5-46.3-34.2-69.6-38.7Z"/>
      <path class="st0" d="M1458.4,352c2.3,1.5,4.8,3.2,7.2,4.6,9.8,5.7,20.1,10,30.5,14.2,30.7,12.3,62.2,20.9,91.5,35.9,6,3.1,11.8,6.7,17.1,10.8l3.1,2.6,2.9,2.8,2.7,3.1c-.7-1.2-1.3-2.4-2-3.6l-2.4-3.4s-2.7-3.2-2.7-3.2c-25.7-27.2-72.1-41.3-106.1-55.2-10-4-20-8.1-29.4-13.1-28.3-16.8-56.1-34.2-85.6-49.1,23.6,19,48.3,36.5,73.2,53.6Z"/>
      <path class="st0" d="M1327.2,1466.8c20.4,22.9,56.3,47.4,85.1,58-20.4-22.9-56.3-47.4-85.1-58Z"/>
      <path class="st0" d="M1364.3,1751.5c15.5,6.3,30,11.3,44.1,20.8-14.8-29.7-58.3-34.3-85.1-50.3,8.9,14.8,25.8,23.1,41,29.4Z"/>
      <path class="st0" d="M1280.8,213.3c-16.4-22.5-47.9-47.2-73.5-58,16.5,22.4,47.9,47.3,73.5,58Z"/>
      <path class="st0" d="M687.1,1347.1c-23.7-8.8-47.3-16.5-71.7-23.5,20.7,14.9,44.3,24.7,67.9,33.8,23.7,8.8,47.2,16.8,71.4,24.2-20.4-15.3-44-25.5-67.5-34.5Z"/>
      <path class="st0" d="M1740.3,1710.1c-14-7.8-27.4-15.1-41.7-22.9,15.7,26.1,52.6,43.1,81.2,50.3-11.6-11.5-25.7-19.5-39.6-27.4Z"/>
      <path class="st0" d="M714.1,1664.7c11.8,8.4,23.3,16.4,36.6,22.6-13.9-23.2-43.3-44.3-69.6-50.3,10.1,10.7,21.4,19.1,33,27.7Z"/>
      <path class="st0" d="M1412.3,1992.9c17.2,15.4,40.6,22.1,62.5,27.2,7.4,1.6,14.8,3,22.6,3.8-12.1-9.8-26.7-15.3-41.1-20.1-14.6-4.5-28.7-8.2-44-10.9Z"/>
      <path class="st0" d="M224.6,255.8c13.1,18.4,34.9,27.8,55.8,34.1,6.1,1.7,12.2,3.2,18.6,4.2,0-.7,0-1.4,0-2.1-4.8-3.9-10-7.1-15.3-10.1-12.7-7-25.8-12.2-39-17.8-6.6-2.7-13.1-5.6-20.2-8.3Z"/>
      <path class="st0" d="M287.3,531.7c-9-17.1-16.7-41.9-39.5-43.7,13.9,3.5,20.9,15.4,25.6,27.9,3.7,9.4,6.8,19.5,12.1,28.5,4.1,7.2,10.3,13.7,17.9,17.3,26.2,12.5,49,32.7,73.2,48.5,1.5,1,3.7,2.3,5.1,3.3,8.7,6.5,14.7,15.6,21.4,24.3,8.6,11.2,17.3,24.5,30.8,30.6,18.9,6.2,38.3,11.7,57.5,16.9-15.3-7-31.1-13.6-46.7-20.1-2.3-1-5.6-2.2-7.9-3.3-5.8-3.1-10.3-8.3-14.4-13.5-8.2-10.6-14.9-22.4-23.6-33.1-3.4-4.1-7.5-8.3-12-11.5-26.3-17.2-50.3-38.5-79.6-50.8-9.4-3.9-15.5-12.6-20.1-21.4Z"/>
      <path class="st0" d="M181.2,1995.2c5.1-.6,9.8-1.7,14.3-3.2-13.8-10.2-33-17.8-48.3-18.5,8.1,8.8,20.9,16.7,34,21.7Z"/>
      <path class="st0" d="M820.4,1219.2c-20.7-20.9-56.9-42.2-85.1-50.3,20.8,20.9,56.8,42.2,85.1,50.3Z"/>
      <path class="st0" d="M607.5,1178.3c-15.2-6.7-30.1-12.8-46.3-17.2,21.4,21.3,59.5,36.9,89,42.6-12.8-10.9-27.6-18.4-42.7-25.4Z"/>
      <path class="st0" d="M1350.4,511.2c10.6,14.5,32.4,28.5,50.3,30.9-10.2-15.2-32-29.1-50.3-30.9Z"/>
      <path class="st0" d="M363.9,782c23.9,21.2,61.4,38.4,94.1,42,.5-.8.9-1.6,1.4-2.3-14.4-7.9-29.1-14.3-44.1-20.8-16.9-7.1-33.5-14.1-51.4-18.9Z"/>
      <path class="st0" d="M714.2,1036.2c-9.2-1-17.2-4.4-24.7-9.4-21.8-14.3-43.4-42.1-72.5-38.6,27.2,9.4,42.2,34.7,68.5,46.2,8.8,3.9,19.7,5.5,28.7,1.8Z"/>
      <path class="st0" d="M817.1,1317.3c3.6,1,7.2,1.9,11.1,2.4-11.1-10.2-23.5-18.1-37.1-24.3-12.5-5.5-30.7-11.9-44.1-6.6,7.3,1.6,13.5,4.6,20.2,7.6,16.4,7.5,32.6,15.8,50,20.9Z"/>
      <path class="st0" d="M540.7,1566.6c7.9,4.3,15.9,8.5,24.3,12.3-5.6-7.5-12.4-13.7-19.5-19.5-21.6-16.9-45.2-29.7-69.4-42.4,16.4,22.3,41,36.4,64.6,49.6Z"/>
      <path class="st0" d="M384.9,1519.7c8.1,2.4,18.5,2.8,25.4-2.7-4.2.4-8.1,0-11.8-1.1-11.2-3.3-20.5-10.2-30-17-13.1-9.5-25.3-20-39.5-28.4,11.8,20.9,32.5,41.8,55.8,49.1Z"/>
      <path class="st0" d="M344.5,847.8c23.2,17.7,56.1,36.8,87.1,39.2.1-.6.2-1.3.4-1.9.3-1.4.6-2.8.9-4.1-12-4.4-23.6-9.2-35.5-14.4-17.2-7.2-34.3-15-52.9-18.8Z"/>
      <path class="st0" d="M344.9,707.2c23.4,13.7,58.6,20.9,84.7,20.6-22-13.2-58.5-21.4-85.2-23,.2.8.3,1.6.5,2.4Z"/>
      <path class="st0" d="M390.9,952.2c-6.2-2.5-11.7-4.9-17.1-7.5-16.5-7.6-33.9-18.3-52.5-19.6,17.2,15.3,45.7,34.3,69.6,27.1Z"/>
      <path class="st0" d="M390.9,1052.8c-11.2-3.5-21.2-6.5-32.3-9.4-11.1-2.8-21.7-5.4-33.5-6.1,14.6,15.1,46.2,24.7,65.8,15.5Z"/>
      <path class="st0" d="M1041.5,1083.9c6,1.8,12.2,3.2,18.8,3.7-4.7-4.7-9.9-8.3-15.2-11.6-10.6-6.5-21.5-11.7-32.9-16.6-5.7-2.4-11.4-4.7-17.7-6.6,10.8,15.9,29.2,25.4,47,31.1Z"/>
      <path class="st0" d="M781.7,1455.1c17.5,24.6,50.2,52.5,77.4,65.8-17.5-24.7-50.3-52.4-77.4-65.8Z"/>
      <path class="st0" d="M904.2,1123.9c37.2,11.7,73.4,26.3,109.7,41.1-3.1-2.4-8.4-5.9-11.7-8.1-11.9-7.7-24.4-14.5-37.1-20.7-19.1-9.3-38.9-17.3-59.4-23.4-4.2-1.3-8.6-2.9-12.6-4.6-27.7-12-51.5-30.5-76.6-47.7,21.3,23.7,46,45.9,75.6,58.9,3.9,1.7,8.1,3.1,12.1,4.4Z"/>
      <path class="st0" d="M979,1288.8c-16.1-17.5-46.3-34.2-69.6-38.7,16.2,17.4,46.3,34.2,69.6,38.7Z"/>
      <path class="st0" d="M1064.1,1524.8c-10.1-3.5-19.5-7.5-28.5-12.3-27.6-14.1-52.6-35.5-83.7-41.9,33.2,22.2,69.6,57.4,112.2,54.2Z"/>
      <path class="st0" d="M776.8,1552.5c21,9.1,41.5,18,62.9,26.5-31.8-29.7-81.9-48.2-123.8-58,19.1,13,40,22.3,60.9,31.6Z"/>
      <path class="st0" d="M1126.8,1412.8c-11.3-7.3-24.9-16.3-37-21.9-22.7-10.8-46.9-18.9-72.1-20.8,14.7,8.1,29.8,14.4,45,21,10.4,4.4,20.8,8.7,31.2,12.9-2.2.3-4.4.6-6.6.9,11.9,3.7,27.1,5.8,39.4,8Z"/>
      <path class="st0" d="M607.6,1768.5c-56.7-48.5-119.3-89.8-185.7-123.8,32.2,27,67,50.3,102,73.3,27.1,18,54.7,35.4,83.7,50.5Z"/>
      <path class="st0" d="M236.2,1845.9c-6.7-5.6-13.2-9.1-20.4-13.2-7.3-3.9-13.8-7.5-22.1-10,5,16.7,25.8,28.2,42.6,23.2Z"/>
      <path class="st0" d="M254.8,1710.1c-11.4-5.2-22.3-10.9-33.3-16.6-.4,2.8-1.1,5.4-2,7.6,24,19.4,55.1,31.6,85.4,32.5.3-.5.6-1.1.9-1.6-17.2-7.4-34.2-13.9-51-21.9Z"/>
      <path class="st0" d="M437.4,1710.5c-16.5-12.7-35.1-21.8-54-30.1-19-8-38.1-15.2-58.2-20.2,16.4,12.9,35,22,53.9,30.3,19,8.1,38.1,15.1,58.3,20Z"/>
      <path class="st0" d="M289.7,1526.1c-20.5-11.6-49.2-27.7-69-40,32.7,38.9,89.7,64.2,135.4,85.1-19.9-18.2-43.3-31.7-66.5-45.1Z"/>
      <path class="st0" d="M1458.7,1753c10.8,17.3,34.1,34.6,54.2,38.7-11.4-16.2-35-33.6-54.2-38.7Z"/>
      <path class="st0" d="M1799.2,1652.5c7,16.3,25.6,33.3,42.6,38.7-6.9-16.3-25.7-33.3-42.6-38.7Z"/>
      <path class="st0" d="M1803,1586.7c15.5,20.3,45.5,42,69.6,50.3-15.5-20.3-45.5-42-69.6-50.3Z"/>
      <path class="st0" d="M1636.7,1613.8c-5.9-3.3-11.3-6.3-16.4-9.6-15.9-10.2-28.8-23.6-45.5-32.9,9.8,22.9,35.3,46.9,61.9,42.6Z"/>
      <path class="st0" d="M2027.4,1741.4c-20.4-22.9-56.3-47.4-85.1-58,20.4,22.9,56.3,47.4,85.1,58Z"/>
      <path class="st0" d="M2090.3,1658c1.7-.2,3.4-.4,5.1-.7-.2-1-.3-1.9-.5-2.8-6.4-.8-12.8-1.2-19.2-1.6-8.5-.6-17.4-.6-25.9-1.3-19.6-31.3-52.1-50.2-80.4-72.7,20.3,30.2,52.7,50,73.1,80.1l1.2,1.8c1,.2,2.2.5,3.2.6,4.8.4,9.7-.1,14.4-.4,9.7-.7,19.4-1.8,29-3Z"/>
      <path class="st0" d="M1214.4,1113.9c8,5.2,15.7,10.6,23.8,16.3-4.6-8.8-11.3-16.4-18.5-23.1-21.8-19.7-47.2-32.7-70.5-50.4,14.1,26.2,41.3,41.3,65.2,57.2Z"/>
      <path class="st0" d="M1350.4,1625.4c-13.3-11.3-27.5-20.5-41.7-30.3-14.4-9.6-28.1-19.3-43.4-27.8,18,27.9,52.7,51.1,85.1,58Z"/>
      <path class="st0" d="M1184,1273.3c26.1,35.4,81.4,60.9,123.8,69.6-40.6-25-84-43.3-123.8-69.6Z"/>
      <path class="st0" d="M197.5,1915.5c-9.1-5-16.9-9.1-25.9-13.5-9-4.3-18-8.5-28.3-9.7,11.1,15.5,34.8,29.7,54.2,23.2Z"/>
      <path class="st0" d="M1540,1679.5c-2.3-6.3-6.5-11.5-11.1-16-9.1-8.8-19.9-14.9-30.5-21.2-5.3-3-10.5-6.1-16.3-9.2,7.6,17.9,25.6,28.2,41.7,37.3l16.3,9.1Z"/>
      <path class="st0" d="M1416.3,1848.1c2.7.9,4.9,2,8.1,3.7,14.7,7.3,30.2,12.7,45.9,17.4-10.6-7.8-22-14.2-33-20.8-5.4-3.1-11.3-7.5-17.5-10-3.4-1.3-7-2.2-10.5-2.7-16.7-2.2-33.3,2.7-49.4,5.7-12.2,2.3-25.4,3.4-36.6-3.1,22.6,25.1,65.4,1.1,93,9.9Z"/>
      <path class="st0" d="M975.1,248.1c-10.2-15-32.3-28.6-50.3-30.9,10.2,15,32.3,28.6,50.3,30.9Z"/>
      <path class="st0" d="M1841.7,491.8c-10-8.1-20-14.3-30.9-20.7-10.9-6.1-22.2-11.9-34.9-14.1,15.5,17.2,42,34.9,65.8,34.8Z"/>
      <path class="st0" d="M1861.1,604c-5.8-7-12.9-12.7-20.4-17.7-22.5-14.6-47.2-23.8-72.5-32.6,18.7,19.3,44.3,29.5,68.3,40.2,8,3.4,16,6.9,24.5,10.1Z"/>
      <path class="st0" d="M1734.6,611.4c15.2,9.3,29.8,18.2,45.3,27.5-17.4-28.4-57.3-50-89-58,13.5,12,28.6,21.1,43.7,30.6Z"/>
      <path class="st0" d="M1834,669.8c7.5,10,19.6,18.2,32.7,23.6,8.6-.1,17.3.4,25.8,1.8-7.6-5.2-15.8-9.2-24.2-13.1-11.2-5-22.1-9.4-34.3-12.3Z"/>
      <path class="st0" d="M1632.4,239.3c-12.4-5.8-24.6-11.4-38.2-14.4,17,19,47.9,34.4,73.5,34.8-11.2-8.3-23-14.4-35.3-20.4Z"/>
      <path class="st0" d="M1634.9,342.8c6.8,2.3,13.7,4.4,21.1,5.9-10.3-10.7-23.4-17.7-36.6-23.9-13.4-6-26.4-11-40.7-14.8,14.8,16.5,35.9,25.5,56.2,32.8Z"/>
      <path class="st0" d="M1400.7,1381.6c16.4,16.4,46.7,31.6,69.6,34.8-16.4-16.5-46.7-31.6-69.6-34.8Z"/>
      <path class="st0" d="M1942.3,457c-13.8-9.4-37.4-19.6-54.2-19.3,12.2,13.8,35.8,24.1,54.2,19.3Z"/>
      <path class="st0" d="M1244.8,1205.4c18.4,11.8,38.1,21.2,56.5,32.8,9.1,5.7,17.7,12,25.9,19.7-17.7-38.7-72.2-56.3-108.3-73.5,7.5,8.4,16.7,15,26,21.1Z"/>
      <path class="st0" d="M241.8,980.6c16.8,13.7,43.2,7.8,62.8,6.3,6.8-.6,13.6-1,20.6,0-3-1.9-6.4-3.2-9.9-4.1-10.3-2.8-21.3-2.9-31.6-3.4-12.2-.7-26.7-.2-36-8l-1.6-1.4h-2c-19.6-.2-36.2-11.9-54.3-17.9,14.5,12.4,30.3,25.7,49.9,28.2l2.1.2Z"/>
      <path class="st0" d="M2081.3,1549.6c-.5-2.4-1-4.7-1.5-7.1-17-15.4-40.9-31-60.1-37,14,17.9,38.7,36.4,61.6,44.1Z"/>
      <path class="st0" d="M1483.9,1343c-9.7-6.7-19.8-12.1-29-15.5,7.6,10.8,19.4,22.1,32.2,31.6-1.3-5.4-2.3-10.8-3.1-16.1Z"/>
      <path class="st0" d="M698.2,848.9c19.7,8.5,39.4,16.1,60.2,22.1-16.8-13.7-36.2-23.4-55.8-32.1-16.9-7.3-33.7-13.8-51.2-19.3-1.2.5-2.4,1-3.7,1.5,15.5,11.5,32.9,20.1,50.4,27.9Z"/>
      <path class="st0" d="M778.2,686.3c7.5,4.7,14.9,9.6,22.8,14.4-4.6-8.1-10.8-15-17.5-21.3-20.3-18.3-43.9-31.1-67.6-44.5,15.5,22.7,39.9,36.7,62.3,51.4Z"/>
      <path class="st0" d="M1273,344.8c17,24.1,43.9,38.6,70,50.8,8.7,4,17.5,7.8,26.7,11.1-6.7-7.2-14.5-13.2-22.5-18.7-15.9-10.8-32.6-19.6-49.2-29-8.3-4.6-16.4-9.5-25-14.2Z"/>
      <path class="st0" d="M228.5,418.3c13.7,8,28.5,12.7,43.5,17.2,15.1,4.2,29.8,8,45.5,9.9-22.7-18-60.2-27.6-89-27.1Z"/>
      <path class="st0" d="M882.1,320.8c7.6,4.3,15.2,8.6,23.4,12.4-5.2-7.4-11.7-13.7-18.4-19.5-20.5-17-43.1-30.2-66.7-42.4,15.7,21.8,39,36.1,61.7,49.5Z"/>
      <path class="st0" d="M224.6,340.9c20.5,14,51.7,28.2,78,33.3-.3-2-.7-4-1-6.2-22.8-13.6-53-25.3-77.1-27.1Z"/>
      <path class="st0" d="M1222.7,298.4c-22.2-20-59.9-39.6-89-46.4,22.2,20,59.9,39.7,89,46.4Z"/>
      <path class="st0" d="M1064.4,498.2c8.8,3.1,17.6,6.2,26.8,9.1-6.8-6.9-14.9-12.2-23.2-16.9-24.9-13.7-51.3-22.2-77.4-33.4,19.2,21.5,47.5,31.6,73.8,41.2Z"/>
      <path class="st0" d="M1234.3,596.3c14.2,9.2,26.8,18.5,41.1,27.3,14.2,8.5,30.7,16.6,47.9,15.2-7.7-3.8-14.7-7.6-21.5-11.8-21-12.5-42-29-67.5-30.7Z"/>
      <path class="st0" d="M1048.6,352.6c16.4,19.9,48.2,35,73.5,38.7-17-16.1-50.9-32.2-73.5-38.7Z"/>
    </g>
    <g>
      <g>
        <path class="st6" d="M625.7,1049.3c2.5-10.3,9.4-19,13.6-28.5,1-2.4,2.3-5,4.2-7.1,1.7-1.9,3.4-3.5,5-5.5,3.5-4.8,4.1-13.2,10.6-15.7,5.1-2,8,1.2,10,5.3,3,5.1,4,12.7,8.7,16.3,9.9,4.8,13.3-17.1,17.2-22.9,1.9-3.4,4.9-6.6,6.7-9.8,1.9-3.6,1.7-10.3,5.7-13.4,7.9-6.1,11.6,6.1,14.8,11,1,1.5,1.9,2.8,3.4,3.4.8.3,1.9.4,2.7.4.6,0,1.3-.2,2.2-.2,1,0,2.1.3,2.9.9,4.7,4.4,7.3,10.4,10.1,15.6,2.3,4.7,5.2,9.1,8,13.5,2.9,4.4,6,8.6,9.7,12.2,3.6,3.5,9.3,6.3,10.1,11.8-1.4-5.5-7-7.5-11-10.8-4.2-3.4-7.6-7.6-10.8-11.9-3.2-4.3-6.3-8.7-8.9-13.3-2.7-4.6-5.1-9.2-8.4-12.9-.5-.5-.8-.9-1.3-1.2,0,0,0,0,0,0,0,0,0,0,0,0-5.5,1.1-9.4-.5-12.3-5.2-1.6-2.4-2.7-4.8-4-7-.8-1.3-1.6-2.7-2.8-3.3-.6-.2-1.3.5-1.7,1-2.3,3.3-1.9,7.9-4,11.6-2,3.8-4.7,6.4-6.7,9.9-3,5.8-4.3,12.1-7.8,18.2-3.1,5.9-9.9,10.3-16.3,6.3-4.9-3.5-6.3-9.7-8.4-14.8-.8-2.1-2-4.7-3.3-6.4-1-1.3-2.6-.9-3.8-.3-1.2.6-2,1.5-2.8,2.8-2.2,3.4-3,7.1-5.7,10.6-.8,1.1-1.9,2.1-2.9,3-3,2.6-5.2,5.3-6.9,9-5,9.4-12.2,17.4-15.8,27.4h0Z"/>
        <path class="st6" d="M673,1059.7c2.3-1.5,4-3.7,5.3-6,2.4-4,4.6-10.6,6.4-15,3.2-7.7,6.4-15.3,11.3-22.2,2-2.8,5.7-4.9,9.1-3.2,5.1,2.8,6.5,9.7,10.9,12.8,3.5,2.3,8.5,6,12.6,4.8,1.7-.5,3.3-2.4,5-4.5,2.9-4,7.3-8.2,12.8-6,3.1,1.2,4.7,4.6,6.3,7,3.3,4.8,9,7.3,13.6,10.9,1.7,1.2,3.5,2.7,5.4,3.3.2,0,.4,0,.5.1.2,0,.3,0,.4,0,1-.3,1.8-1,2.9-2.1,2.8-2.8,5.6-6,8.4-8.8,3.8-3.9,7.6-7.8,10.6-12,2.8-3.8,4.7-8.3,7.4-12.3,6.1-8.6,12.6,3.6,15.6,8.6,2.8,4.9,4.6,10.1,7.1,14.8,2.4,4.9,6.2,8.8,9.3,13.2,3.2,4.6,6.1,9.3,10.1,13.2-1.1.1-2.2.7-3.4.8,1.1-.2,2-.8,3.1-1.1v.3c-4.3-3.5-7.6-8-11-12.2-3.4-4.3-7.6-8.1-10.2-12.9-2.8-4.8-5-9.8-7.8-14.3-1-1.5-6.7-10.8-8.4-9.2-1.5,1.4-2.6,4.3-3.7,6.3-1.3,2.4-2.6,4.9-4.2,7.3-3.2,4.7-7.1,8.7-10.8,12.7-1.9,2-3.7,3.9-5.6,6-2.2,2.3-3.7,4.4-6.9,6-4.2,1.8-8.3-1.6-11.5-3.8-3.9-2.9-8.1-5.1-11.8-8.6-2.1-1.9-3.7-4.8-5.1-7-.8-1.3-1.9-2.1-3.4-2.1-3.8.5-6.3,6.3-9.7,8.7,0,0-1,.7-1,.7l-1.2.6c-6.2,2.6-12.3-1.6-17.1-5-1.6-1.1-3-2.7-4-4.2-1.6-2.3-2.8-4.7-4.3-6.9-1.3-1.7-2.5-3.2-4.7-2.3-.7.2-1.4.8-1.9,1.4-2,2.1-3.5,4.6-5.1,7.2-2.7,4.6-5.3,9.5-7.6,14.3-2.3,5-4.4,10.1-7.5,14.6-1.6,2.3-3.5,4.4-5.9,5.6h0Z"/>
        <path class="st6" d="M740.2,1081.3c-10.6-5.1-17.2-15.7-26.4-22.7-4.5-3-8.3-7.3-13.2-9.5-3.4-1.3-4.1,4.4-4.8,6.9-.6,2.6-1.1,5.5-2.1,8.1-1.1,2.8-2.2,5.4-4.3,7.7-1.4,1.6-2.9,2.7-4.3,3.8l-3,2.4-.8-3.8c-1.9-9.1-11-14-17.4-20.1-4.1-3.8-8.2-9.1-13.9-9.9-7-1-10.4,15.2-12.5,20.5-1.3,4.1-3.4,8-5.3,11.9-2.2,4.2-4.9,8.4-8.4,11.8-6.5-3.5-8.7-11-13.9-15.7-1.5-1.3-3.4-2.2-5.4-2.3l.7-.5c-.9,2.5-2.1,4.7-3.3,6.9-1.2,2.2-2.4,4.4-3.1,6.9,1-4.9,3.7-9.4,5-14.2,0,0,.1-.5.1-.5h.6c9.7-.2,12.6,11.9,19.9,16l-2,.3c2.6-3.1,4.7-6.6,6.5-10.3,1.7-3.8,3.5-7.5,4.7-11.5,2-6.1,3.4-12.7,6.9-18.4,4.9-8.2,13.6-6.4,19.8-1.1,3.5,2.8,6.4,6.1,9.4,8.7,3.1,2.7,6.6,5.3,9.7,8.6,3.2,3.3,5.8,7.5,6.6,12.2,0,0-3.8-1.5-3.8-1.5,1.4-1.1,2.8-2.1,3.8-3.2,2.1-2.3,3.4-5.6,4.4-8.6,1-3.5,1.5-7.1,3.2-10.6,5.3-10.5,14.5.8,19.8,5.2,10.2,7.6,15.9,19.8,26.7,26.6h0Z"/>
        <path class="st6" d="M717.8,1135c6.9-7.5,10.9-16.9,14.6-26.2,4.6-11.7,8.3-24,13.5-35.6,1.9-4.6,3.5-9.6,5.6-14.1,1-1.9,2-4.3,3.9-5.7,2.7-1.6,5.9,0,7.9,1.8,6.8,6.2,11.4,14.5,15.6,22.5,2.6,4.7,5,10.3,9.8,12.8.8.3,1.6.5,2.4,0,1.7-1,3.1-3.2,4.5-4.9,2.8-3.2,6.6-8.1,11.6-6.6,1.8.7,2.9,2,3.8,3.5,2.1,3.5,3.3,6.7,5.5,9.8,3.7,4.8,8.8,8.3,13.9,11.7,1.6.9,2.5,2.4,4,2.6,1.3-.1,2.4-1.1,3-2.5l.8-1.7c2-4.8,7.3-1.1,9.4,1.7,4.7,6.1,7.3,13.4,11.5,19.8-3.2-3.9-5.7-8.4-8.5-12.6-2.4-3.3-4.6-7.5-8.6-8.8-1.1-.2-1,0-1.5,1,0,0-.7,1.8-.7,1.8-1,2.9-4.9,5.7-8,3.7-1.4-.8-2.2-1.6-3.1-2.1-6.7-4-13.7-8.5-17.7-15.5-1.4-2.3-2.4-4.6-3.7-6.5-.6-.9-1.3-1.6-1.6-1.6-.5-.1-1.1.2-1.6.6-5.6,3.6-8.9,14.8-17.3,11.3-3.7-1.6-6.4-5.1-8.4-8.2-2.8-4.3-4.9-9-7.4-13.4-2.5-4.2-5.2-8.4-8.4-12.1-1.3-1.4-3.2-3.5-4.9-3.9,0,0,0,0,0,0h0s0,0,0,0c0,0,.1,0,.1,0-2.4,2.9-3.8,7-5.3,10.5-1.3,3.3-2.9,7.3-4.6,10.5-7.4,16-12.6,33.4-22.7,48.1,0,0-2.3,3.1-2.3,3.1l-2.5,2.9-2.7,2.6h0Z"/>
        <path class="st6" d="M723.4,1111.1c-3.3-.7-5.7-3.7-8.1-5.9-4.5-4.5-8.4-10.1-14-13-2.5-1.2-4.7-.2-6,1.9-1.6,2.4-2.9,5.5-4.2,8.5-2.4,6.1-4.6,12.3-6.9,18.6-1.2,3.1-2.4,6.6-5.2,9.6l-1.7,1.8-1.6-1.8c-2.4-2.8-3.4-5.5-5.4-8.2-.9-1.3-1.8-2.4-2.9-2.9-.2-.1-.4,0-.5-.1-.4.1-1,.5-1.5,1-4.4,4.2-7.6,10.1-11.9,14.6,0,0-.5-.4-.5-.4.8-.7,1.7-1.2,2.5-1.9-.6.9-1.4,1.6-2.1,2.4l-.5-.4c.9-1.3,1.6-2.7,2.4-4.1l2.3-4.2c1.6-2.9,3.2-5.6,5.4-8.2.6-.6,1.2-1.3,2.4-1.9,6.4-2.2,10.1,7.7,13.5,11.2,0,0-3.3,0-3.3,0,3-3.5,3.9-8.5,5.6-12.8,1.7-4.6,3.4-9.5,5.4-14,2.9-6.7,7.4-16.7,16.4-12,6.3,3.8,9.5,9.8,13.7,15.4,2,2.6,3.7,5.7,6.7,7.1h0Z"/>
      </g>
      <path class="st6" d="M644.1,1029.7c.3-.2.7-.2.9.1.5.8.2,1.7,0,2.5-.4,1-.9,1.9-1.7,2.7.2-1.6.8-2.9,1.2-4.4,0-.4.2-.8-.4-1h0Z"/>
      <path class="st6" d="M652.5,1024c.7,1.6.7,3.3,0,4.9-.7-1.6-.7-3.3,0-4.9h0Z"/>
      <path class="st6" d="M657.8,1029.3c.7,1.4.7,2.8,0,4.2-.7-1.4-.7-2.8,0-4.2h0Z"/>
      <path class="st6" d="M665,1030.8c1,.7,1.3,1.9.8,3-.8-.9-1.1-1.8-.8-3h0Z"/>
      <path class="st6" d="M659.7,1009.9c1.1,2.5,1.5,5.3.8,8-.7-2.7-1.1-5.2-.8-8h0Z"/>
      <path class="st6" d="M668.4,1021.3c1.1,1.2,1.5,2.6,1.1,4.2-1-1.3-1.4-2.6-1.1-4.2h0Z"/>
      <path class="st6" d="M703.7,1001.6c.7,1.9.7,3.8,0,5.7-.7-1.9-.7-3.8,0-5.7h0Z"/>
      <path class="st6" d="M711.3,1006.9c.7,1.8.7,3.6,0,5.3-.7-1.8-.7-3.6,0-5.3h0Z"/>
      <path class="st6" d="M719.2,1016.4c.7,1.1.7,2.3,0,3.4-.7-1.1-.7-2.3,0-3.4h0Z"/>
      <path class="st6" d="M723.4,997c1,2.3,1.6,4.7,1.1,7.2-.9-2.3-1.5-4.7-1.1-7.2h0Z"/>
      <path class="st6" d="M733.3,1005.4c.8,1.9,1.1,3.6,1.1,5.7-1.3-1.6-1.7-3.7-1.1-5.7h0Z"/>
      <path class="st6" d="M741.6,1014.1c1.2,1,1.8,1.9,2.3,3.4-1.5-.5-2.4-1.9-2.3-3.4h0Z"/>
      <path class="st6" d="M712.4,986c.9,1.1,1.1,2.6.4,3.8-.7-1.3-.8-2.4-.4-3.8h0Z"/>
      <path class="st6" d="M697.6,1031.2c.3,2.9-.5,6.3-2.7,8.3,1-2.8,1.5-5.5,2.7-8.3h0Z"/>
      <path class="st6" d="M703.7,1031.2c.8,2.5.7,5.3-.8,7.6,0-2.6.2-5,.8-7.6h0Z"/>
      <path class="st6" d="M710.9,1044.8c.6,2.3.5,4.2,1.1,6.5-1.9-1.5-2-4.4-1.1-6.5h0Z"/>
      <path class="st6" d="M721.9,1044.1c1,2,1.1,4.2.8,6.5-1-2-1.1-4.2-.8-6.5h0Z"/>
      <path class="st6" d="M732.5,1045.6c.4,3,1.3,5.7,1.1,8.7-1.2-2.7-2.1-5.8-1.1-8.7h0Z"/>
      <path class="st6" d="M742,1036.9c1.4,2.5,2.4,5.4,1.9,8.3-.9-2.8-1.8-5.4-1.9-8.3h0Z"/>
      <path class="st6" d="M751.1,1047.5c1.1,1,1.6,2.4,1.1,3.8-.9-1.2-1.3-2.3-1.1-3.8h0Z"/>
      <path class="st6" d="M739,1052.8c.7,1.1.9,1.8.8,3-1.1-.6-1.5-2-.8-3h0Z"/>
      <path class="st6" d="M782.2,1054.3c.5,1.9.2,3.5-.4,5.3-.8-1.7-.5-3.7.4-5.3h0Z"/>
      <path class="st6" d="M789.1,1046.4c1,2.2.8,4.5,1.1,6.8-1.6-1.8-1.5-4.5-1.1-6.8h0Z"/>
      <path class="st6" d="M797.4,1038c1.1,1.8,1.2,4.1.4,6.1-.6-2.1-.7-3.9-.4-6.1h0Z"/>
      <path class="st6" d="M805,1046.4c.6,2.1.5,3.9.4,6.1-1.2-1.8-1.2-4.1-.4-6.1h0Z"/>
      <path class="st6" d="M813.7,1050.1c.7,2,.8,3.6,1.1,5.7-1.6-1.4-1.9-3.8-1.1-5.7h0Z"/>
      <path class="st6" d="M824,1051.3c1.3,1.3,1.5,3,2.3,4.6-.5,0-.9-.5-1.1-.8-.8-1.1-1.2-2.4-1.1-3.8h0Z"/>
      <path class="st6" d="M817.5,1032.7c1.2,2.8,1.7,5.7,1.5,8.7-1.2-2.8-1.7-5.7-1.5-8.7h0Z"/>
      <path class="st6" d="M809.6,1035.7c.7,1.6.7,2.9.8,4.6-1.3-1.1-1.5-3.1-.8-4.6h0Z"/>
      <path class="st6" d="M809.2,1020.2c.6,1.4,1,2.8.7,4.3,0,.5-.3,1.1-.7,1.4,0-.5,0-.9,0-1.4-.1-1.4-.5-2.9,0-4.3h0Z"/>
      <path class="st6" d="M756.8,1081.6c.7,2,.4,4.3-.8,6.1-.2-2.2,0-4,.8-6.1h0Z"/>
      <path class="st6" d="M764.4,1072.5c.7,3.3.5,6.5.4,9.9-1.2-3.2-1.1-6.6-.4-9.9h0Z"/>
      <path class="st6" d="M771.2,1093.8c1.1,1.7,1.7,3.7,1.1,5.7-.8-1.9-1.3-3.6-1.1-5.7h0Z"/>
      <path class="st6" d="M780,1102.1c1.1,1.5,1.6,3.6.8,5.3-.6-1.8-1-3.4-.8-5.3h0Z"/>
      <path class="st6" d="M762.9,1104.8c1,1.7,1.2,3.8.4,5.7-.6-1.9-.7-3.7-.4-5.7h0Z"/>
      <path class="st6" d="M754.5,1115.4c.5,1.5.6,2.6.4,4.2-1.2-1.1-1.3-2.9-.4-4.2h0Z"/>
      <path class="st6" d="M744.7,1116.9c.4,1.6.4,3.1,0,4.6-.2.5-.3,1.1-.7,1.4,0-2-.3-4.2.8-6.1h0Z"/>
      <path class="st6" d="M751.9,1099.1c.3,1.8.2,3.2-.4,4.9-.8-1.6-.7-3.5.4-4.9h0Z"/>
      <path class="st6" d="M778.1,1124.9c1,1.3,1.2,3.1.4,4.6-.6-1.6-.7-2.9-.4-4.6h0Z"/>
      <path class="st6" d="M790.6,1125.7c.8.8.9,1.7.4,2.7-.8-.8-.9-1.7-.4-2.7h0Z"/>
      <path class="st6" d="M792.5,1112.8c.9,1.7,1.2,3.5.8,5.3-.9-1.7-1.2-3.5-.8-5.3h0Z"/>
      <path class="st6" d="M802,1120.4c1.1,1.8,1,3.7.8,5.7-1.1-1.8-1.1-3.7-.8-5.7h0Z"/>
      <path class="st6" d="M799.3,1099.9c1,2.1,1.8,4.5,1.1,6.8-.8-2.3-1.5-4.4-1.1-6.8h0Z"/>
      <path class="st6" d="M807.3,1096.4c1.3,2.6,1.9,5.5,1.1,8.3-.7-2.8-1.2-5.4-1.1-8.3h0Z"/>
      <path class="st6" d="M815.6,1115.8c.8,1.5,1.4,2.8,1.1,4.6-1.1-1.3-1.7-2.9-1.1-4.6h0Z"/>
      <path class="st6" d="M824.4,1118.1c1.6,1.8,2.3,4.4,1.9,6.8-.9-2.3-1.5-4.4-1.9-6.8h0Z"/>
      <path class="st6" d="M827.8,1131c.8,0,1.1.4.8,1.1-.8,0-1.1-.4-.8-1.1h0Z"/>
      <path class="st6" d="M836.1,1119.2c1.2,1.7,2,3.6,1.9,5.7-1.2-1.7-2-3.6-1.9-5.7h0Z"/>
      <path class="st6" d="M846,1120.7c1,1.4,1.2,2.6,1.5,4.2-1.5-.8-1.9-2.6-1.5-4.2h0Z"/>
      <path class="st6" d="M851.3,1119.6c1.2,2.1,2,4.4,1.9,6.8-1.2-2.1-2-4.4-1.9-6.8h0Z"/>
      <path class="st6" d="M844.1,1110.9c1.7.9,2.3,3.1,1.9,4.9-.5-.8-.8-1.6-1.1-2.4l-.8-2.5h0Z"/>
      <path class="st6" d="M698,1069.5c.7,2.3.9,4.4.8,6.8-1.2-2.1-1.4-4.5-.8-6.8h0Z"/>
      <path class="st6" d="M702.2,1061.5c1.6,1.4,2.1,3.8,1.1,5.7-.5-2-.8-3.6-1.1-5.7h0Z"/>
      <path class="st6" d="M714.3,1076.7c.7,1.9.7,3.8,0,5.7-.7-1.9-.7-3.8,0-5.7h0Z"/>
      <path class="st6" d="M724.9,1078.2c1.1,1.4,1.6,3.2,1.1,4.9-.9-1.5-1.4-3.1-1.1-4.9h0Z"/>
      <path class="st6" d="M734,1092.3c.9.7,1.1,1.9.7,3-.1.3-.4.7-.7.8,0-.4,0-.7,0-1,0-1-.1-1.8,0-2.8h0Z"/>
      <path class="st6" d="M724.6,1096.1c1,1.1,1.1,2.6.4,3.8-.6-1.3-.7-2.4-.4-3.8h0Z"/>
      <path class="st6" d="M716.2,1088.5c.7,1.4.7,2.8,0,4.2-.7-1.4-.7-2.8,0-4.2h0Z"/>
      <path class="st6" d="M718.1,1120.4c1.5.5,2.3,2.4,1.5,3.8-.7-1.4-1-2.3-1.5-3.8h0Z"/>
      <path class="st6" d="M707.9,1110.5c1.4,1.9,2.3,4.5,1.5,6.8-.6-2.4-1.4-4.4-1.5-6.8h0Z"/>
      <path class="st6" d="M707.5,1125.7c.9.9,1.1,2.3.4,3.4-.7-1.2-.8-2.1-.4-3.4h0Z"/>
      <path class="st6" d="M697.6,1123.4c.7,1,.7,2,0,3-.7-1-.7-2,0-3h0Z"/>
      <path class="st6" d="M701.8,1103.3c1,1.8.6,4.2-.8,5.7,0-2.1.3-3.7.8-5.7h0Z"/>
      <path class="st6" d="M696.1,1112.8c.4,1.5.3,2.8-.4,4.2-.8-1.4-.6-3,.4-4.2h0Z"/>
      <path class="st6" d="M662.3,1132.1c.7,1.4.5,2.7.4,4.2-1.2-.9-1.1-3-.4-4.2h0Z"/>
      <polygon class="st6" points="670.3 1133.3 670.8 1135.3 669.8 1135.3 670.3 1133.3 670.8 1135.3 669.8 1135.3 670.3 1133.3 670.3 1133.3"/>
      <path class="st6" d="M672.6,1097.6c.6,2.7.6,5.2,1.1,8-1.8-2.1-1.9-5.4-1.1-8h0Z"/>
      <path class="st6" d="M680.5,1091.9c1,1.7,1.5,3.8.8,5.7-.6-1.9-1.1-3.7-.8-5.7h0Z"/>
      <path class="st6" d="M667.6,1076.7c1,1.9,1.1,4,.8,6.1-1-1.9-1.1-4-.8-6.1h0Z"/>
      <path class="st6" d="M661.9,1094.2c.8,1.3.8,3.1-.4,4.2-.1-1.6-.2-2.7.4-4.2h0Z"/>
      <path class="st6" d="M654.3,1089.2c.9,1.4.8,3.3-.4,4.6-.2-1.7-.1-2.9.4-4.6h0Z"/>
      <path class="st6" d="M644.9,1091.9c.2,2.4,0,4.7-1.1,6.8-.2-2.4,0-4.7,1.1-6.8h0Z"/>
      <path class="st6" d="M639.9,1080.5c.8,1.2.5,3-.8,3.8,0-1.5,0-2.5.8-3.8h0Z"/>
      <path class="st6" d="M649.4,1071c.5,3.5,1.2,7.1.4,10.6-.6-3.5-1.2-7.1-.4-10.6h0Z"/>
      <path class="st6" d="M650.6,1060.4c1.1,2.3,3.2,3.7,4.5,5.9,1,2.4,1.5,4.8,1.2,7.4-.5-2.4-1.1-4.7-2.1-6.9-1.1-2-3.3-3.9-3.6-6.4h0Z"/>
      <path class="st6" d="M661.6,1063.4c1.6,1.8,2.4,4.1,2.3,6.5-1.2-2-1.9-4.1-2.3-6.5h0Z"/>
      <path class="st6" d="M671,1074.1c1,.7,1.4,2,.8,3-.8-1-1-1.8-.8-3h0Z"/>
      <path class="st6" d="M602.7,1081.6c.6,2,0,4.5-1.9,5.7.6-1.7,1.1-4,1.9-5.7h0Z"/>
      <path class="st6" d="M600.8,1100.6c.5.6.4,1.2-.4,1.5-.5-.6-.4-1.2.4-1.5h0Z"/>
      <path class="st6" d="M609.6,1097.2c.4,2.2,0,4.3-.8,6.5-.7-2.2-.2-4.4.8-6.5h0Z"/>
      <path class="st6" d="M617.2,1101.8c.7,2,.7,4.1,0,6.1-.7-2-.7-4.1,0-6.1h0Z"/>
      <path class="st6" d="M626.6,1103.3c.7,1,.7,2,0,3-.7-1-.7-2,0-3h0Z"/>
      <path class="st6" d="M633.9,1097.6c.7,1.3.8,2.4.4,3.8-.9-1.1-1.1-2.5-.4-3.8h0Z"/>
      <path class="st6" d="M613.7,1085.4c1,2.1,1.7,4.5,1.1,6.8-.8-2.2-1.5-4.4-1.1-6.8h0Z"/>
    </g>
    <g>
      <g>
        <path class="st6" d="M1062.2,397c.1.2-.2.4-.2.6,0,0,.2,0,.3,0,.1,0,.2,0,.3-.1h0c5.6-10.6,13.5-20,18.4-30.8,1.3,1,3.2,2.7,4.5,3.5.3.2.3.1.4.1,4.4-1.7,7.9-5.7,11.1-9.3,5.7-6.8,10.5-14.5,16-21.5.4-.5,1-1.3,1.4-1.9,2.1-3.3,3.6-7.2,7.3-9.5,1.3-.9,3.8-.7,5.1.4,2.2,1.8,2.7,3.9,3.3,6.2.6,2.7.8,5.2,1.6,7.6.3.8.5,1.4,1,1.7-.1,0-.1,0,.1,0,.2,0,.6,0,.9-.2,6.5-2.1,8.4,1.2,12.2,5.6,4.8,5.5,8.9,11.4,13.1,17.3,2,2.9,4.5,5.8,6.4,8.8,2,3.1,3.7,6.2,5.8,8.9,1,1.3,2.2,2.6,3.4,3.1.6.2.7.2,1.3-.2.5-.4,1.1-1.3,2.1-1.9,1-.6,2.2-.8,3.3-.6,2.8.8,4.9,2.8,7.1,4.5,2.8,2.3,5.4,4.8,8.1,7.2-2.9-2.1-5.8-4.2-8.8-6.2-1.5-1-3-2-4.5-2.8-1.5-.8-3.1-1.2-4-.4-.5.4-1,1.1-1.7,1.9-.6.6-1.7,1.2-2.7,1.1-5-.7-9.5-9-12.2-12.6-2-2.9-4.5-5.5-6.7-8.3,0,0-6.6-8.5-6.6-8.5-3.4-4.2-7.1-8.9-11.1-12.4-.6-.4-1.3-.1-2,0,0,0-1.3.3-1.3.3-5.4,1.7-7.9-3.1-8.6-7.6-.6-2.6-.8-5.1-1.6-7.4-.2-.6-.6-1.1-.7-1.1,0,0,0,0,0,0,0,0,0,0,0,0,0,0,0,0,0,0,.2,0,.3,0,.1,0-3.1,2.4-4.6,7.1-7.2,10-5.7,6.9-10.7,14.5-16.7,21.2-2.9,3.1-11.8,12.4-16.3,9.3-1.1-.7-2.3-2-3.2-2.8,0,0,2.3-.5,2.3-.5-2.8,5.1-6.2,9.7-9.8,14.3-3.5,4.5-7.1,9-10.4,13.6-.1,0-.2,0-.3,0-.1,0-.2,0-.4,0,0-.2.4-.4.3-.6h0Z"/>
        <path class="st6" d="M1101.3,393.2c1.6-3.8,4.1-7.3,6.7-10.5,3.2-3.8,6.6-7.4,10.9-10.1,0,0,1.1,2,1.1,2,1.9,3.3,2.3,7.3,4.6,10.1,1.8,1.9,4.7-2,6.3-3.3,2.2-2.1,4.4-4.4,7.8-4.9,7.3-.9,8.8,7.3,12.4,11.1.4.4.8.6,1.2.9,1.6.6,3.7,0,5.6,1,2.5,1.2,4.7,3.2,5.5,5.9-1.5-2.2-3.9-3.5-6.2-4.1-2.1-.4-5,.8-7.2-.6-2.9-1.5-4.6-4.5-6.4-7-.9-1.2-1.6-2-2.7-2.5-3.6-1.2-6.8,4.5-9.6,6.5-2.7,2.6-7.5,3.6-10.4.3-2.9-3.3-3.1-7.7-4.7-11.4l2.9.8c-6.7,4.2-12.8,9.8-18,15.8h0Z"/>
        <path class="st6" d="M1163.5,369.5c5.1-7,11.4-13.4,15.1-21.2,2.4-5,4.2-10.5,8.8-14.1l3-2.3c.3,2.1.1,5.6,1.7,7.1.7.9,1.8,1.5,3.1,2l-2.6.6c1.9-2.9,2.6-6.6,5.3-9,2.1-1.9,5.6-1.9,7.4.5,2,2.7,2.2,5.4,3.2,8.3,2.5,6.8,4.3,13.8,8.6,19.5,0,0,0,0,0,0-.1,0-.4-.3-.5-.3,0,0-.5,0-.5,0,.4-.2.7-.5,1.3-.7.8-.4,1.8-.4,2.6,0,.4.2,1.4.6,1.9.7.7.2,2.3,1,2.8,1.9,1,1.6,1.5,3.3,2.4,4.9,3.3,6.5,8.3,13.2,12.2,19.8,1.8,2.8,4.5,7.2,6.3,9.9-4.1-4.2-7.8-8.8-11.4-13.5-4.5-5.8-9.4-11.5-12.6-18.2-.1-.2-.2-.4-.3-.4,0,0-.4-.2-.8-.3-.4-.1-1.5-.5-1.9-.7,0,0-.2,0,0,0,.3,0,.6,0,.8,0-1.8,1.5-4.3,1.8-5.9-.4-4.8-6-7.1-13.5-9.6-20.5-.8-2.2-1.1-5-2.3-6.8,0-.1-.1,0-.1-.1,0,0,0,0,0,0,0,0,0,0,0,0,0,0-.5.2-.9.9-1.7,2.3-2.6,5.6-4.5,7.8l-1,1.2c-2.3-1-4.6-2-6.4-4.2-1.3-1.6-2-3.8-2.1-5.8l3.4,1.6c-5.2,3.8-7.3,11.6-11.5,16.6-4.4,5.7-9.8,10.3-14.9,15.2h0Z"/>
        <path class="st6" d="M1235.6,373.4c-.6.2-1.3.2-1.9,0v-.2c3.7-4.7,13.8-12,19.2-6.3,0,0-2-.3-2-.3,4.6-3.9,6.9-10.2,10.6-14.9,0,0,1.4-1.8,1.4-1.8l1.7,1.7c9.2,9.2,17.2,22.8,18.5,36,0,0-3.7-1.9-3.7-1.9,4.4-2.7,8.9-5.4,13.3-8.1,8.8,12.6,17.5,25.5,25.5,38.7-9.7-11.1-18.9-22.7-27.9-34.4l3,.6c-4.8,3.2-9.8,6.4-14.6,9.5-.3-4.3-.9-8.8-2.5-13-3.2-8.9-8.2-17.4-14.6-24.3,0,0,3.2-.2,3.2-.2-4,4.6-6.9,11-12.2,14.6l-1.2.8-.7-1.1c-2.9-3.4-9.2-.1-12.5,1.7-1.4.9-2.8,1.8-4,3v-.2c.4.2,1,.3,1.5.2h0Z"/>
        <path class="st6" d="M1244.4,416.8c-4.8-4.6-7.8-10.7-11.5-16-1.9-2.6-4.2-5.3-5.7-8.2-2.1-3.4-3.6-6.9-6.7-9-1.6-.8-3.3.2-4.7,1.1-8.9,6.7-14.1,17.2-21.6,25.4-1.6,1.8-3.9,2.2-5.8.3-1.7-1.7-3-3.3-5.3-4.1-3.4-1.1-7.4-1.6-11-1.4-3.8.5-7.1,2.3-10.5,4.2-5.6,3.3-10.9,7.3-16.4,10.8-5.5,3.5-11,7.1-15,12.3l-.9,1.2c.5-1.3,1-2.7,1.8-3.9-.3.9-.6,1.8-.8,2.7l-.4-.2c1.6-2.9,3.8-5.5,6.2-7.8,4.8-4.6,10.3-8.2,15.4-12.5,5.4-4.1,10.7-8.4,17.4-10.6,3.5-1.2,7.1-.9,10.7-.5,2.7.4,5.6.9,8.1,2.6,1.6,1.1,3,2.6,4.3,3.8-.4-.3-1.1-.2-1.5,0,.3-.3,1-1.1,1.3-1.5,6.2-6.6,22.8-35.4,33.1-23.2,3.4,3.9,4.9,8.8,7.4,13.2,4.8,6.7,7.3,14.9,12.2,21.5h0Z"/>
        <path class="st6" d="M1135.4,418c-8.7-3-9.9-15.1-18.2-18.4-.6-.2-1.6-.5-2.3-.8h-.3c0,0-.2-.1-.1,0,0,0,.1,0,.2,0,0,0,.1,0,.2,0,0,0,0,0,0,0-8,12.1-9.6,11.2-18.9.6-2.5-2.7-5.1-5.7-8.5-6.4-.6.5-2.5,3.2-3.1,4l-4.1,5.4c-2.7,3.6-5.8,7.3-9.3,10.4-4.6,4.1-9.3,7.4-13.6,11.6,0,0,0-4.3,0-4.3,0-.8-.3-2-.6-2.9-.8-2.5-4.3-10.3-7.2-9.9-3.1,1.2-4.6,5.1-6.7,7.7,0,0-.2-.3-.2-.3l2.1-.4-2,.8-.5.2.2-.5c1.9-4,5-12.9,10.8-8.2,2.1,1.7,3.5,3.8,4.9,6,1.4,2.4,2.7,4.8,2.8,7.7,0,0-3.1-1.4-3.1-1.4,3.2-3.4,6.8-6.2,9.9-9.3,4.7-4.6,8.4-10.2,12.4-15.5,2.2-3,4.3-7.1,8.8-5.8,6.7,1.9,10.3,8.3,14.7,13,.8.8,1.5,1.6,2.1,1.9,0,0,0,0,0,0,0,0-.1,0-.1,0,0,0,.2,0,.6-.4,2-1.9,3.8-4.4,5.7-6.6,0,0,.2-.2.2-.2,0,0,.2-.2.4-.3,1.2-.9,2.8-.4,4.1.2,10.6,3.5,9.8,16.9,18.5,22.2h0Z"/>
      </g>
      <path class="st6" d="M1113.9,363.6c-.8-2.4-.4-5.2,1.2-7.3l1-1.3v1.6c-.2,2.6-1.6,4.6-2.1,7h0ZM1113.9,363.6c-.3-2.3,1-4.8,1.1-7l.9.3c-1.4,1.9-2,4.3-2,6.7h0Z"/>
      <path class="st6" d="M1135.7,360.5c-.2,3.7-1.7,8.2,1.6,10.9-4.4-1.5-3.3-7.7-1.6-10.9h0Z"/>
      <path class="st6" d="M1124.8,362.8c.7,3.9.7,7.8,0,11.7-.7-3.9-.7-7.8,0-11.7h0Z"/>
      <path class="st6" d="M1184.9,355.8c-.1,3.6-3.7,6-5.5,8.8-.7,1-1.1,2.1-.2,2.8-.8,2.5-2.3,4.8-1.9,7.5.2.8.7,1.5,1.3,2-.8-.4-1.4-1-1.7-1.9-.9-2.6.6-5.2,1.3-7.6,0,0,.1.5.1.5-.2-.3-.5-.6-.5-1-.3-1,.3-2.1.9-2.8,1.9-2.9,5.5-4.7,6.3-8.2h0Z"/>
      <path class="st6" d="M1193.5,369.1c-.2,4.1-.2,8.1.5,12.1,0,0-.3-.3-.3-.3.4.1.8,0,1-.3.2-.4.3-.9.3-1.4.3,1.1,0,2.7-1.5,2.4,0,0-.2,0-.2,0v-.2c-1.2-4-1.3-8.4.1-12.3h0Z"/>
      <path class="st6" d="M1202,355c1.3,3.9.5,8.3,3.1,11.7-3.8-2.5-3.2-7.7-3.1-11.7h0Z"/>
      <path class="st6" d="M1271.6,393.8c-.1,3.6-3.7,6-5.5,8.8-.7,1-1.1,2.1-.2,2.8-.8,2.5-2.3,4.8-1.9,7.5.2.8.7,1.5,1.3,2-.8-.4-1.4-1-1.7-1.9-.9-2.6.6-5.2,1.3-7.6,0,0,.1.5.1.5-.2-.3-.5-.6-.5-1-.3-1,.3-2.1.9-2.8,1.9-2.9,5.5-4.7,6.3-8.2h0Z"/>
      <path class="st6" d="M1287.8,398.2c-.2,4.1-.2,8.1.5,12.1l-.3-.3c.4.1.8,0,1-.3.2-.4.3-.9.3-1.4.3,1.1,0,2.7-1.5,2.4h-.2s0-.3,0-.3c-1.1-4-1.2-8.4.2-12.3h0Z"/>
      <path class="st6" d="M1296.4,395.5c1.3,3.9.5,8.3,3.1,11.7-3.8-2.5-3.2-7.7-3.1-11.7h0Z"/>
      <path class="st6" d="M1249.6,382.3c.6,4.5-.4,10.4,3.9,13.3-5.2-1.5-4.8-9-3.9-13.3h0Z"/>
      <path class="st6" d="M1263.7,395.6c-3.1-3.6-4.5-8.6-3.6-13.4l.5-2.6c1.1,5.3,1.8,10.7,3.1,15.9h0ZM1263.7,395.6c-1.9-4.2-2.7-8.7-3.6-13.2,0,0,1,0,1,0-.9,4.5.3,9.2,2.6,13.2h0Z"/>
      <path class="st6" d="M1221.5,402.6c1.2,4,4,7,5.5,10.9-2.6-3.1-5.6-6.6-5.5-10.9h0Z"/>
      <path class="st6" d="M1209.1,397.1c-.8,3.5-1.4,8,2.2,10-1.6,2.3-4.5,4.7-6.5,6.6-1.6,1.5-3.1,3-4.4,4.8-.4.6-.8,1.2-.7,2-.2-.7.1-1.5.5-2.1,2.4-4.5,6.9-7.6,10.1-11.4v.7c-3.4-2.4-2.6-7.2-1.2-10.5h0Z"/>
      <path class="st6" d="M1180.2,414.3c-.2,3.2-.6,6.3-1.6,9.4-.4-3.2,0-6.5,1.6-9.4h0Z"/>
      <path class="st6" d="M1164.6,418.2c-.6,3-1.4,5.7-2.3,8.6-.4-3,.5-6.2,2.3-8.6h0Z"/>
      <path class="st6" d="M1150.6,426.8c-.9,2.3-1.9,4.1-3.1,6.2-.2-2.4,1.1-4.9,3.1-6.2h0Z"/>
      <path class="st6" d="M1120.9,418.2c.7,3.9.7,7.8,0,11.7-.7-3.9-.7-7.8,0-11.7h0Z"/>
      <path class="st6" d="M1103,417.4c.3,3.1.3,5.7,1.6,8.6-2.4-2-2.7-5.8-1.6-8.6h0Z"/>
      <path class="st6" d="M1106.9,436.9c.8.9,2.6,7.9.7,4.3-.6-1.3-1-2.8-.7-4.3h0Z"/>
      <path class="st6" d="M1088.9,411.2c.3,2.8.8,5.1,1.6,7.8-2-1.9-2.7-5.2-1.6-7.8h0Z"/>
      <path class="st6" d="M1086.6,429.1c0,2.1-.9,3.8.8,5.5-2.7-.3-2.4-4.1-.8-5.5h0Z"/>
      <path class="st6" d="M1074.1,421.3c-.2,3.3-.5,6.1,0,9.4-1.9-2.7-1.5-6.6,0-9.4h0Z"/>
      <path class="st6" d="M1052.3,417.2c-1.7,2-2.2,4.7-3.2,7.1,0,0-.4-.2-.4-.2.2-.2.5-.4.7-.6,0,.5-.4,1-.7,1.4,0-2.8.7-6.5,3.6-7.7h0Z"/>
      <path class="st6" d="M1043.9,418.8c-.6.7-1.1,1.9-1.5,2.7-.3.7-1.2,2.1-1.3,2.8-.9-1.5,1-5.3,2.9-5.5h0Z"/>
      <path class="st6" d="M1075.4,386c-.7,2.2-1.8,4-2.5,6.2,0,.3,0,.6.1.8-2.1-1,.9-6.2,2.3-7h0Z"/>
      <path class="st6" d="M1083,377.1c-.5,2.8-.3,5.3-1,8.1-.7-2.7-.7-5.8,1-8.1h0Z"/>
      <path class="st6" d="M1094.7,377.1c.2,2.8.4,5.4-.3,8.1-.7-2.7-.9-5.5.3-8.1h0Z"/>
      <path class="st6" d="M1103.1,369c-.7,2.2-.9,4.1-1.6,6.2-.7-2.1-.3-4.9,1.6-6.2h0Z"/>
      <path class="st6" d="M1129.9,395.6c.7,2,.4,3.9.3,6-1.3-1.8-.9-4.1-.3-6h0Z"/>
      <path class="st6" d="M1136.1,405.2c1.3,2,1.7,4.5,1,6.8-.8-2.3-1-4.4-1-6.8h0Z"/>
      <path class="st6" d="M1142.1,391.9c.7,1.6.5,3.4.8,5.1.1.5.3,1,.8,1.4-2.6-.5-2-4.6-1.6-6.5h0Z"/>
      <path class="st6" d="M1149.9,401.8c1,1.5.9,3.2.5,4.9-1-1.5-.8-3.2-.5-4.9h0Z"/>
      <path class="st6" d="M1158.8,399.5c1.1.6,1.6,2.1.8,3.1-.7-1.1-.9-1.8-.8-3.1h0Z"/>
      <path class="st6" d="M1159,380.5c1.3,1,2,2.8,1.6,4.4-.9-1.4-1.4-2.7-1.6-4.4h0Z"/>
      <path class="st6" d="M1170.5,395.9c1.1.6,1.4,1.5,1.6,2.6-.4,0-.6-.2-.8-.4-.6-.6-.9-1.3-.7-2.2h0Z"/>
      <path class="st6" d="M1183,395.3c1.4,1.1,2.3,3.4,1,4.9-.1-1.9-.9-3.1-1-4.9h0Z"/>
    </g>
    <path class="st2" d="M770.7,883.2"/>
    <g>
      <polygon class="st5" points="2077.1 267.5 2043.5 313.6 2077.1 359.8 2031 326.1 1984.9 359.8 2018.6 313.6 1984.9 267.5 2031 301.2 2077.1 267.5"/>
      <polygon class="st1" points="2031 212 2044.7 299.9 2132.6 313.6 2044.7 327.3 2031 415.2 2017.3 327.3 1929.4 313.6 2017.3 299.9 2031 212"/>
      <circle class="st4" cx="2031" cy="313.6" r="11.2" transform="translate(373.1 1528) rotate(-45)"/>
      <path class="st1" d="M2005.2,198.5c-.1,0-.3-.2-.4-.6-.2-.3-.4-.6-.6-1-.2-.3-.4-.7-.5-1.1-.1-.4-.2-.7-.2-.9,0-.5.2-1.1.5-1.8.3-.7.7-1.3,1.1-1.9.6-1.1,1.6-2.7,2.8-4.8,1.2-2.1,3-5,5.2-8.7,1.2-2,2.4-4,3.5-6.1,1.1-2.1,1.9-3.7,2.4-4.9.2-.5.3-1,.3-1.3,0-.6-.2-1-.5-1.3-.3-.3-.8-.4-1.4-.4s-1.3,0-2.1,0c-.8,0-1.5,0-2.1.1-.2,0-.4-.1-.5-.4-.1-.2-.2-.5-.2-.8s0-.3.2-.3c.5.2,1.2.3,1.9.4.8,0,1.5.1,2.3.1s2,0,3-.2c1-.2,1.8-.3,2.5-.6.4,0,.6.2.6.7.1.4.2,1,.4,1.9.2.8.4,1.5.5,2.1.4,1.6,1,3.4,1.7,5.4.7,2,1.4,4,2.2,6.1.8,2.1,1.5,4.2,2.3,6.3.8,2.1,1.4,3.9,2,5.6.1.4.2.8.3,1,.1.3.3.4.6.4s.3-.1.5-.4c.2-.3.4-.6.5-.9,1.2-2.5,2.5-5,3.8-7.6,1.3-2.6,2.6-5.2,3.9-7.7,1.3-2.5,2.7-5,4-7.4s2.7-4.6,4-6.7c.3-.5.7-1.1,1.2-1.7.4-.6,1-1.1,1.5-1.6.6-.5,1.1-.9,1.7-1.2.6-.3,1.3-.5,1.9-.5s.8.2,1.4.5c.6.3.9.7,1.1,1.2,0,.1,0,.2-.2.2-.6,0-1.3,0-1.9.2-.6.2-1.3.5-2,.9-.7.4-1.5,1-2.2,1.8-.8.8-1.6,1.8-2.5,3-2.5,3.5-5,7.5-7.5,12.1-2.4,4.6-4.7,9.1-6.7,13.7-.6,1.4-1.2,2.8-1.8,4.2-.6,1.4-1.2,2.7-1.8,3.9-.2.4-.3.6-.5.6s-.4-.2-.7-.6c-.6-2.2-1.4-4.7-2.3-7.3-.9-2.6-1.8-5.3-2.7-7.9-.9-2.6-1.8-5-2.7-7.3-.8-2.3-1.6-4.1-2.1-5.5-.3-.7-.6-1-.9-1s-.6.3-1,1c-1.3,2.1-2.6,4-3.7,5.8-1.1,1.8-2.2,3.6-3.1,5.3-1,1.7-1.9,3.4-2.7,5-.8,1.6-1.6,3.3-2.4,5-.2.5-.4,1-.6,1.7-.2.6-.4,1.3-.5,2-.2.7-.3,1.4-.4,2.1-.1.7-.2,1.3-.2,1.9h-.2Z"/>
    </g>
    <g>
      <path class="st8" d="M750.7,1434.3c-19.4,0-35.2-15.8-35.2-35.2s15.8-35.2,35.2-35.2,35.2,15.8,35.2,35.2-15.8,35.2-35.2,35.2ZM750.7,1368.8c-16.7,0-30.2,13.6-30.2,30.2s13.6,30.2,30.2,30.2,30.2-13.6,30.2-30.2-13.6-30.2-30.2-30.2Z"/>
      <polygon class="st8" points="750.7 1381 757.1 1392.7 768.8 1399 757.1 1405.4 750.7 1417.1 744.4 1405.4 732.7 1399 744.4 1392.7 750.7 1381"/>
    </g>
    <g>
      <path class="st8" d="M1803,1741.8c-19.4,0-35.2-15.8-35.2-35.2s15.8-35.2,35.2-35.2,35.2,15.8,35.2,35.2-15.8,35.2-35.2,35.2ZM1803,1676.4c-16.7,0-30.2,13.6-30.2,30.2s13.6,30.2,30.2,30.2,30.2-13.6,30.2-30.2-13.6-30.2-30.2-30.2Z"/>
      <rect class="st8" x="1789.7" y="1693.2" width="26.8" height="26.8"/>
    </g>
    <g>
      <path class="st8" d="M1605.7,337.6c-19.4,0-35.2-15.8-35.2-35.2s15.8-35.2,35.2-35.2,35.2,15.8,35.2,35.2-15.8,35.2-35.2,35.2ZM1605.7,272.2c-16.7,0-30.2,13.6-30.2,30.2s13.6,30.2,30.2,30.2,30.2-13.6,30.2-30.2-13.6-30.2-30.2-30.2Z"/>
      <polygon class="st8" points="1605.7 285 1590.6 311.1 1620.8 311.1 1605.7 285"/>
    </g>
    <path class="st8" d="M1698.6,1167.6c-19.4,0-35.2-15.8-35.2-35.2s15.8-35.2,35.2-35.2,35.2,15.8,35.2,35.2-15.8,35.2-35.2,35.2ZM1698.6,1102.1c-16.7,0-30.2,13.6-30.2,30.2s13.6,30.2,30.2,30.2,30.2-13.6,30.2-30.2-13.6-30.2-30.2-30.2Z"/>
    <path class="st3" d="M341.4,1624.9c-1.5-3.8-4.6-6.6-8.4-7.8,5-1,9.9-2.5,14.4-5-1.6-.3-3.2-.4-4.8-.5-3.5-.1-6.9.1-10.3.6,3.5-4.1,5.5-9.8,5-15.1-4.2,3-7.1,7.9-8,13.1-2.4-4.7-5.2-9.2-8.9-13.1.7,5.5,2.6,10.8,4.8,15.9-4.5.3-9,.9-13.3,2.3,3.8,1.3,7.8,1.9,11.9,2.2-2.3,2.8-4.3,5.8-5.9,9.1,3.9-1.9,7.3-4.5,10.5-7.4,1,8.4,0,17.4-.5,25.8,0,0,5.2,0,5.2,0,.7-8.6.5-17.4-1.6-25.8,2.2,3.3,5.9,5.4,9.9,5.7Z"/>
    <path class="st3" d="M367.9,1661.9c-1.5-3.8-4.6-6.6-8.4-7.8,5-1,9.9-2.5,14.4-5-1.6-.3-3.2-.4-4.8-.5-3.5-.1-6.9.1-10.3.6,3.5-4.1,5.5-9.8,5-15.1-4.2,3-7.1,7.9-8,13.1-2.4-4.7-5.2-9.2-8.9-13.1.7,5.5,2.6,10.8,4.8,15.9-4.5.3-9,.9-13.3,2.3,3.8,1.3,7.8,1.9,11.9,2.2-2.3,2.8-4.3,5.8-5.9,9.1,3.9-1.9,7.3-4.5,10.5-7.4,1,8.4,0,17.4-.5,25.8,0,0,5.2,0,5.2,0,.7-8.6.5-17.4-1.6-25.8,2.2,3.3,5.9,5.4,9.9,5.7Z"/>
    <path class="st3" d="M427.2,1673.4c-1.5-3.8-4.6-6.6-8.4-7.8,5-1,9.9-2.5,14.4-5-1.6-.3-3.2-.4-4.8-.5-3.5-.1-6.9.1-10.3.6,3.5-4.1,5.5-9.8,5-15.1-4.2,3-7.1,7.9-8,13.1-2.4-4.7-5.2-9.2-8.9-13.1.7,5.5,2.6,10.8,4.8,15.9-4.5.3-9,.9-13.3,2.3,3.8,1.3,7.8,1.9,11.9,2.2-2.3,2.8-4.3,5.8-5.9,9.1,3.9-1.9,7.3-4.5,10.5-7.4,1,8.4,0,17.4-.5,25.8,0,0,5.2,0,5.2,0,.7-8.6.5-17.4-1.6-25.8,2.2,3.3,5.9,5.4,9.9,5.7Z"/>
    <path class="st3" d="M431.6,1616.5c-1.5-3.8-4.6-6.6-8.4-7.8,5-1,9.9-2.5,14.4-5-1.6-.3-3.2-.4-4.8-.5-3.5-.1-6.9.1-10.3.6,3.5-4.1,5.5-9.8,5-15.1-4.2,3-7.1,7.9-8,13.1-2.4-4.7-5.2-9.2-8.9-13.1.7,5.5,2.6,10.8,4.8,15.9-4.5.3-9,.9-13.3,2.3,3.8,1.3,7.8,1.9,11.9,2.2-2.3,2.8-4.3,5.8-5.9,9.1,3.9-1.9,7.3-4.5,10.5-7.4,1,8.4,0,17.4-.5,25.8,0,0,5.2,0,5.2,0,.7-8.6.5-17.4-1.6-25.8,2.2,3.3,5.9,5.4,9.9,5.7Z"/>
    <path class="st3" d="M372.4,1608.8c-1.5-3.8-4.6-6.6-8.4-7.8,5-1,9.9-2.5,14.4-5-1.6-.3-3.2-.4-4.8-.5-3.5-.1-6.9.1-10.3.6,3.5-4.1,5.5-9.8,5-15.1-4.2,3-7.1,7.9-8,13.1-2.4-4.7-5.2-9.2-8.9-13.1.7,5.5,2.6,10.8,4.8,15.9-4.5.3-9,.9-13.3,2.3,3.8,1.3,7.8,1.9,11.9,2.2-2.3,2.8-4.3,5.8-5.9,9.1,3.9-1.9,7.3-4.5,10.5-7.4,1,8.4,0,17.4-.5,25.8,0,0,5.2,0,5.2,0,.7-8.6.5-17.4-1.6-25.8,2.2,3.3,5.9,5.4,9.9,5.7Z"/>
    <path class="st3" d="M396.2,1644.9c-1.5-3.8-4.6-6.6-8.4-7.8,5-1,9.9-2.5,14.4-5-1.6-.3-3.2-.4-4.8-.5-3.5-.1-6.9.1-10.3.6,3.5-4.1,5.5-9.8,5-15.1-4.2,3-7.1,7.9-8,13.1-2.4-4.7-5.2-9.2-8.9-13.1.7,5.5,2.6,10.8,4.8,15.9-4.5.3-9,.9-13.3,2.3,3.8,1.3,7.8,1.9,11.9,2.2-2.3,2.8-4.3,5.8-5.9,9.1,3.9-1.9,7.3-4.5,10.5-7.4,1,8.4,0,17.4-.5,25.8,0,0,5.2,0,5.2,0,.7-8.6.5-17.4-1.6-25.8,2.2,3.3,5.9,5.4,9.9,5.7Z"/>
    <path class="st3" d="M1868,995.4c-1.5-3.8-4.6-6.6-8.4-7.8,5-1,9.9-2.5,14.4-5-1.6-.3-3.2-.4-4.8-.5-3.5-.1-6.9.1-10.3.6,3.5-4.1,5.5-9.8,5-15.1-4.2,3-7.1,7.9-8,13.1-2.4-4.7-5.2-9.2-8.9-13.1.7,5.5,2.6,10.8,4.8,15.9-4.5.3-9,.9-13.3,2.3,3.8,1.3,7.8,1.9,11.9,2.2-2.3,2.8-4.3,5.8-5.9,9.1,3.9-1.9,7.3-4.5,10.5-7.4,1,8.4,0,17.4-.5,25.8,0,0,5.2,0,5.2,0,.7-8.6.5-17.4-1.6-25.8,2.2,3.3,5.9,5.4,9.9,5.7Z"/>
    <path class="st3" d="M1927.3,1007c-1.5-3.8-4.6-6.6-8.4-7.8,5-1,9.9-2.5,14.4-5-1.6-.3-3.2-.4-4.8-.5-3.5-.1-6.9.1-10.3.6,3.5-4.1,5.5-9.8,5-15.1-4.2,3-7.1,7.9-8,13.1-2.4-4.7-5.2-9.2-8.9-13.1.7,5.5,2.6,10.8,4.8,15.9-4.5.3-9,.9-13.3,2.3,3.8,1.3,7.8,1.9,11.9,2.2-2.3,2.8-4.3,5.8-5.9,9.1,3.9-1.9,7.3-4.5,10.5-7.4,1,8.4,0,17.4-.5,25.8,0,0,5.2,0,5.2,0,.7-8.6.5-17.4-1.6-25.8,2.2,3.3,5.9,5.4,9.9,5.7Z"/>
    <path class="st3" d="M1931.8,950.1c-1.5-3.8-4.6-6.6-8.4-7.8,5-1,9.9-2.5,14.4-5-1.6-.3-3.2-.4-4.8-.5-3.5-.1-6.9.1-10.3.6,3.5-4.1,5.5-9.8,5-15.1-4.2,3-7.1,7.9-8,13.1-2.4-4.7-5.2-9.2-8.9-13.1.7,5.5,2.6,10.8,4.8,15.9-4.5.3-9,.9-13.3,2.3,3.8,1.3,7.8,1.9,11.9,2.2-2.3,2.8-4.3,5.8-5.9,9.1,3.9-1.9,7.3-4.5,10.5-7.4,1,8.4,0,17.4-.5,25.8,0,0,5.2,0,5.2,0,.7-8.6.5-17.4-1.6-25.8,2.2,3.3,5.9,5.4,9.9,5.7Z"/>
    <path class="st3" d="M1872.5,942.3c-1.5-3.8-4.6-6.6-8.4-7.8,5-1,9.9-2.5,14.4-5-1.6-.3-3.2-.4-4.8-.5-3.5-.1-6.9.1-10.3.6,3.5-4.1,5.5-9.8,5-15.1-4.2,3-7.1,7.9-8,13.1-2.4-4.7-5.2-9.2-8.9-13.1.7,5.5,2.6,10.8,4.8,15.9-4.5.3-9,.9-13.3,2.3,3.8,1.3,7.8,1.9,11.9,2.2-2.3,2.8-4.3,5.8-5.9,9.1,3.9-1.9,7.3-4.5,10.5-7.4,1,8.4,0,17.4-.5,25.8,0,0,5.2,0,5.2,0,.7-8.6.5-17.4-1.6-25.8,2.2,3.3,5.9,5.4,9.9,5.7Z"/>
    <path class="st3" d="M1896.3,978.4c-1.5-3.8-4.6-6.6-8.4-7.8,5-1,9.9-2.5,14.4-5-1.6-.3-3.2-.4-4.8-.5-3.5-.1-6.9.1-10.3.6,3.5-4.1,5.5-9.8,5-15.1-4.2,3-7.1,7.9-8,13.1-2.4-4.7-5.2-9.2-8.9-13.1.7,5.5,2.6,10.8,4.8,15.9-4.5.3-9,.9-13.3,2.3,3.8,1.3,7.8,1.9,11.9,2.2-2.3,2.8-4.3,5.8-5.9,9.1,3.9-1.9,7.3-4.5,10.5-7.4,1,8.4,0,17.4-.5,25.8,0,0,5.2,0,5.2,0,.7-8.6.5-17.4-1.6-25.8,2.2,3.3,5.9,5.4,9.9,5.7Z"/>
    <path class="st3" d="M1820.6,1112.2c-1.5-3.8-4.6-6.6-8.4-7.8,5-1,9.9-2.5,14.4-5-1.6-.3-3.2-.4-4.8-.5-3.5-.1-6.9.1-10.3.6,3.5-4.1,5.5-9.8,5-15.1-4.2,3-7.1,7.9-8,13.1-2.4-4.7-5.2-9.2-8.9-13.1.7,5.5,2.6,10.8,4.8,15.9-4.5.3-9,.9-13.3,2.3,3.8,1.3,7.8,1.9,11.9,2.2-2.3,2.8-4.3,5.8-5.9,9.1,3.9-1.9,7.3-4.5,10.5-7.4,1,8.4,0,17.4-.5,25.8,0,0,5.2,0,5.2,0,.7-8.6.5-17.4-1.6-25.8,2.2,3.3,5.9,5.4,9.9,5.7Z"/>
    <path class="st3" d="M1879.9,1123.8c-1.5-3.8-4.6-6.6-8.4-7.8,5-1,9.9-2.5,14.4-5-1.6-.3-3.2-.4-4.8-.5-3.5-.1-6.9.1-10.3.6,3.5-4.1,5.5-9.8,5-15.1-4.2,3-7.1,7.9-8,13.1-2.4-4.7-5.2-9.2-8.9-13.1.7,5.5,2.6,10.8,4.8,15.9-4.5.3-9,.9-13.3,2.3,3.8,1.3,7.8,1.9,11.9,2.2-2.3,2.8-4.3,5.8-5.9,9.1,3.9-1.9,7.3-4.5,10.5-7.4,1,8.4,0,17.4-.5,25.8,0,0,5.2,0,5.2,0,.7-8.6.5-17.4-1.6-25.8,2.2,3.3,5.9,5.4,9.9,5.7Z"/>
    <path class="st3" d="M1825.1,1059.1c-1.5-3.8-4.6-6.6-8.4-7.8,5-1,9.9-2.5,14.4-5-1.6-.3-3.2-.4-4.8-.5-3.5-.1-6.9.1-10.3.6,3.5-4.1,5.5-9.8,5-15.1-4.2,3-7.1,7.9-8,13.1-2.4-4.7-5.2-9.2-8.9-13.1.7,5.5,2.6,10.8,4.8,15.9-4.5.3-9,.9-13.3,2.3,3.8,1.3,7.8,1.9,11.9,2.2-2.3,2.8-4.3,5.8-5.9,9.1,3.9-1.9,7.3-4.5,10.5-7.4,1,8.4,0,17.4-.5,25.8,0,0,5.2,0,5.2,0,.7-8.6.5-17.4-1.6-25.8,2.2,3.3,5.9,5.4,9.9,5.7Z"/>
    <path class="st3" d="M1848.9,1095.2c-1.5-3.8-4.6-6.6-8.4-7.8,5-1,9.9-2.5,14.4-5-1.6-.3-3.2-.4-4.8-.5-3.5-.1-6.9.1-10.3.6,3.5-4.1,5.5-9.8,5-15.1-4.2,3-7.1,7.9-8,13.1-2.4-4.7-5.2-9.2-8.9-13.1.7,5.5,2.6,10.8,4.8,15.9-4.5.3-9,.9-13.3,2.3,3.8,1.3,7.8,1.9,11.9,2.2-2.3,2.8-4.3,5.8-5.9,9.1,3.9-1.9,7.3-4.5,10.5-7.4,1,8.4,0,17.4-.5,25.8,0,0,5.2,0,5.2,0,.7-8.6.5-17.4-1.6-25.8,2.2,3.3,5.9,5.4,9.9,5.7Z"/>
    <path class="st3" d="M517.4,1707.1c-1.5-3.8-4.6-6.6-8.4-7.8,5-1,9.9-2.5,14.4-5-1.6-.3-3.2-.4-4.8-.5-3.5-.1-6.9.1-10.3.6,3.5-4.1,5.5-9.8,5-15.1-4.2,3-7.1,7.9-8,13.1-2.4-4.7-5.2-9.2-8.9-13.1.7,5.5,2.6,10.8,4.8,15.9-4.5.3-9,.9-13.3,2.3,3.8,1.3,7.8,1.9,11.9,2.2-2.3,2.8-4.3,5.8-5.9,9.1,3.9-1.9,7.3-4.5,10.5-7.4,1,8.4,0,17.4-.5,25.8,0,0,5.2,0,5.2,0,.7-8.6.5-17.4-1.6-25.8,2.2,3.3,5.9,5.4,9.9,5.7Z"/>
    <path class="st3" d="M458.1,1699.4c-1.5-3.8-4.6-6.6-8.4-7.8,5-1,9.9-2.5,14.4-5-1.6-.3-3.2-.4-4.8-.5-3.5-.1-6.9.1-10.3.6,3.5-4.1,5.5-9.8,5-15.1-4.2,3-7.1,7.9-8,13.1-2.4-4.7-5.2-9.2-8.9-13.1.7,5.5,2.6,10.8,4.8,15.9-4.5.3-9,.9-13.3,2.3,3.8,1.3,7.8,1.9,11.9,2.2-2.3,2.8-4.3,5.8-5.9,9.1,3.9-1.9,7.3-4.5,10.5-7.4,1,8.4,0,17.4-.5,25.8,0,0,5.2,0,5.2,0,.7-8.6.5-17.4-1.6-25.8,2.2,3.3,5.9,5.4,9.9,5.7Z"/>
    <path class="st3" d="M482,1735.5c-1.5-3.8-4.6-6.6-8.4-7.8,5-1,9.9-2.5,14.4-5-1.6-.3-3.2-.4-4.8-.5-3.5-.1-6.9.1-10.3.6,3.5-4.1,5.5-9.8,5-15.1-4.2,3-7.1,7.9-8,13.1-2.4-4.7-5.2-9.2-8.9-13.1.7,5.5,2.6,10.8,4.8,15.9-4.5.3-9,.9-13.3,2.3,3.8,1.3,7.8,1.9,11.9,2.2-2.3,2.8-4.3,5.8-5.9,9.1,3.9-1.9,7.3-4.5,10.5-7.4,1,8.4,0,17.4-.5,25.8,0,0,5.2,0,5.2,0,.7-8.6.5-17.4-1.6-25.8,2.2,3.3,5.9,5.4,9.9,5.7Z"/>
    <path class="st3" d="M317.6,1661.9c-1.5-3.8-4.6-6.6-8.4-7.8,5-1,9.9-2.5,14.4-5-1.6-.3-3.2-.4-4.8-.5-3.5-.1-6.9.1-10.3.6,3.5-4.1,5.5-9.8,5-15.1-4.2,3-7.1,7.9-8,13.1-2.4-4.7-5.2-9.2-8.9-13.1.7,5.5,2.6,10.8,4.8,15.9-4.5.3-9,.9-13.3,2.3,3.8,1.3,7.8,1.9,11.9,2.2-2.3,2.8-4.3,5.8-5.9,9.1,3.9-1.9,7.3-4.5,10.5-7.4,1,8.4,0,17.4-.5,25.8,0,0,5.2,0,5.2,0,.7-8.6.5-17.4-1.6-25.8,2.2,3.3,5.9,5.4,9.9,5.7Z"/>
    <path class="st3" d="M242.2,947.6c-1.5-3.8-4.6-6.6-8.4-7.8,5-1,9.9-2.5,14.4-5-1.6-.3-3.2-.4-4.8-.5-3.5-.1-6.9.1-10.3.6,3.5-4.1,5.5-9.8,5-15.1-4.2,3-7.1,7.9-8,13.1-2.4-4.7-5.2-9.2-8.9-13.1.7,5.5,2.6,10.8,4.8,15.9-4.5.3-9,.9-13.3,2.3,3.8,1.3,7.8,1.9,11.9,2.2-2.3,2.8-4.3,5.8-5.9,9.1,3.9-1.9,7.3-4.5,10.5-7.4,1,8.4,0,17.4-.5,25.8,0,0,5.2,0,5.2,0,.7-8.6.5-17.4-1.6-25.8,2.2,3.3,5.9,5.4,9.9,5.7Z"/>
    <path class="st3" d="M268.6,984.5c-1.5-3.8-4.6-6.6-8.4-7.8,5-1,9.9-2.5,14.4-5-1.6-.3-3.2-.4-4.8-.5-3.5-.1-6.9.1-10.3.6,3.5-4.1,5.5-9.8,5-15.1-4.2,3-7.1,7.9-8,13.1-2.4-4.7-5.2-9.2-8.9-13.1.7,5.5,2.6,10.8,4.8,15.9-4.5.3-9,.9-13.3,2.3,3.8,1.3,7.8,1.9,11.9,2.2-2.3,2.8-4.3,5.8-5.9,9.1,3.9-1.9,7.3-4.5,10.5-7.4,1,8.4,0,17.4-.5,25.8,0,0,5.2,0,5.2,0,.7-8.6.5-17.4-1.6-25.8,2.2,3.3,5.9,5.4,9.9,5.7Z"/>
    <path class="st3" d="M327.9,996.1c-1.5-3.8-4.6-6.6-8.4-7.8,5-1,9.9-2.5,14.4-5-1.6-.3-3.2-.4-4.8-.5-3.5-.1-6.9.1-10.3.6,3.5-4.1,5.5-9.8,5-15.1-4.2,3-7.1,7.9-8,13.1-2.4-4.7-5.2-9.2-8.9-13.1.7,5.5,2.6,10.8,4.8,15.9-4.5.3-9,.9-13.3,2.3,3.8,1.3,7.8,1.9,11.9,2.2-2.3,2.8-4.3,5.8-5.9,9.1,3.9-1.9,7.3-4.5,10.5-7.4,1,8.4,0,17.4-.5,25.8,0,0,5.2,0,5.2,0,.7-8.6.5-17.4-1.6-25.8,2.2,3.3,5.9,5.4,9.9,5.7Z"/>
    <path class="st3" d="M332.4,939.2c-1.5-3.8-4.6-6.6-8.4-7.8,5-1,9.9-2.5,14.4-5-1.6-.3-3.2-.4-4.8-.5-3.5-.1-6.9.1-10.3.6,3.5-4.1,5.5-9.8,5-15.1-4.2,3-7.1,7.9-8,13.1-2.4-4.7-5.2-9.2-8.9-13.1.7,5.5,2.6,10.8,4.8,15.9-4.5.3-9,.9-13.3,2.3,3.8,1.3,7.8,1.9,11.9,2.2-2.3,2.8-4.3,5.8-5.9,9.1,3.9-1.9,7.3-4.5,10.5-7.4,1,8.4,0,17.4-.5,25.8,0,0,5.2,0,5.2,0,.7-8.6.5-17.4-1.6-25.8,2.2,3.3,5.9,5.4,9.9,5.7Z"/>
    <path class="st3" d="M273.1,931.5c-1.5-3.8-4.6-6.6-8.4-7.8,5-1,9.9-2.5,14.4-5-1.6-.3-3.2-.4-4.8-.5-3.5-.1-6.9.1-10.3.6,3.5-4.1,5.5-9.8,5-15.1-4.2,3-7.1,7.9-8,13.1-2.4-4.7-5.2-9.2-8.9-13.1.7,5.5,2.6,10.8,4.8,15.9-4.5.3-9,.9-13.3,2.3,3.8,1.3,7.8,1.9,11.9,2.2-2.3,2.8-4.3,5.8-5.9,9.1,3.9-1.9,7.3-4.5,10.5-7.4,1,8.4,0,17.4-.5,25.8,0,0,5.2,0,5.2,0,.7-8.6.5-17.4-1.6-25.8,2.2,3.3,5.9,5.4,9.9,5.7Z"/>
    <path class="st3" d="M296.9,967.6c-1.5-3.8-4.6-6.6-8.4-7.8,5-1,9.9-2.5,14.4-5-1.6-.3-3.2-.4-4.8-.5-3.5-.1-6.9.1-10.3.6,3.5-4.1,5.5-9.8,5-15.1-4.2,3-7.1,7.9-8,13.1-2.4-4.7-5.2-9.2-8.9-13.1.7,5.5,2.6,10.8,4.8,15.9-4.5.3-9,.9-13.3,2.3,3.8,1.3,7.8,1.9,11.9,2.2-2.3,2.8-4.3,5.8-5.9,9.1,3.9-1.9,7.3-4.5,10.5-7.4,1,8.4,0,17.4-.5,25.8,0,0,5.2,0,5.2,0,.7-8.6.5-17.4-1.6-25.8,2.2,3.3,5.9,5.4,9.9,5.7Z"/>
    <path class="st3" d="M391.7,841.3c-1.5-3.8-4.6-6.6-8.4-7.8,5-1,9.9-2.5,14.4-5-1.6-.3-3.2-.4-4.8-.5-3.5-.1-6.9.1-10.3.6,3.5-4.1,5.5-9.8,5-15.1-4.2,3-7.1,7.9-8,13.1-2.4-4.7-5.2-9.2-8.9-13.1.7,5.5,2.6,10.8,4.8,15.9-4.5.3-9,.9-13.3,2.3,3.8,1.3,7.8,1.9,11.9,2.2-2.3,2.8-4.3,5.8-5.9,9.1,3.9-1.9,7.3-4.5,10.5-7.4,1,8.4,0,17.4-.5,25.8,0,0,5.2,0,5.2,0,.7-8.6.5-17.4-1.6-25.8,2.2,3.3,5.9,5.4,9.9,5.7Z"/>
    <path class="st3" d="M332.4,833.5c-1.5-3.8-4.6-6.6-8.4-7.8,5-1,9.9-2.5,14.4-5-1.6-.3-3.2-.4-4.8-.5-3.5-.1-6.9.1-10.3.6,3.5-4.1,5.5-9.8,5-15.1-4.2,3-7.1,7.9-8,13.1-2.4-4.7-5.2-9.2-8.9-13.1.7,5.5,2.6,10.8,4.8,15.9-4.5.3-9,.9-13.3,2.3,3.8,1.3,7.8,1.9,11.9,2.2-2.3,2.8-4.3,5.8-5.9,9.1,3.9-1.9,7.3-4.5,10.5-7.4,1,8.4,0,17.4-.5,25.8,0,0,5.2,0,5.2,0,.7-8.6.5-17.4-1.6-25.8,2.2,3.3,5.9,5.4,9.9,5.7Z"/>
    <path class="st3" d="M356.2,869.6c-1.5-3.8-4.6-6.6-8.4-7.8,5-1,9.9-2.5,14.4-5-1.6-.3-3.2-.4-4.8-.5-3.5-.1-6.9.1-10.3.6,3.5-4.1,5.5-9.8,5-15.1-4.2,3-7.1,7.9-8,13.1-2.4-4.7-5.2-9.2-8.9-13.1.7,5.5,2.6,10.8,4.8,15.9-4.5.3-9,.9-13.3,2.3,3.8,1.3,7.8,1.9,11.9,2.2-2.3,2.8-4.3,5.8-5.9,9.1,3.9-1.9,7.3-4.5,10.5-7.4,1,8.4,0,17.4-.5,25.8,0,0,5.2,0,5.2,0,.7-8.6.5-17.4-1.6-25.8,2.2,3.3,5.9,5.4,9.9,5.7Z"/>
    <path class="st3" d="M218.3,984.5c-1.5-3.8-4.6-6.6-8.4-7.8,5-1,9.9-2.5,14.4-5-1.6-.3-3.2-.4-4.8-.5-3.5-.1-6.9.1-10.3.6,3.5-4.1,5.5-9.8,5-15.1-4.2,3-7.1,7.9-8,13.1-2.4-4.7-5.2-9.2-8.9-13.1.7,5.5,2.6,10.8,4.8,15.9-4.5.3-9,.9-13.3,2.3,3.8,1.3,7.8,1.9,11.9,2.2-2.3,2.8-4.3,5.8-5.9,9.1,3.9-1.9,7.3-4.5,10.5-7.4,1,8.4,0,17.4-.5,25.8,0,0,5.2,0,5.2,0,.7-8.6.5-17.4-1.6-25.8,2.2,3.3,5.9,5.4,9.9,5.7Z"/>
    <path class="st3" d="M1414.1,1856.7c-1.5-3.8-4.6-6.6-8.4-7.8,5-1,9.9-2.5,14.4-5-1.6-.3-3.2-.4-4.8-.5-3.5-.1-6.9.1-10.3.6,3.5-4.1,5.5-9.8,5-15.1-4.2,3-7.1,7.9-8,13.1-2.4-4.7-5.2-9.2-8.9-13.1.7,5.5,2.6,10.8,4.8,15.9-4.5.3-9,.9-13.3,2.3,3.8,1.3,7.8,1.9,11.9,2.2-2.3,2.8-4.3,5.8-5.9,9.1,3.9-1.9,7.3-4.5,10.5-7.4,1,8.4,0,17.4-.5,25.8,0,0,5.2,0,5.2,0,.7-8.6.5-17.4-1.6-25.8,2.2,3.3,5.9,5.4,9.9,5.7Z"/>
    <path class="st3" d="M1440.5,1893.7c-1.5-3.8-4.6-6.6-8.4-7.8,5-1,9.9-2.5,14.4-5-1.6-.3-3.2-.4-4.8-.5-3.5-.1-6.9.1-10.3.6,3.5-4.1,5.5-9.8,5-15.1-4.2,3-7.1,7.9-8,13.1-2.4-4.7-5.2-9.2-8.9-13.1.7,5.5,2.6,10.8,4.8,15.9-4.5.3-9,.9-13.3,2.3,3.8,1.3,7.8,1.9,11.9,2.2-2.3,2.8-4.3,5.8-5.9,9.1,3.9-1.9,7.3-4.5,10.5-7.4,1,8.4,0,17.4-.5,25.8,0,0,5.2,0,5.2,0,.7-8.6.5-17.4-1.6-25.8,2.2,3.3,5.9,5.4,9.9,5.7Z"/>
    <path class="st3" d="M1499.8,1905.3c-1.5-3.8-4.6-6.6-8.4-7.8,5-1,9.9-2.5,14.4-5-1.6-.3-3.2-.4-4.8-.5-3.5-.1-6.9.1-10.3.6,3.5-4.1,5.5-9.8,5-15.1-4.2,3-7.1,7.9-8,13.1-2.4-4.7-5.2-9.2-8.9-13.1.7,5.5,2.6,10.8,4.8,15.9-4.5.3-9,.9-13.3,2.3,3.8,1.3,7.8,1.9,11.9,2.2-2.3,2.8-4.3,5.8-5.9,9.1,3.9-1.9,7.3-4.5,10.5-7.4,1,8.4,0,17.4-.5,25.8,0,0,5.2,0,5.2,0,.7-8.6.5-17.4-1.6-25.8,2.2,3.3,5.9,5.4,9.9,5.7Z"/>
    <path class="st3" d="M1504.3,1848.3c-1.5-3.8-4.6-6.6-8.4-7.8,5-1,9.9-2.5,14.4-5-1.6-.3-3.2-.4-4.8-.5-3.5-.1-6.9.1-10.3.6,3.5-4.1,5.5-9.8,5-15.1-4.2,3-7.1,7.9-8,13.1-2.4-4.7-5.2-9.2-8.9-13.1.7,5.5,2.6,10.8,4.8,15.9-4.5.3-9,.9-13.3,2.3,3.8,1.3,7.8,1.9,11.9,2.2-2.3,2.8-4.3,5.8-5.9,9.1,3.9-1.9,7.3-4.5,10.5-7.4,1,8.4,0,17.4-.5,25.8,0,0,5.2,0,5.2,0,.7-8.6.5-17.4-1.6-25.8,2.2,3.3,5.9,5.4,9.9,5.7Z"/>
    <path class="st3" d="M1445,1840.6c-1.5-3.8-4.6-6.6-8.4-7.8,5-1,9.9-2.5,14.4-5-1.6-.3-3.2-.4-4.8-.5-3.5-.1-6.9.1-10.3.6,3.5-4.1,5.5-9.8,5-15.1-4.2,3-7.1,7.9-8,13.1-2.4-4.7-5.2-9.2-8.9-13.1.7,5.5,2.6,10.8,4.8,15.9-4.5.3-9,.9-13.3,2.3,3.8,1.3,7.8,1.9,11.9,2.2-2.3,2.8-4.3,5.8-5.9,9.1,3.9-1.9,7.3-4.5,10.5-7.4,1,8.4,0,17.4-.5,25.8,0,0,5.2,0,5.2,0,.7-8.6.5-17.4-1.6-25.8,2.2,3.3,5.9,5.4,9.9,5.7Z"/>
    <path class="st3" d="M1468.8,1876.7c-1.5-3.8-4.6-6.6-8.4-7.8,5-1,9.9-2.5,14.4-5-1.6-.3-3.2-.4-4.8-.5-3.5-.1-6.9.1-10.3.6,3.5-4.1,5.5-9.8,5-15.1-4.2,3-7.1,7.9-8,13.1-2.4-4.7-5.2-9.2-8.9-13.1.7,5.5,2.6,10.8,4.8,15.9-4.5.3-9,.9-13.3,2.3,3.8,1.3,7.8,1.9,11.9,2.2-2.3,2.8-4.3,5.8-5.9,9.1,3.9-1.9,7.3-4.5,10.5-7.4,1,8.4,0,17.4-.5,25.8,0,0,5.2,0,5.2,0,.7-8.6.5-17.4-1.6-25.8,2.2,3.3,5.9,5.4,9.9,5.7Z"/>
    <path class="st3" d="M1468.2,2019.1c-1.5-3.8-4.6-6.6-8.4-7.8,5-1,9.9-2.5,14.4-5-1.6-.3-3.2-.4-4.8-.5-3.5-.1-6.9.1-10.3.6,3.5-4.1,5.5-9.8,5-15.1-4.2,3-7.1,7.9-8,13.1-2.4-4.7-5.2-9.2-8.9-13.1.7,5.5,2.6,10.8,4.8,15.9-4.5.3-9,.9-13.3,2.3,3.8,1.3,7.8,1.9,11.9,2.2-2.3,2.8-4.3,5.8-5.9,9.1,3.9-1.9,7.3-4.5,10.5-7.4,1,8.4,0,17.4-.5,25.8,0,0,5.2,0,5.2,0,.7-8.6.5-17.4-1.6-25.8,2.2,3.3,5.9,5.4,9.9,5.7Z"/>
    <path class="st3" d="M1472.7,1962.2c-1.5-3.8-4.6-6.6-8.4-7.8,5-1,9.9-2.5,14.4-5-1.6-.3-3.2-.4-4.8-.5-3.5-.1-6.9.1-10.3.6,3.5-4.1,5.5-9.8,5-15.1-4.2,3-7.1,7.9-8,13.1-2.4-4.7-5.2-9.2-8.9-13.1.7,5.5,2.6,10.8,4.8,15.9-4.5.3-9,.9-13.3,2.3,3.8,1.3,7.8,1.9,11.9,2.2-2.3,2.8-4.3,5.8-5.9,9.1,3.9-1.9,7.3-4.5,10.5-7.4,1,8.4,0,17.4-.5,25.8,0,0,5.2,0,5.2,0,.7-8.6.5-17.4-1.6-25.8,2.2,3.3,5.9,5.4,9.9,5.7Z"/>
    <path class="st3" d="M1437.2,1990.5c-1.5-3.8-4.6-6.6-8.4-7.8,5-1,9.9-2.5,14.4-5-1.6-.3-3.2-.4-4.8-.5-3.5-.1-6.9.1-10.3.6,3.5-4.1,5.5-9.8,5-15.1-4.2,3-7.1,7.9-8,13.1-2.4-4.7-5.2-9.2-8.9-13.1.7,5.5,2.6,10.8,4.8,15.9-4.5.3-9,.9-13.3,2.3,3.8,1.3,7.8,1.9,11.9,2.2-2.3,2.8-4.3,5.8-5.9,9.1,3.9-1.9,7.3-4.5,10.5-7.4,1,8.4,0,17.4-.5,25.8,0,0,5.2,0,5.2,0,.7-8.6.5-17.4-1.6-25.8,2.2,3.3,5.9,5.4,9.9,5.7Z"/>
    <path class="st3" d="M1390.2,1893.7c-1.5-3.8-4.6-6.6-8.4-7.8,5-1,9.9-2.5,14.4-5-1.6-.3-3.2-.4-4.8-.5-3.5-.1-6.9.1-10.3.6,3.5-4.1,5.5-9.8,5-15.1-4.2,3-7.1,7.9-8,13.1-2.4-4.7-5.2-9.2-8.9-13.1.7,5.5,2.6,10.8,4.8,15.9-4.5.3-9,.9-13.3,2.3,3.8,1.3,7.8,1.9,11.9,2.2-2.3,2.8-4.3,5.8-5.9,9.1,3.9-1.9,7.3-4.5,10.5-7.4,1,8.4,0,17.4-.5,25.8,0,0,5.2,0,5.2,0,.7-8.6.5-17.4-1.6-25.8,2.2,3.3,5.9,5.4,9.9,5.7Z"/>
    <g>
      <path class="st7" d="M1563.2,355c3.9,3.1,7.7,6.4,11.3,9.8,0,0,0,.2,0,.3,0,0-.2,0-.3,0,0,0,0,0,0,0-3.5-3.6-7.2-7-11-10.2Z"/>
      <path class="st7" d="M1594.1,387.6c5.8,8.2,10.7,17.1,14.6,26.3.2.6,0,1.2-.6,1.5s-1.2,0-1.5-.6c0,0,0,0,0,0-3.6-9.2-8.3-18.1-13.7-26.4-.2-.3-.1-.8.2-1,.3-.2.7-.1,1,.2Z"/>
      <path class="st7" d="M1617.3,442.9c1.7,10,2.2,20.2,1.3,30.3,0,1-1,1.8-2,1.7-1,0-1.8-1-1.7-2,0,0,0,0,0,0,1-9.8.8-19.7-.6-29.5-.1-.8.5-1.6,1.3-1.7.8-.1,1.6.4,1.7,1.2Z"/>
      <path class="st7" d="M1612.9,503c-2.8,9.7-6.6,19.3-12,28.1-.7,1.2-2.3,1.6-3.5.8-1.2-.7-1.6-2.3-.8-3.5,0,0,0,0,0,0h0c5.3-8.1,9.1-17.3,12.1-26.6h0c.4-1.2,1.6-1.8,2.8-1.5,1.1.4,1.8,1.6,1.5,2.7Z"/>
      <path class="st7" d="M1578.9,553c-2.4,1.2-4.7,2.4-7.2,3.3-2.5.9-5.1,1.6-7.7,2.1-5.3,1-10.7,1-15.9.2-1.7-.3-2.8-1.8-2.6-3.5.3-1.7,1.8-2.8,3.5-2.6,0,0,0,0,0,0,4.6.8,9.3.9,13.9.1,2.3-.4,4.6-1,6.8-1.7,2.2-.7,4.3-1.8,6.4-2.8h.3c1.4-.8,3.1-.2,3.8,1.2.7,1.4,0,3-1.3,3.7Z"/>
      <path class="st7" d="M1519.1,547.7c-8.9-4.9-17.3-10.4-25.7-15.8-1.7-1.1-2.1-3.3-1.1-5,1.1-1.7,3.3-2.1,5-1.1,0,0,0,0,0,0h0c8.3,5.6,16.5,11.2,25,16h0c1.6.9,2.2,3,1.2,4.6-.9,1.6-2.9,2.1-4.5,1.3Z"/>
      <path class="st7" d="M1468.1,516c-8.5-5-17.3-9.6-26.3-13.4-2-.9-3-3.2-2.1-5.3s3.2-3,5.3-2.1c0,0,0,0,0,0,9.3,4.1,18.3,9,27,14.2,1.8,1.1,2.4,3.4,1.3,5.2-1.1,1.8-3.4,2.4-5.2,1.3Z"/>
      <path class="st7" d="M1414.1,493.5c-9.5-2.2-19.1-3.4-28.8-3.6-2.4,0-4.3-2.1-4.3-4.5,0-2.4,2.1-4.3,4.5-4.3,0,0,0,0,0,0,10.3.4,20.5,1.8,30.5,4.2,2.2.5,3.6,2.8,3.1,5.1-.5,2.2-2.8,3.6-5,3.1Z"/>
      <path class="st7" d="M1356.6,492.8c-9.4,2.2-18.6,5.5-27.6,9.3-2.4,1-5.1,0-6.2-2.5-1-2.4,0-5.1,2.5-6.2h0c9.4-3.9,19.1-7.3,29.2-9.5,2.5-.5,4.9,1,5.4,3.5.5,2.4-1,4.8-3.4,5.4Z"/>
      <path class="st7" d="M1302.2,514.9l-26.3,14.1h0c-2.4,1.3-5.4.4-6.7-2-1.3-2.4-.4-5.4,2-6.7h0s26.6-14,26.6-14c2.3-1.2,5.3-.3,6.5,2,1.2,2.3.3,5.2-2,6.5h-.1Z"/>
      <path class="st7" d="M1249.6,543.4l-26.1,14.6h0c-2.5,1.4-5.6.5-7-1.9-1.4-2.5-.5-5.6,2-7h0s26.3-14.5,26.3-14.5c2.4-1.3,5.5-.4,6.8,2,1.3,2.4.5,5.5-2,6.8h0Z"/>
      <path class="st7" d="M1197.8,573.1c-8.5,5.2-16.8,10.5-24.9,16.1-2.4,1.7-5.7,1.1-7.4-1.3-1.7-2.4-1.1-5.7,1.3-7.4h0c8.3-5.8,16.9-11.2,25.5-16.4,2.5-1.5,5.7-.7,7.2,1.8,1.5,2.5.7,5.7-1.8,7.2Z"/>
      <path class="st7" d="M1149.7,607.2c-7.3,6.4-14.2,13.3-20.1,20.9-1.8,2.3-5.2,2.7-7.5.9-2.3-1.8-2.7-5.2-.9-7.5h0c6.5-8.2,13.8-15.5,21.5-22.2,2.2-1.9,5.6-1.7,7.5.5,1.9,2.2,1.7,5.6-.5,7.5Z"/>
      <path class="st7" d="M1115,652.5c-1.8,4.4-3.4,8.8-4.5,13.4-1.2,4.6-2,9.2-2.3,13.7-.1,3-2.7,5.3-5.7,5.2-3-.1-5.3-2.7-5.2-5.7h0c.1-2.8.5-5.5.9-8.1.5-2.6,1-5.2,1.7-7.8,1.3-5.1,3-10.1,5.1-14.9,1.2-2.7,4.3-4,7.1-2.9s4,4.3,2.9,7.1h0Z"/>
      <path class="st7" d="M1113.3,706.9l10.1,28.1h0c1,2.9-.5,6-3.3,7s-6-.5-7-3.3h0s-10.1-28.3-10.1-28.3c-1-2.8.5-6,3.3-7s6,.5,7,3.3v.2Z"/>
      <path class="st7" d="M1133.2,763.4l9.1,28.7c.9,2.8-.7,5.9-3.5,6.8s-5.9-.7-6.8-3.5h0c0-.1-9.1-28.5-9.1-28.5h0c-.9-3,.7-6.1,3.5-7,2.9-.9,5.9.7,6.8,3.5h0Z"/>
      <path class="st7" d="M1150.8,821l7.9,29c.8,2.8-.9,5.8-3.7,6.6s-5.8-.9-6.6-3.7h0c0,0-7.9-28.9-7.9-28.9h0c-.8-3,.9-5.9,3.8-6.7,2.9-.8,5.8.9,6.6,3.8h0Z"/>
      <path class="st7" d="M1166.1,879.2l6.7,29.4c.6,2.8-1.1,5.7-4,6.3-2.8.6-5.7-1.1-6.3-4h0c0-.1-6.7-29.2-6.7-29.2h0c-.7-3,1.1-5.8,4-6.5,2.9-.7,5.7,1.1,6.4,4h0Z"/>
      <path class="st7" d="M1178.5,938.2c.9,5,1.7,9.9,2.5,14.9l1.1,7.5,1,7.5c.4,2.8-1.6,5.3-4.3,5.7-2.7.4-5.3-1.5-5.7-4.3h0s-1.1-7.4-1.1-7.4l-1.1-7.3c-.8-4.9-1.6-9.8-2.5-14.7-.5-2.8,1.3-5.5,4.1-6s5.5,1.3,6,4.1h0Z"/>
      <path class="st7" d="M1186.9,997.8l3.2,30c.3,2.6-1.6,5-4.3,5.3-2.6.3-5-1.6-5.3-4.2v-.2s-3.4-29.6-3.4-29.6h0c-.3-2.8,1.6-5.3,4.3-5.6,2.7-.3,5.1,1.6,5.5,4.3h0Z"/>
      <path class="st7" d="M1191.9,1058.1c.2,10.1,0,20.4-1.3,30.6-.3,2.5-2.6,4.3-5.1,4-2.5-.3-4.3-2.5-4-5h0c1.1-9.7,1.3-19.5,1-29.3h0c0-2.6,2-4.8,4.6-4.8,2.6,0,4.8,2,4.8,4.6h0Z"/>
      <path class="st7" d="M1183,1118.8c-2,4.9-4.4,9.6-7.4,14-2.9,4.4-6.3,8.5-10.1,12.2h0c-1.7,1.6-4.3,1.6-5.9,0-1.6-1.7-1.6-4.3,0-5.9,6.7-6.6,11.8-14.7,15.3-23.5.9-2.3,3.4-3.4,5.7-2.5,2.3.9,3.4,3.4,2.5,5.7,0,0,0,0,0,0h0Z"/>
      <path class="st7" d="M1137.8,1160.1c-9.7,3.2-19.5,5.7-29.2,8.1-2.1.5-4.1-.8-4.6-2.8-.5-2,.7-4.1,2.8-4.6h0c9.6-2.5,19.2-5,28.5-8.2h0c2.1-.7,4.4.4,5.1,2.5.7,2.1-.4,4.4-2.5,5.1,0,0,0,0,0,0Z"/>
      <path class="st7" d="M1079.3,1175l-29.5,6.1c-1.8.4-3.6-.8-4-2.6-.4-1.8.8-3.5,2.5-3.9h.1s29.1-6.6,29.1-6.6h.1c1.9-.5,3.9.8,4.3,2.7.4,1.9-.8,3.9-2.7,4.3,0,0,0,0,0,0Z"/>
      <path class="st7" d="M1020.1,1185.9l-29.8,3.8c-1.6.2-3-.9-3.2-2.5-.2-1.5.9-2.9,2.4-3.2h0s29.6-4.3,29.6-4.3h0c1.7-.3,3.3.9,3.5,2.6.2,1.7-.9,3.3-2.6,3.5,0,0,0,0,0,0Z"/>
      <path class="st7" d="M961,1194.6c-9.5,2.3-18.9,5.6-27.8,9.8-1.1.5-2.4,0-2.9-1.1-.5-1.1,0-2.4,1-2.9,9.1-4.4,18.6-8,28.5-10.7,1.4-.4,2.7.4,3.1,1.8.4,1.4-.4,2.7-1.8,3.1,0,0,0,0,0,0Z"/>
      <path class="st7" d="M907.4,1218.8c-8.2,5.5-16.1,11.6-23.5,18.2-.6.6-1.6.5-2.2-.1-.5-.6-.5-1.6.1-2.1,7.4-6.8,15.2-13.2,23.4-19,.9-.6,2-.4,2.6.5s.4,2-.5,2.6c0,0,0,0,0,0Z"/>
      <path class="st7" d="M862.5,1257.8c-6.8,7.3-13.2,14.9-19.4,22.8-.2.3-.7.4-1,.1-.3-.2-.4-.7-.1-1,5.9-8.1,12.2-15.9,18.8-23.4.4-.5,1.1-.5,1.6-.1.5.4.5,1.1.1,1.6,0,0,0,0,0,0Z"/>
      <path class="st7" d="M825.4,1304.8l-8.3,12.5,7.9-12.8c0-.1.2-.1.3,0,.1,0,.1.2,0,.3,0,0,0,0,0,0h0Z"/>
    </g>
    <g>
      <path class="st7" d="M824,1417.1l13.6-6.3c.2,0,.4,0,.4.2s0,.4-.2.4c0,0,0,0,0,0h0s-13.9,5.7-13.9,5.7Z"/>
      <path class="st7" d="M865,1400c9.3-3.2,18.7-6.1,28.2-8.6.8-.2,1.6.3,1.9,1.1.2.8-.3,1.6-1.1,1.9,0,0,0,0,0,0-9.5,2.1-19,4.6-28.4,7.5-.5.2-1.1-.1-1.2-.6-.2-.5.1-1,.6-1.2Z"/>
      <path class="st7" d="M922.1,1385.1c9.7-1.7,19.5-3.1,29.3-4.1,1.4-.1,2.6.9,2.7,2.2.1,1.4-.9,2.6-2.2,2.7,0,0,0,0,0,0-9.7.7-19.4,1.7-29.1,3.1-1.1.2-2.1-.6-2.3-1.7-.2-1.1.6-2.1,1.6-2.3Z"/>
      <path class="st7" d="M981,1379.3c9.9-.2,19.8,0,29.6.7,1.8.1,3.1,1.7,3,3.4-.1,1.8-1.7,3.1-3.4,3,0,0,0,0,0,0-9.7-.9-19.4-1.3-29.1-1.4-1.6,0-2.9-1.3-2.9-2.9,0-1.6,1.3-2.8,2.8-2.9Z"/>
      <path class="st7" d="M1040.2,1383.1c4.9.7,9.8,1.5,14.7,2.4,4.9.9,9.7,2,14.5,3.1,2.1.5,3.4,2.5,3,4.6-.5,2.1-2.5,3.4-4.6,3,0,0,0,0,0,0h0c-4.7-1.2-9.5-2.3-14.2-3.3-4.7-1-9.5-1.9-14.3-2.7-2-.3-3.3-2.2-2.9-4.1.3-1.9,2.1-3.2,4.1-2.9Z"/>
      <path class="st7" d="M1098,1396.2c9.5,2.9,18.8,6.1,28.1,9.6,2.3.9,3.4,3.4,2.5,5.7-.9,2.3-3.4,3.4-5.7,2.5,0,0,0,0,0,0-9-3.6-18.1-6.9-27.4-9.9-2.2-.7-3.4-3-2.7-5.2.7-2.2,3-3.3,5.2-2.7Z"/>
      <path class="st7" d="M1153.5,1417.5c9,4.2,17.8,8.8,26.4,13.8,2.3,1.3,3.1,4.3,1.8,6.6-1.3,2.3-4.3,3.1-6.6,1.8h0c-8.3-4.9-16.9-9.5-25.6-13.7-2.3-1.1-3.3-3.9-2.2-6.2,1.1-2.3,3.9-3.3,6.2-2.2Z"/>
      <path class="st7" d="M1205.1,1447.2c8.2,5.7,16.1,11.7,23.7,18.2,2.2,1.8,2.4,5.1.6,7.2-1.8,2.2-5.1,2.4-7.2.6h0c-7.3-6.3-14.9-12.3-22.8-17.9-2.2-1.6-2.8-4.7-1.2-6.9,1.6-2.2,4.6-2.7,6.9-1.2Z"/>
      <path class="st7" d="M1250.7,1485.9c6.9,7.2,13.4,14.9,19.4,22.9,1.8,2.3,1.3,5.7-1,7.4-2.3,1.8-5.7,1.3-7.4-1h0c-5.8-7.7-12-15-18.6-22-2-2.1-1.9-5.4.2-7.4,2.1-2,5.4-1.9,7.4.2Z"/>
      <path class="st7" d="M1286.8,1533.7c5.1,8.7,9.6,17.6,13.6,26.8,1.2,2.7,0,5.9-2.8,7.1-2.7,1.2-5.9,0-7.1-2.8h0c-3.8-8.8-8.1-17.4-12.9-25.7-1.5-2.6-.6-5.8,1.9-7.3,2.6-1.5,5.8-.6,7.3,1.9Z"/>
      <path class="st7" d="M1310.7,1588.7c1.5,4.8,2.8,9.6,4,14.4,1.2,4.8,2.3,9.7,3.3,14.6.6,3-1.3,5.9-4.3,6.5-3,.6-5.9-1.3-6.4-4.3-1-4.7-2-9.4-3.2-14.1-1.2-4.7-2.4-9.3-3.8-13.9-.9-2.9.8-5.9,3.6-6.8,2.9-.9,5.9.7,6.8,3.6Z"/>
      <path class="st7" d="M1322.8,1647.2l3.1,29.4c.3,3-1.8,5.6-4.8,5.9s-5.6-1.8-5.9-4.8h0c0-.1-3.2-29.2-3.2-29.2v-.2c-.3-3,1.8-5.7,4.8-6,3-.3,5.7,1.8,6,4.8h0Z"/>
      <path class="st7" d="M1328.7,1705.8c1.1,9.6,2.5,19.1,4.9,28.2h0c.8,2.8-.9,5.7-3.7,6.5-2.8.8-5.7-.9-6.5-3.7-2.7-9.9-4.2-19.9-5.4-29.7-.4-2.9,1.7-5.6,4.6-5.9,2.9-.4,5.6,1.7,5.9,4.6h0s0,0,0,0Z"/>
      <path class="st7" d="M1345.6,1757.7c2.9,3.1,6.4,5.7,10.3,7.6,3.9,2,8.2,3.3,12.6,4.1,2.7.5,4.5,3.1,4,5.8-.5,2.7-3.1,4.5-5.8,4-5.2-.9-10.4-2.5-15.3-4.8-4.9-2.4-9.5-5.7-13.3-9.6h0c-2-2.1-1.9-5.3.2-7.3,2-2,5.3-1.9,7.3.2h0Z"/>
      <path class="st7" d="M1396.3,1769.4c9.3-1.4,18.6-3.8,27.8-6.8h0c2.4-.8,5.1.5,5.9,3,.8,2.4-.5,5-2.9,5.9-9.5,3.2-19.2,5.9-29.3,7.4-2.6.4-5.1-1.4-5.5-4-.4-2.6,1.4-5.1,4-5.5h0s0,0,0,0Z"/>
      <path class="st7" d="M1450.8,1752l6.5-3.2c2.1-1.1,4.2-2.2,6.3-3.4,4.2-2.4,8.2-4.9,12.1-7.6h0c1.9-1.3,4.5-.8,5.8,1.1,1.3,1.9.8,4.4-1,5.8-4.1,2.9-8.3,5.7-12.6,8.2-2.2,1.3-4.4,2.5-6.6,3.7l-6.7,3.4c-2.2,1.1-4.8.2-5.9-1.9-1.1-2.2-.2-4.8,1.9-5.9,0,0,0,0,0,0h.2Z"/>
      <path class="st7" d="M1498,1719.5l5.4-5.1c1.9-1.7,3.9-3.4,5.9-4.9,4.1-3.1,8.4-5.8,12.9-8.2,1.8-.9,3.9-.3,4.9,1.5.9,1.7.3,3.9-1.4,4.8h0c-4.1,2.3-8,4.9-11.7,7.9-1.8,1.5-3.6,3-5.3,4.6l-5.2,5.1h0c-1.6,1.5-4,1.5-5.5,0-1.5-1.6-1.5-4,0-5.5,0,0,0,0,0,0Z"/>
      <path class="st7" d="M1550.5,1690.8c9.7-2.4,19.6-3.8,29.6-4.5,1.6-.1,3,1.1,3.1,2.7.1,1.6-1,2.9-2.6,3.1-9.6,1-19.2,2.5-28.4,5-1.7.5-3.5-.6-4-2.3-.5-1.7.6-3.5,2.3-4,0,0,0,0,0,0Z"/>
      <path class="st7" d="M1609.7,1685.9c9.9.4,19.7,1.2,29.5,2.4,1.1.1,1.9,1.1,1.8,2.2-.1,1.1-1.1,1.9-2.2,1.8-9.7-.9-19.5-1.4-29.2-1.5-1.4,0-2.5-1.1-2.5-2.5,0-1.4,1.1-2.5,2.5-2.5,0,0,0,0,0,0Z"/>
      <path class="st7" d="M1668.4,1692.8c9.7,1.8,19.3,3.8,28.9,6,.5.1.9.6.7,1.2-.1.5-.6.8-1.1.7-9.6-1.8-19.3-3.5-28.9-4.9-.8-.1-1.4-.9-1.3-1.7.1-.8.9-1.4,1.7-1.3,0,0,0,0,0,0Z"/>
      <path class="st7" d="M1725.8,1706l14.4,4.1-14.6-3.4h0c-.2,0-.3-.2-.3-.4,0-.2.2-.3.4-.3,0,0,0,0,0,0Z"/>
    </g>
  </g>
  <polygon class="st3" points="1723.5 830.4 1727.4 830.4 1719.6 812.2 1711.7 830.4 1715.6 830.4 1711.7 839.5 1717.9 839.5 1717.9 847.8 1721.2 847.8 1721.2 839.5 1727.4 839.5 1723.5 830.4"/>
  <polygon class="st3" points="1748.2 862.7 1752.2 862.7 1744.3 844.5 1736.4 862.7 1740.4 862.7 1736.4 871.8 1742.6 871.8 1742.6 880.1 1746 880.1 1746 871.8 1752.2 871.8 1748.2 862.7"/>
  <polygon class="st3" points="1702.5 869 1706.5 869 1698.6 850.8 1690.7 869 1694.7 869 1690.7 878.1 1696.9 878.1 1696.9 886.4 1700.3 886.4 1700.3 878.1 1706.5 878.1 1702.5 869"/>
  <polygon class="st3" points="1674.9 820.5 1678.9 820.5 1671 802.3 1663.1 820.5 1667.1 820.5 1663.1 829.6 1669.3 829.6 1669.3 838 1672.7 838 1672.7 829.6 1678.9 829.6 1674.9 820.5"/>
  <polygon class="st3" points="1640.5 834.1 1644.4 834.1 1636.6 815.9 1628.7 834.1 1632.6 834.1 1628.7 843.2 1634.9 843.2 1634.9 851.6 1638.2 851.6 1638.2 843.2 1644.4 843.2 1640.5 834.1"/>
  <polygon class="st3" points="2025.8 1536 2029.7 1536 2021.9 1517.7 2014 1536 2017.9 1536 2014 1545.1 2020.2 1545.1 2020.2 1553.4 2023.6 1553.4 2023.6 1545.1 2029.7 1545.1 2025.8 1536"/>
  <polygon class="st3" points="2050.5 1568.2 2054.5 1568.2 2046.6 1550 2038.7 1568.2 2042.7 1568.2 2038.7 1577.4 2044.9 1577.4 2044.9 1585.7 2048.3 1585.7 2048.3 1577.4 2054.5 1577.4 2050.5 1568.2"/>
  <polygon class="st3" points="2004.8 1574.6 2008.8 1574.6 2000.9 1556.3 1993 1574.6 1997 1574.6 1993 1583.7 1999.2 1583.7 1999.2 1592 2002.6 1592 2002.6 1583.7 2008.8 1583.7 2004.8 1574.6"/>
  <polygon class="st3" points="1977.3 1526.1 1981.2 1526.1 1973.3 1507.9 1965.4 1526.1 1969.4 1526.1 1965.4 1535.2 1971.6 1535.2 1971.6 1543.5 1975 1543.5 1975 1535.2 1981.2 1535.2 1977.3 1526.1"/>
  <polygon class="st3" points="1942.8 1539.7 1946.7 1539.7 1938.9 1521.5 1931 1539.7 1934.9 1539.7 1931 1548.8 1937.2 1548.8 1937.2 1557.1 1940.6 1557.1 1940.6 1548.8 1946.7 1548.8 1942.8 1539.7"/>
  <polygon class="st3" points="2025.5 668.5 2029.4 668.5 2021.6 650.3 2013.7 668.5 2017.6 668.5 2013.7 677.7 2019.9 677.7 2019.9 686 2023.3 686 2023.3 677.7 2029.4 677.7 2025.5 668.5"/>
  <polygon class="st3" points="2050.2 700.8 2054.2 700.8 2046.3 682.6 2038.4 700.8 2042.4 700.8 2038.4 709.9 2044.6 709.9 2044.6 718.3 2048 718.3 2048 709.9 2054.2 709.9 2050.2 700.8"/>
  <polygon class="st3" points="2004.5 707.1 2008.5 707.1 2000.6 688.9 1992.7 707.1 1996.7 707.1 1992.7 716.3 1998.9 716.3 1998.9 724.6 2002.3 724.6 2002.3 716.3 2008.5 716.3 2004.5 707.1"/>
  <polygon class="st3" points="1977 658.7 1980.9 658.7 1973 640.4 1965.2 658.7 1969.1 658.7 1965.2 667.8 1971.3 667.8 1971.3 676.1 1974.7 676.1 1974.7 667.8 1980.9 667.8 1977 658.7"/>
  <polygon class="st3" points="1942.5 672.3 1946.5 672.3 1938.6 654 1930.7 672.3 1934.6 672.3 1930.7 681.4 1936.9 681.4 1936.9 689.7 1940.3 689.7 1940.3 681.4 1946.5 681.4 1942.5 672.3"/>
  <polygon class="st3" points="1863 439.2 1867 439.2 1859.1 420.9 1851.2 439.2 1855.2 439.2 1851.2 448.3 1857.4 448.3 1857.4 456.6 1860.8 456.6 1860.8 448.3 1867 448.3 1863 439.2"/>
  <polygon class="st3" points="1887.8 471.5 1891.7 471.5 1883.8 453.2 1876 471.5 1879.9 471.5 1876 480.6 1882.1 480.6 1882.1 488.9 1885.5 488.9 1885.5 480.6 1891.7 480.6 1887.8 471.5"/>
  <polygon class="st3" points="1842.1 477.8 1846 477.8 1838.1 459.5 1830.3 477.8 1834.2 477.8 1830.3 486.9 1836.4 486.9 1836.4 495.2 1839.8 495.2 1839.8 486.9 1846 486.9 1842.1 477.8"/>
  <polygon class="st3" points="1814.5 429.3 1818.4 429.3 1810.5 411.1 1802.7 429.3 1806.6 429.3 1802.7 438.4 1808.9 438.4 1808.9 446.7 1812.2 446.7 1812.2 438.4 1818.4 438.4 1814.5 429.3"/>
  <polygon class="st3" points="1780 442.9 1784 442.9 1776.1 424.7 1768.2 442.9 1772.2 442.9 1768.2 452 1774.4 452 1774.4 460.3 1777.8 460.3 1777.8 452 1784 452 1780 442.9"/>
  <polygon class="st3" points="938.6 234.1 942.5 234.1 934.6 215.9 926.8 234.1 930.7 234.1 926.8 243.2 932.9 243.2 932.9 251.6 936.3 251.6 936.3 243.2 942.5 243.2 938.6 234.1"/>
  <polygon class="st3" points="963.3 266.4 967.2 266.4 959.4 248.2 951.5 266.4 955.4 266.4 951.5 275.5 957.7 275.5 957.7 283.9 961 283.9 961 275.5 967.2 275.5 963.3 266.4"/>
  <polygon class="st3" points="917.6 272.7 921.5 272.7 913.7 254.5 905.8 272.7 909.7 272.7 905.8 281.9 912 281.9 912 290.2 915.3 290.2 915.3 281.9 921.5 281.9 917.6 272.7"/>
  <polygon class="st3" points="890 224.3 893.9 224.3 886.1 206 878.2 224.3 882.1 224.3 878.2 233.4 884.4 233.4 884.4 241.7 887.7 241.7 887.7 233.4 893.9 233.4 890 224.3"/>
  <polygon class="st3" points="855.6 237.9 859.5 237.9 851.6 219.6 843.8 237.9 847.7 237.9 843.8 247 849.9 247 849.9 255.3 853.3 255.3 853.3 247 859.5 247 855.6 237.9"/>
  <polygon class="st3" points="777.7 616.1 781.7 616.1 773.8 597.9 765.9 616.1 769.9 616.1 765.9 625.3 772.1 625.3 772.1 633.6 775.5 633.6 775.5 625.3 781.7 625.3 777.7 616.1"/>
  <polygon class="st3" points="802.5 648.4 806.4 648.4 798.5 630.2 790.7 648.4 794.6 648.4 790.7 657.5 796.9 657.5 796.9 665.9 800.2 665.9 800.2 657.5 806.4 657.5 802.5 648.4"/>
  <polygon class="st3" points="756.8 654.7 760.7 654.7 752.8 636.5 745 654.7 748.9 654.7 745 663.9 751.2 663.9 751.2 672.2 754.5 672.2 754.5 663.9 760.7 663.9 756.8 654.7"/>
  <polygon class="st3" points="729.2 606.3 733.1 606.3 725.2 588 717.4 606.3 721.3 606.3 717.4 615.4 723.6 615.4 723.6 623.7 726.9 623.7 726.9 615.4 733.1 615.4 729.2 606.3"/>
  <polygon class="st3" points="694.7 619.9 698.7 619.9 690.8 601.6 682.9 619.9 686.9 619.9 682.9 629 689.1 629 689.1 637.3 692.5 637.3 692.5 629 698.7 629 694.7 619.9"/>
  <polygon class="st3" points="349.2 1420.3 353.2 1420.3 345.3 1402.1 337.4 1420.3 341.4 1420.3 337.4 1429.4 343.6 1429.4 343.6 1437.8 347 1437.8 347 1429.4 353.2 1429.4 349.2 1420.3"/>
  <polygon class="st3" points="374 1452.6 377.9 1452.6 370 1434.4 362.2 1452.6 366.1 1452.6 362.2 1461.7 368.4 1461.7 368.4 1470 371.7 1470 371.7 1461.7 377.9 1461.7 374 1452.6"/>
  <polygon class="st3" points="328.3 1458.9 332.2 1458.9 324.3 1440.7 316.5 1458.9 320.4 1458.9 316.5 1468 322.7 1468 322.7 1476.4 326 1476.4 326 1468 332.2 1468 328.3 1458.9"/>
  <polygon class="st3" points="300.7 1410.4 304.6 1410.4 296.7 1392.2 288.9 1410.4 292.8 1410.4 288.9 1419.6 295.1 1419.6 295.1 1427.9 298.4 1427.9 298.4 1419.6 304.6 1419.6 300.7 1410.4"/>
  <polygon class="st3" points="266.2 1424 270.2 1424 262.3 1405.8 254.4 1424 258.4 1424 254.4 1433.2 260.6 1433.2 260.6 1441.5 264 1441.5 264 1433.2 270.2 1433.2 266.2 1424"/>
  <polygon class="st3" points="210.5 1967.9 214.4 1967.9 206.6 1949.6 198.7 1967.9 202.6 1967.9 198.7 1977 204.9 1977 204.9 1985.3 208.2 1985.3 208.2 1977 214.4 1977 210.5 1967.9"/>
  <polygon class="st3" points="228.2 1943.7 232.2 1943.7 224.3 1925.5 216.4 1943.7 220.4 1943.7 216.4 1952.8 222.6 1952.8 222.6 1961.1 226 1961.1 226 1952.8 232.2 1952.8 228.2 1943.7"/>
  <polygon class="st3" points="182.5 1950 186.5 1950 178.6 1931.8 170.7 1950 174.7 1950 170.7 1959.1 176.9 1959.1 176.9 1967.5 180.3 1967.5 180.3 1959.1 186.5 1959.1 182.5 1950"/>
  <polygon class="st3" points="136.2 1963.1 140.2 1963.1 132.3 1944.9 124.4 1963.1 128.4 1963.1 124.4 1972.3 130.6 1972.3 130.6 1980.6 134 1980.6 134 1972.3 140.2 1972.3 136.2 1963.1"/>
  <polygon class="st3" points="120.5 1915.1 124.4 1915.1 116.6 1896.9 108.7 1915.1 112.6 1915.1 108.7 1924.3 114.9 1924.3 114.9 1932.6 118.2 1932.6 118.2 1924.3 124.4 1924.3 120.5 1915.1"/>
  <polygon class="st3" points="1173.8 1309.8 1177.8 1309.8 1169.9 1291.5 1162 1309.8 1165.9 1309.8 1162 1318.9 1168.2 1318.9 1168.2 1327.2 1171.6 1327.2 1171.6 1318.9 1177.8 1318.9 1173.8 1309.8"/>
  <polygon class="st3" points="1191.6 1285.6 1195.5 1285.6 1187.6 1267.4 1179.7 1285.6 1183.7 1285.6 1179.7 1294.7 1185.9 1294.7 1185.9 1303 1189.3 1303 1189.3 1294.7 1195.5 1294.7 1191.6 1285.6"/>
  <polygon class="st3" points="1145.8 1291.9 1149.8 1291.9 1141.9 1273.7 1134 1291.9 1138 1291.9 1134 1301 1140.2 1301 1140.2 1309.4 1143.6 1309.4 1143.6 1301 1149.8 1301 1145.8 1291.9"/>
  <polygon class="st3" points="1099.6 1305 1103.5 1305 1095.6 1286.8 1087.8 1305 1091.7 1305 1087.8 1314.2 1093.9 1314.2 1093.9 1322.5 1097.3 1322.5 1097.3 1314.2 1103.5 1314.2 1099.6 1305"/>
  <polygon class="st3" points="1083.8 1257 1087.8 1257 1079.9 1238.8 1072 1257 1075.9 1257 1072 1266.2 1078.2 1266.2 1078.2 1274.5 1081.6 1274.5 1081.6 1266.2 1087.8 1266.2 1083.8 1257"/>
  <polygon class="st3" points="1094.3 973 1098.2 973 1090.4 954.8 1082.5 973 1086.4 973 1082.5 982.1 1088.7 982.1 1088.7 990.4 1092 990.4 1092 982.1 1098.2 982.1 1094.3 973"/>
  <polygon class="st3" points="1112 948.8 1116 948.8 1108.1 930.6 1100.2 948.8 1104.1 948.8 1100.2 958 1106.4 958 1106.4 966.3 1109.8 966.3 1109.8 958 1116 958 1112 948.8"/>
  <polygon class="st3" points="1066.3 955.2 1070.3 955.2 1062.4 936.9 1054.5 955.2 1058.4 955.2 1054.5 964.3 1060.7 964.3 1060.7 972.6 1064.1 972.6 1064.1 964.3 1070.3 964.3 1066.3 955.2"/>
  <polygon class="st3" points="1020 968.3 1024 968.3 1016.1 950.1 1008.2 968.3 1012.2 968.3 1008.2 977.4 1014.4 977.4 1014.4 985.7 1017.8 985.7 1017.8 977.4 1024 977.4 1020 968.3"/>
  <polygon class="st3" points="1004.3 920.3 1008.2 920.3 1000.4 902.1 992.5 920.3 996.4 920.3 992.5 929.4 998.7 929.4 998.7 937.7 1002 937.7 1002 929.4 1008.2 929.4 1004.3 920.3"/>
  <polygon class="st3" points="378.5 530.2 382.4 530.2 374.5 512 366.7 530.2 370.6 530.2 366.7 539.3 372.8 539.3 372.8 547.6 376.2 547.6 376.2 539.3 382.4 539.3 378.5 530.2"/>
  <polygon class="st3" points="396.2 506 400.1 506 392.3 487.8 384.4 506 388.3 506 384.4 515.1 390.6 515.1 390.6 523.5 393.9 523.5 393.9 515.1 400.1 515.1 396.2 506"/>
  <polygon class="st3" points="350.5 512.4 354.4 512.4 346.6 494.1 338.7 512.4 342.6 512.4 338.7 521.5 344.9 521.5 344.9 529.8 348.2 529.8 348.2 521.5 354.4 521.5 350.5 512.4"/>
  <polygon class="st3" points="304.2 525.5 308.1 525.5 300.3 507.2 292.4 525.5 296.3 525.5 292.4 534.6 298.6 534.6 298.6 542.9 301.9 542.9 301.9 534.6 308.1 534.6 304.2 525.5"/>
  <polygon class="st3" points="288.5 477.5 292.4 477.5 284.5 459.2 276.6 477.5 280.6 477.5 276.6 486.6 282.8 486.6 282.8 494.9 286.2 494.9 286.2 486.6 292.4 486.6 288.5 477.5"/>
</svg>